<svg id="圖層_1" data-name="圖層 1" xmlns="http://www.w3.org/2000/svg" viewBox="0 0 48 48"><defs><style>.cls-1{fill:#5fbd87}</style></defs><title>icon-location</title><path class="cls-1" d="M24 48C20.93 48 5.53 25.53 5.53 18A18.24 18.24 0 0 1 24 0a18.24 18.24 0 0 1 18.47 18C42.47 25.43 27 48 24 48zm0-45A15.2 15.2 0 0 0 8.61 18c0 6.27 12.84 25.51 15.39 25.5S39.39 24.19 39.39 18A15.2 15.2 0 0 0 24 3zm0 22.5a7.6 7.6 0 0 1-7.7-7.5 7.7 7.7 0 0 1 15.4 0 7.6 7.6 0 0 1-7.7 7.5zm0-12a4.5 4.5 0 1 0 4.62 4.5A4.56 4.56 0 0 0 24 13.5z"/></svg>