<svg xmlns="http://www.w3.org/2000/svg" viewBox="0 0 48 48"><defs><style>.cls-1{fill:#d0d0d0}</style></defs><title>icon-search-gray</title><g id="圖層_2" data-name="圖層 2"><path class="cls-1" d="M48 44.31A3.75 3.75 0 0 1 44.31 48a3.43 3.43 0 0 1-2.6-1.1L31.82 37a19.75 19.75 0 0 1-11.51 3.58A20 20 0 0 1 12.42 39 19.88 19.88 0 0 1 1.6 28.2a20.24 20.24 0 0 1 0-15.78A19.9 19.9 0 0 1 12.42 1.6a20.24 20.24 0 0 1 15.78 0A19.92 19.92 0 0 1 39 12.42a20 20 0 0 1 1.6 7.89A19.74 19.74 0 0 1 37 31.82l9.89 9.89a3.54 3.54 0 0 1 1.11 2.6zM29.44 29.44a12.44 12.44 0 0 0 3.79-9.13 12.44 12.44 0 0 0-3.79-9.13 12.44 12.44 0 0 0-9.13-3.79 12.44 12.44 0 0 0-9.13 3.79 12.45 12.45 0 0 0-3.79 9.13 12.45 12.45 0 0 0 3.79 9.13 12.45 12.45 0 0 0 9.13 3.79 12.45 12.45 0 0 0 9.13-3.79z" id="圖層_1-2" data-name="圖層 1"/></g></svg>