<svg id="圖層_1" xmlns="http://www.w3.org/2000/svg" viewBox="0 0 200 200"><style>.st0{fill:#ef2b2b}.st1{enable-background:new}</style><path class="st0" d="M84.5 189.3c-.8-.1-1.6-.3-2.3-.4 7.5 1.4 15.6 2 23.5 1.5-4.4.1-8.9-.2-13.3-.7-4.5-.5-8.9-1.4-13.2-2.4-4.2-1-8.4-2.3-12.3-3.4-1.9-.6-3.7-1.2-5.5-1.8-1.8-.7-3.5-1.2-5.1-1.7-.2-.4-1.2-1.2-2.7-2.3-1.4-1.2-3.2-2.4-5-3.8-3.5-2.6-6.7-5.4-6.9-5.3-.7-.5-1.4-1.1-2.1-1.5-.6-.6-1.4-1.2-2.1-1.6-1.4-1.1-2.7-2.3-3.9-3.5.9.9 1.8 1.7 2.7 2.5.9.8 1.8 1.5 2.8 2.3-.9-.8-1.8-1.5-2.8-2.3-.9-.9-1.8-1.7-2.7-2.5-8-7.8-14.8-17.7-19.2-29C10.1 122.1 8 109.6 8.6 97c.1-3.5.7-8.5 1.8-14.1s3.1-11.8 5.6-17.8 5.8-11.6 9.1-16.3 6.7-8.4 9.2-10.9c1.5-1.4 3-2.9 4.5-4.1-1.3 1.1-2 1.7-2.6 2.3-.7.6-1.3 1.1-2.5 2.3C39.5 32 45.5 26.8 52 22.7c-1.2.5-1.6.5-4.3 2.1 1.2-.7 2.2-1.4 3.4-2.1.7-.6 1.7-1.2 2.8-2 1.2-.7 2.5-1.4 3.8-2.2 1.4-.7 2.7-1.4 3.9-2 1.2-.5 2.4-1.1 3.3-1.5-.3.2.2.1 1.1-.2s2.4-.7 3.6-1.2l-1 .3c4.9-1.7 10.3-3.1 15.6-4 5.4-.9 10.7-1.3 15.3-1.2 1.3 0 2.3.2 2.9.2 1.5 0 2.9 0 4.4.2 1.5.1 3 .2 4.4.4-.4.1 1.5.5 2.8.7 1.3.3 2.3.5.1.3 6.6.8 12.9 2.8 19 4.8 10.5 4.2 20.5 10.4 29.1 18.4 8.6 8 15.8 17.8 20.8 28.4l-.1-.6c1.8 3.7 3.5 7.3 4.8 11.1 1.4 3.9 2.5 8.1 3.2 13.1.8 3.6 1.4 7.9 1.7 11.7.1 1.9.3 3.7.3 5.1.1 1.6.2 2.6.3 3.4-.1 2.1-.2 3.9-.4 5.5s-.3 3.1-.4 4.6c-.2 1.4-.4 2.9-.7 4.5-.4 1.5-.6 3.3-1.2 5.4.5-1 0 1-.4 2.7-.5 1.7-.8 3.1-.1 1.3 2.1-5.2 1.7-5.7 3.2-10.1l-.1.1c2.6-10.8 3.2-22.1 1.9-33.2-1.4-11.1-4.7-22-10-32.1-7.2-13.3-18.1-26.1-31.3-34.9-3.4-2.4-7.3-4.5-11.1-6.5-1.9-.9-3.9-1.9-5.9-2.7-1-.5-2-.8-3-1.2-1.1-.3-2-.7-3.1-1-8-2.8-16.1-4.1-23.4-4.6-1.7-.1-3.2-.2-4.6-.3-.7-.1-1.4-.1-2-.2-.8-.2-1.5-.2-2.3-.2-6.6.2-14.3.8-21.8 2.7-7.5 1.9-15 4.7-21.7 8.1.3-.1.5-.3.7-.4-1.7 1-3.4 1.8-5 2.7-1.6.9-3.1 1.7-4.5 2.6-1.5.9-3 1.8-4.4 2.9-.7.5-1.4 1.1-2.2 1.6-.7.6-1.4 1.2-2.2 1.7.1 0-.8.8-1.2 1.2-.1.1-.8.6-1.8 1.5-.5.4-1.2 1-1.8 1.6-.7.6-1.4 1.3-2.1 2.1-3 3.1-6.9 7.6-10.1 12.4s-6 10-7.8 14.1c-.5 1-.9 2-1.3 2.9-.4.9-.7 1.7-.9 2.4-.6 1.3-1 2.3-1.1 2.6-.2.7-.5 1.6-.8 2.3-2.8 7.9-4.8 16-5.7 24-1 8-.8 15.8.5 22.8.2.8.3 1.5.5 2.3.2.8.4 1.6.6 2.3.2.8.5 1.4.6 2.2.2.7.5 1.3.6 2 .4 2.5 1 2.8 1.8 5.6.8 3.8 1.7 6.7 2.4 8.1.6 1.5.8 1.4.2-.4 2.5 5.7 5.4 11.3 8.5 15.8 1.4 2.1 3 4.2 4.7 6.1 1.5 1.7 2.1 2.7 2.7 3.7 3.8 4.1 2.5 3.1 6.7 7.2.2.3 1.1 1.1 2.2 2 1.1.9 2.6 2 4.1 3.2 1.5 1.1 3 2.2 4.3 2.9s2.2 1.4 2.6 1.7l-.8-.5c.7.5 1.3.9 2 1.4.7.5 1.2.9 1.9 1.2 1.2.9 2.4 1.6 3.7 2.4 2.4 1.5 4.9 2.9 8 4.3 4.3 2 8.8 3.5 13.5 4.8 4.6 1.3 9.4 2.2 14.3 2.7 4.8.5 9.5.7 14.1.5 4.7-.2 9.1-.6 13.4-1.4.1-.3-3.7.6-4.1.2 10.1-1.4 20.2-3.8 29.5-8.4 1.8-.7 3.8-1.7 4.6-2 3-1.5 1.7-1.1 3.7-2.3l.4.1c1.5-1 2.6-1.7 3.7-2.3 1.1-.6 2.2-1.3 3.6-2.2.1-.2 1-1 2-1.7.3.2 2.9-2.3 2.9-2 .6-.4.9-.7 1.6-1.3.2-.3.9-1 2-2.1.9-1 2.1-2.4 3.3-3.7 1.2-1.4 2.2-2.8 3.1-3.9.8-1.1 1.5-2 1.6-2.3l.5-.4c1.2-1.5 1.5-2.3.8-1.4l1.4-1.9-.2.2 1.4-1.9c.4-.4.7-.6.5 0 .6-1.2 1.4-2.5 2.2-3.5-1.2 1.4-2.3 3.1-3.7 4.7-.7.8-1.3 1.6-2.1 2.4l-2.1 2.1c.5-.7 1.2-1.5 1.9-2.3.7-.8 1.4-1.8 1.9-2.4.4-.4.7-.8 1.3-1.3.4-.6 1-1.2 1.4-1.9.5-.7 1.1-1.4 1.5-2.1.5-.8.9-1.4 1.4-2.1.3-.6.3-1.2 1.2-2.5.7-.6.9-1.6 1.7-2.7-.6 1.4-1.4 2.7-2.2 4.1.5-.1 2-3.2 2.7-4.3.2-.5 1.5-3.3 2.3-5-.1.9.8-1.4 1.4-2.4.5-1.2.8-2 .4-1.5-.2-.5-2.1 4.7-1.8 2.8.4-.4 1.3-2.8 1.7-4-.2-.1-.4.8-.3-.1.6-1.3.9-3 1.3-3.7-.1.3-.3.8-.4 1.3.3-1-.2 1.7-.9 4.2s-1.5 4.9-1 3.8c-.2.3.7-2.4 1.4-5.1.7-2.6 1.4-5.2 1.1-4.6-.5 1.1 0-1-.4.2l-.2 1.3c-.6 1.6-1.2 2.1-1.1 1.5.5-1.4.1.6-.4 2.7-.5 1.9-1.1 4.1-.7 2.9-.2.3-.3.6-.5.9.3-1 1.3-3.6 1.8-4.5-.1 0 .2-1.4.6-2.5l.1-.4c.3-1.2.9-2.6.4-2-1.2 3.3-1.2 2.1-1.2.8-.1-1.2-.1-2.5-1.3.6.6-1.2.7-1 .4-.1-.3.8-.8 2.4-1.4 3.8-.2.2-.9 1.3-1.8 3.2-.8 1.6-.3 1.1-.5 1.4-.5.9-1.4 2.6-1.4 2.2-.5 1.4-1.2 1.9-1.9 3.4-.6 1.3.1-.1-.3 1-1.1 1.9-2.8 4.6-3.9 6-.5.4-1.9 1.9-1.4.6 2-2.8-.3 1.3 1.6-1.6-.6.5-.2-.2.3-1.1.5-.9 1.2-1.9 1.3-2.4-.4.5-.8 1.1-1.3 1.9-.5.8-1.1 1.6-1.6 2.4l.2-.3c-.8 1.4-2.8 4.1-4 5.4.1-.4-.4.1.3-.8-.4.6-1 1.2-1.4 1.8-.2.3-.3.5.1 0-.6.8-1.4 1.7-1.9 2.3 0 0-.6.6-1.3 1.5s-1.6 2.1-2.7 3.1c-.9 1.1-1.9 2.2-2.7 3-.7.8-1.2 1.2-1.2 1.1-1.2 1.1-1.7 1.2-2.8 2.4 0 0 .1-.1.5-.4.3-.2.8-.7 1.3-1.1 1-1 2.4-2.3 3.7-3.6.6-.6 1.3-1.3 1.8-1.9.6-.6 1-1.2 1.4-1.7.8-.9 1.2-1.4.8-.9-.3.2-1.1 1.3-2.4 2.6-1.3 1.3-2.8 3.1-4.5 4.6-1.6 1.6-3.4 3.1-4.7 4.3-1.4 1.1-2.4 1.9-2.6 1.9-.9.7-2.2 1.6-1.8 1.5-1.8 1.1.3-.6-1 0 0 0 .1 0-.2.3l-1.3.6c-1.3 1-3 2-4.6 2.9-1.7 1-3.5 1.9-4.9 2.7.8-.6 1.6-1.3 3.4-2.5l.4-.1c.3-.1 1.8-1.1 1.6-1.2-.9.5-1.7 1-2.6 1.4-.8.4-1.6 1-2.6 1.5-.4.1-.8.3-1.1.4h.1c-.7.2-.6.1-.4 0 0 0 0-.1.1-.1-.7 0-2.4 1-4.5 1.9-2.1 1-4.4 2-6.2 2.5-1.1.4 0 .1-1.4.6-.9.3-1.8.5-2.6.7-.8.2-1.6.3-2.4.5-.8.2-1.6.3-2.4.5-.9.2-1.7.3-2.8.5-1.2.4-1.2.5.2.4-1 .1-2 .4-3 .4 2.5-.9-5.5.4-2.7-.7-.8.1-2.6.2-4.3.5-.2.2-.4.5-2.5.5-2.9 0-2.3.1-4.7-.1-.5-.2.3-.2.2-.4-3.7.3-3.2-.3-6.7-.4-2.2-.1-6.4-.5-6.5-.3-2 .3-2 0-1.7-.2z"/><path class="st0" d="M179.3 126.3c0 .2.3.2.4-.6l-.1-.6-.3 1.2zm2.1-4.7c.1-.9 0-2-.5-1.4.1 1 0 1.2.1 2.2-.1.8-.5 1.2-.6 1.1 0 .2-.4 1.2-.3 1.6.5-.9 1-2 1-3.4.2-.5.2-.1.3-.1zM168.5 51l.2.4c-.1-.2-.2-.3-.2-.4zm-36-28.2c.3.1.4.1.5.2-.3-.1-.6-.2-.5-.2zm-7.3-3c.2.1.3.1.4.1-.1 0-.3-.1-.4-.1zM168.5 51l-.6-1c-.3 0 .2.5.6 1zm14 60.5zm-3.8-43l.1.4c.1.1.2.2.3.2l-.4-.6zm4.5 15c0-.4-.4-.4-.5-.5.2.2.3.5.4.7.1.1.1 0 .1-.2zm1 24.7v.5c0-.2-.1-.3 0-.5zm-10.4-49.7s0-.1.1-.2c-.2 0-.1.1-.1.2zm-2.5 83.6c.1-.1.1-.1 0 0zm8.8-15.5l-.1.2c.1 0 .1 0 .2.1l-.1-.3zM111 16.4c.5.1.2.1 0 0zM17.2 91.7c.4-1.5.1 2.5.6.2-.2.3-.4-2.1-.6-.2zm165.4 19.5c.1-.2 0-.5.1-.7-.1.3-.1.4-.1.7zM17.8 91.9l.1-.2c-.1.1-.1.2-.1.2zm60-72.6c.1 0 .2.1.4 0h-.4zm24.6-2.8l-.6-.1c.3.1.5.1.6.1zm-36.6 7.8c-.3.1-.4.1-.8.3 0 0 .1 0 .1-.1.2 0 .3-.1.7-.2zm-11.7 6.6c.1 0 .1-.1.2 0 .1-.1.3-.1.3-.2l-.5.2zm89.6 139.4c.2 0 .5-.1.6 0-.1-.2 1.5-1.2-.6 0zm38.9-58.8c-.1-.1-.1-.1-.1-.4.1.2 0 .3.1.4 0 .1 0 .1 0 0zM66.4 26.7l-1.9.9c.5-.1 1.2-.5 1.9-.9zM54.9 168.2l.4.2c0-.1-.3-.2-.4-.2zm4.2-137.5c-.4.1-.8.2-1.1.5 0 .1-.2.2-.2.2l1.3-.7zm85.4 139.5z"/><path class="st0" d="M155 161.4c-1.5 1.3-.4.9-.6 1.3-1.8 1.5-1.1.5-1.8.8-.5.5-.9 1-1.4 1.4-.4.5-.9.9-1.2 1.2-.1 0-.3.1-.2-.2-1 1.2-3.8 2.6-5.1 4-.1.1-.2 0-.2 0 .4 0 .5.2.6.3-.7.5-1.3 1.1-1.8 1.1.5-.3.5-.4.7-.6l-.8.6c-1 0 1.1-.7.9-1-.8.6-1.5 1.1-2.3 1.7-.8.6-1.5 1-2.2 1.3-.4-.1 2.8-1.7 1.1-1.1.7-.2 1.3-.6 1.9-.9-1.8.4 1.2-.7-.5-.4-1.2.7-1.9 1-2.6 1.5-.7.4-1.3.9-2.7 1.4-.5.4.3.2-.2.6-1.8 1.1-2.6 1.1-3.2 1.2-.7 0-1.3 0-2.5.8-.6.5-.7 1.1-2.9 1.5l.6-.6c-2.6.9-1.3 1.1-4.1 1.7.5-.3 2-.7 1.6-.6-1.8.2-1.2.7-2.6 1l-.4-.2c-2.9.8-5.9 1.8-9.1 2.4.2-.2.7-.4-.1-.4-2 .4-4.2.6-6.4.8-2.2.1-4.3.1-6.2 0l-1.5.3c-.4 0-.6-.2-.3-.2-1.6-.2-.1.2-.8.3-.8 0-1.1-.2-.6-.3-2.7.3-7.8 0-10.6-.8h.6c-2.2-.5-2.5.2-4.6-.4h.4c-4.7-1.1-9.9-2.5-13.1-4.3-.9.2-4.3-2-4.9-1.6-2.3-1.5-1.6-1.2-4.9-3.3-.9-.5-1.5-.4-2.7-1l.1-.3-1.7-.6c-.1-.3-.4-.6-.5-.9l-1.1-.6c.4.2.7.7.7.8-.8-.5-1.7-1.2-2.5-1.8-.7-.6-1.1-1.2-1.1-1.2-1.3-.8-2.5-1.6-3.6-2.5.1-.1.8.4 1.3.7-2.1-1.3-.1-.5-1.9-1.7.1.3-.2 0-.4.1-.3-.5-1-1-1.7-1.7s-1.6-1.3-2.2-2l.4.1c-2.3-2.4-4.9-4.9-7.2-7.8.7 1.1.2 1.1-.5.3l.1-.6c-.6-.4.6 1-.5.1-.8-1.1-.3-1 .4-.5l-1.1-1.3c0-.1.3.1.4.1-.6-.4-1.4-2.5-2.3-3.1v-.1c-.6-.8-1-1.4-1.3-2-.4-.6-.7-1.2-1.1-1.7-.7-1.1-1.3-2.1-2-3.3-.3.1-.9-1-1.5-1.7-.4-1.1-.8-2.1-1.3-3.2s-.9-2.4-1.4-3.6c-.9-1.7-.5-.4-.9-1.1.2-.3-.8-2.7-.1-1.6-.6-1.5-.9-2.4-1.3-3.6-.2-.5-.4-1.1-.6-1.7-.2-.7-.5-1.4-.7-2.4 0 .5 0 1-.1.7-.2-.7-.3-1.6-.2-1.6l.1.1c-.7-2.1-1-4.8-1.2-7.3-.2-1.2-.1-2.5-.2-3.6 0-.6-.1-1.1-.2-1.6s-.1-1-.2-1.5v.2c-.2-1.2-.4-2.5-.5-3.7 0-1.8.3 1 .4-.2-.1-1-.2-1.9-.3-2.8 0-.8.1-1.6.1-2.3 0-1.5.3-3 .2-4.6.2-.6.5-1.5.7-2.5.2-1 .2-2.2.5-3.4.2-1.2.4-2.3.7-3.5.2-1.1.6-2.2 1-3v.5c.1-.9.3-1.1.7-1.7-.1.1-.4.9-.4.4 1-3.7 2.3-7.3 4-11 1.8-3.5 3.6-7 5.8-10.2 1.5-2.4 0-1.9 2.3-4.6l-.2 1.1c2.9-5 7.2-9.3 11.1-13.4-.2.3-.1.3-.5.8 1-.6 3.3-2.9 3.1-3.1.7-.6.2 0 .8-.2 1-.6 2.1-2.1 2.8-2.4.1-.1-.2.3-.4.5.5-.5 2.9-2.1 2.1-1.9.9-.5 1.7-1.2 2.5-1.8.8-.6 1.5-1.1 2.3-1.5.7-.8 3.2-1.8 3.2-2.3.1.5 3.4-1.5 4.6-2.1-.4.4 1.2-.3.7 0 1.4-.7 2.6-1.2 2.2-1.4 2.8-.6 5.1-2.6 6.9-2.3 4.2-1.7 8.3-2.8 12.3-3.6 0 .2-1.2.4-2.2.7-1 .3-2 .5-2 .6.9-.3 1.8-.5 2.6-.7.8-.2 1.6-.4 2.3-.5 1.5-.3 3-.6 4.9-.7 1 0-.6.3-.8.4 1.9-.3 3.8-.4 5.6-.5 1.9 0 3.6-.1 5.3-.1 0 0-.4.1-.7.1.7 0 1.6.2 1.6-.1h-.7c-1.1-.3 2.8-.6 2.8-.7-1.2.5 3.4.5 1.5 1.1.5 0 1 0 .9-.2.7.1.9.2.1.3 2.4.1 1.6-.2 3.8.1 0 .1-.5.1-.8.2 1.1-.1 2.3-.2 4.1.3 0 0 .2.1-.4 0 1.6.3 2.9.4 4.4.6s2.8.4 4.4 1.1c-1.1.2 1.1.5 1.1.9.7.1 1.2.3 1.8.5l-.7-.5c1.6.6 3 .8 4.3 1.4-.4-.1-.7-.2-1.2-.3 1 .3 2 .8 2.9 1.1l-1.6-.9c1.6.4.1-.6 2 .4-.4-.1 1.6.6 2.2 1.2.7.2 1.6.4 2.7 1.1.2.3-.5.3-.3.5.9.1 3.5 1.8 4.5 2-.3-.1-.5.1-.4.2l.7.1c.7.5.6.6.5.6 1.9 1.2-.3-.8 1.9.7-.2-.1-.1 0-.5-.2 2.3 1.6 4.6 2.8 6.5 4.5.3.8-1.8-1.2-1.4-.5 3 2 6.2 4.4 8.7 6.8l-.3-.1c.7-.1 1.7 2.1 3.1 3.1-.4-.4-.6-.2-.5-.2.7.9 1.6 1.8 2.6 2.8 1 1 2 2.2 3.2 3.5l-.4-.2c.7 1.3 2.2 3.1 3 4.4.4.2.8 1.1.8.5 1.9 4.4 5.1 7.6 6.2 11.8-.2-.4-.6-1-.5-.6.6 1 1.1 2.1 1.5 3.2.1-.3-.1-.5-.2-1.2.4.4.9 1.2 1.2 2.1-.8-1.4-.4.1-.3.8 0-.1.2.1.2 0 .2 1.9.6.1 1.2 2.6l-.2-.1c.4.8.9 1.7 1.1 2.7-.2.5-.4-1-.6-.9.5 1.4 1.4 2.6 1.4 4-.3-.6-.5-1.4-.7-2 .1 1.4.2 1.6.4 2.7v-.1c.2.8.3 1.6.5 2.4v-.6c.6.8.9 1.7 1 2.7.1.5.3 1 .3 1.5.1.5.2 1.1.5 1.7-.9-2.3-.4-.4-.7-.5 0 .6.1 1.6-.1 1.4.5 1.1.1 1.9.6 3.5-.1.1.1 1.2-.2 1 .2 1.5.1-.4.3-.2.6 2.3-.1 5.5.4 8.7.1 1.4.2 2.3.3 3.1.1.8.2 1.6.2 3-.3.8-.3-.8-.3-.8-.3 1.4-.4 2.6-.3 3.9 0-.2-.2-.1-.4.4-.1 1.1.3.8 0 2.2 0-.2-.2-.7-.3-1.2-.1.7-.1 1.3-.1 2-.1.7-.1 1.3-.2 1.9-.2.3-.1-.8-.1-1.3-.2 1.4-.6 3.8-.4 4.3l.3-1c-.1.6-.3.2-.3-.2 0-1.3.5-1.8.6-1.8l-.1.9c.4-.5.6-1.3.7-2.5s.1-2.3.2-3.2l.3.8-.1-2c.1-.4.5-.7.4.2.5-1.4-.1-1.2.3-2.4 0-.1 0-.1.1 0v-1.4c0 .2.3-.2.2.7.3-1.2.2-2.2.2-3-.1-.8-.1-1.4.1-1.8v.2c0-3.4-.4-.4-.7-2.8l.8-1.7-.4-.4c0-.4 0-1.1.1-.9-.3-1.3-.2.2-.4-.5 0-.8.1-2-.1-3-.1-1-.2-1.8.1-2.1-.3-.6-.1 1.6-.4-.1.2-.3.1-.8 0-1.4-.1-.6-.4-1.4-.4-2.1.3.5.4 1.9.5.3-.3-.5-.4-1.2-.4-1.9-.1-.8-.1-1.7-.3-2.3-.2 0-.4-.7-.6-1.6s-.5-2.2-.8-3.2c.2.1-.9-4.1-1.4-6h.1c-.5-.2-1.1-2.3-1.8-3.7.2 0 .4.1.9.9-.2-.4-.4-1-.5-1.3-.2-.3-.5-.6-.9-1.5l.4.2c-.4-1-.9-1.7-1.4-2.7-.5-.9-1-2-1.5-3.1-.4 0 .3 2.1-1.1-.1.1-.2.2-.4.6.2-.2-.2-.5-.6-.6-1l.7.8c-.5-1.1-.5-.4-.9-1.2.1-.1-.1-.6.1-.6.2.2.4.7.5 1-.4-1-.9-2-1-2.4 0 .1-.3.1-.7-.5-1-1.6-.1-.7-.6-1.7-.4-.4-.9-1.5-1.2-1.3-.3-.5-.2-.7-.3-.9-.4-.4-1-1.4-1.6-2-.6-.7-1-1.2-.7-.6l.2.2s-.1 0-.1-.1c-.5-.6-1.1-1.3-1.6-1.9-.5-.6-1-1.3-1.6-2-1-1.4-2.1-2.7-3.2-3.9l.1-.1-2.1-2.1c-.7-.7-1.5-1.3-2-1.7-.5-.4-.8-1.1-.6-1-1.1-.9-1.3-1-2.8-2.5 1.3.8-.3-.5 1.2.9-1.5-1.3-1.7-1.7-3.4-2.8.7.2-.9-1.1-1.7-1.6l1 1c-.8-.6-1.5-1.1-2.3-1.7h.6c-3-2.6-6.3-3.3-8.6-5.4-1.1-.2 1.8 1.2.9 1-1.6-.9-3-2.3-3.5-2.6-2.2-1.2-2.3-.5-4.6-1.7.3.2.4.7-1.4.1-1.6-.8-1.8-1.3-.7-1.1.4.1.6.3.6.3.5.2 1.3.4.7 0h-.2c-.4-.2-1.1-.6-1.7-.9-.6-.3-1-.5-.7-.5-1.3-.3-.6 0 .3.5-2.2-.9-3.4-1.2-5.7-2.1.3.2.7.5.2.3-3.3-1.1-1.6-.3-3.8-.8-1.2-.5.6-.4-1.7-.8-1.4-.5-.2-.4.4-.4-.6-.1-1.1-.2-1.6-.3-.5 0-1-.2-1.4-.3-.8-.3-1.6-.5-2.3-.6l1.1.1c-.7-.1-1.2-.2-1.8-.2.2.1.4.2.6.4-.6-.2-1.2-.3-1.2-.4-.7.1.4.5-.9.5-.8-.3-2.7-.3-3-.6 2.8.4-.2-.4 2.2-.1-.5 0-1-.1-1.7-.2-.1 0 .1-.1.2 0-2.6-.5-1.3.3-4.1-.1.4-.1-.7-.5-1.1-.3 1.2 0 .5.4-.5.4-1.8-.2-2 0-2.9 0l1 .1c-.4.2-1.2.1-2.5.2-.1-.1 1.1-.1.6-.1-1.4.4-3.1-.4-5 0-.9-.1-.1-.4-.9-.4-2.1.4-2.3-.1-4.6.4.6.2.8.1-.8.6l3.7-.5-2.1.5c1.1-.1 2.4-.4 3.1-.4-1.2.3-1 .3-.5.4-1.6-.2-3 .5-4.8.5v-.7c-1.3 0-2.6.3-3.7.6-1.3.4-2.6.7-4.3 1 .4 0 .7-.1 1.1-.1-.4.4-2.1.6-3.1 1 .1-.2-.7-.1-1.1-.1.1.1-2.5.7-2.6 1.2-.5.1-1.1.1-1.6.2-2.7.9-2.8 1.7-5.3 2.6.6-.5-.5-.2 1.1-1.1-.8.3-1.6.6-1.5.8-.2 0-.8.3-1.4.7-.6.4-1.2.7-1.5.8-.7.3-.6.6-1.6 1-.1 0-.1-.1-.1-.1.1.1-1.3.9-.5.7-2.8.6-6.8 3.8-9.1 4.7-1.7 1.1-3.4 2.6-4.9 3.7 0-.1-.1-.1.2-.3-2 1.5-.8 1.4-3.1 3.1-1.3.6.9-1.1.2-.6-.7-.2-2.5 2.3-4.2 3.3l.4-.4c-1.2.9-2.4 2.6-3.9 4.4 0 0 0-.1-.1-.1-.4.7-1.1 1.6-1.8 2.7s-1.6 2.1-2.2 3c.2-.7.5-.9 0-.7-.6.8.6.1-.6 1.7-.5.4-1.5 1.5-1.9 1.5.3-.6.7-1.1 1.1-1.5-.9.5-1.5 2-2.1 2.8v-.2c-1.6 2.5-1.3 2.8-2.8 5.4l.3-.2c-.5 1.7-.9 1.1-1.5 2.8l-.7.2c-.3.5-.6 1.4-.9 2.5-.3 1.1-.8 2.2-1.2 3.1.2-1.2 1-3.4 1.5-4.8-.5 1-1.6 3.5-1.7 4.1.1-.4.3-1 .6-1.3-.3 1.4-.8 3.1-1.7 5.2-.7-.7-2.2 5.4-3.2 6.8-.8 4-2.2 7.6-2.7 12.3.9-1.6-.2 1.3.6 1.1-.1 1-.1 1.5-.2 1.6l-.8 3.5c-.2.7-.1-1.1-.3-.9-.2 2.4-.3 1-.6 2.5.2-.3.3.8.2 2.2l.4-1.9c.2 3.4-.6 2.9-.3 6.2l-.3-1c.1 1.7.4 6.3 1.1 8-.1.3-.2.7-.4 0 .4 4.1 2 8.9 2.5 12.1l-.2-.3c.2.8.6 1.3.7 2.1-.1 0-.3-.2-.1.1.2.4.9 1.8 1.1 2.8l-.5-.7c.5 1.9 1.1 3.3 1.7 4.7.7 1.3 1.4 2.5 2.1 4-.4.2.7 3.2 1.4 4.6h-.1c2.1 4.2 4.3 6.7 6.9 10.1 1 2.6 5.4 7.3 8.3 10.6-.4-.5.3-.2 1 .3.7.8 2.3 1.7 1.8 1.9l-.3-.2c.3.8 1.8 2.3 3.2 3.3l.6-.3c1.3 1.7 3.6 3.3 5.7 4.7 1.1.7 2.2 1.3 3 1.9.9.5 1.5 1.1 2 1.5.9.4 2 1 3.1 1.4l-.2.3c1.2.7 2.2 1.3 3.2 1.8s2.1 1.1 3.8 1.7h-.8c1.9.7 2.6.2 4.3.7l.4.6c1.6.5 3.2 1.3 4.9 1.9.8.3 1.7.6 2.5.7.9.2 1.7.3 2.5.5 0 .1-.2.2-.7 0 1.6.5 6 1.6 5.6.9 0 .5 3.6.6 5.4.6l-.3.2c1.6-.3 1.7-.4 3.8-.3.6.1.5.3-.3.1 1.7.3 1.4-.3 3.4.1l-.8.2c1.7.1 1.7 0 2.6-.2 1.1-.1 3.4.1 3.6.4.2-.2 1.2-.4 2.3-.4.2.1-.2.2-.4.2 1.5 0 2.6-.1 3.5-.4 1-.1 1.9-.3 2.8-.4.1.1.2.2.3.1-2.3.3-4.3.5-4 .4 0 .2 1.9.2.5.7.8-.2 1.8-.5 2.8-.7 1-.3 2.2-.6 3-.6.1 0 .2.1.2.1l-.1.1c.5-.1.8-.1 1.1-.2.6 0 1-.1 1.5-.2.3.2 2.2-.3 3.1-.5-.1-.3 1.1-.6-.1-.5.1-.1-.1.1-.8.2-.1.1-.2 0-.4.1v-.1c-.6.1-1.4.4-2.3.5.7-.4 1.5-.6 2.5-.6.5-.3.9-.6 1.2-.8 1.4.1 3.8-.3 4.3-.1 1.3-.5 3-1 4.4-1.7.7-.4 1.4-.6 2.1-1 .6-.3 1.1-.7 1.5-.9.7-.4.9-.2 1.3-.3-.4.2-1 .4-1.2.7 1.5-.7 4.4-2.1 4.6-2.6 2-.7-.9.9 1.7-.5l-.3.2c1.3-.5 2.5-1.1 3.5-1.8 1.1-.7 2-1.3 2.9-2.1 1.9-1.5 3.7-3 6.4-4.6-.4.2-.6.3-.7.4 1.5-.9 2.8-2.1 4.3-3.3 1.3-1.2 2.7-2.4 3.9-3.8 2.6-2.5 4.9-5.3 7.4-7.8 1.3-1.6 1.2-1.8 1.8-2.9l.5-.2c.3-.6.6-1.3.9-1.9s.7-1.2 1.2-1.7c.4-.6.8-1 1.2-1.6s.8-1.1 1.3-1.8.8-1.4 1.1-2.3l-.5.3c.3-.6.8-1.5 1.2-2.3.4-.8.7-1.4.7-1.2 0-.1-.1-.5.3-1l.2.1c.5-1 .7-2.1 1-3.2 1.1-2.3.5.6 1.9-2.8.5-1.4.8-3.8.6-3.5-.2.5-.6 1.3-.8 1.3l.3-1.2c-.5-.4-.6-1.4-2 1.3l-.5 2.1-.5.5c.2-.5.4-1.2.7-1.7-.5.9-.6 1.6-.7 2.2-.1.1-.4.4-.6.7l-.3 2.1c-.3.1 0-1.1-.7.2-.2 1 .8-.7.3.9-.6.8-.7.5-1 1.7-.1.1-.2-.2 0-.6-.3 1.1-1.2 2.5-1.3 3.1-.4.4-.7 1.2-1.2 1.8-.4.7-.7 1.2-.9 1-.1.3-.6 1.8-1.1 2.7.5-1.8-2 3-2.3 2.3-.1.7-.8 1.7-1.6 2.8-.4.6-.8 1-1.1 1.6-.4.6-.8 1-1.1 1.5 0-.1.1-.4.3-.5-.9 1-1.2 1.1-1.9 1.7.2.4-1.1 2-1.7 3-1.4 1 .2-1.1-.4-1 .2.1-.2.6-.6 1.2-.4.5-.8.9-.4.9-1.1.7-.8.7-1.5.8.2.5-.8.9-1.3 1.8-1.5 1-.7-.1-2 1.3 0 .1 1.1-1.2 1.1-1.2zm-40.9 20.4c.4-.1.7-.1 1-.1-.2 0-.6 0-1 .1zm-3.9.5c.5-.1 1.1-.1 1.7-.1.1 0 0 .2-.3.2.1-.1-.8-.1-1.4-.1zm8.7.8c-.6.1-.9.2-1 .1.2 0 .6-.1 1-.3v-.1c.1.1 0 .2 0 .3z"/><path class="st0" d="M119.9 182.5c.1 0 .1-.1.2 0h-.4c0 .1-.1.1-.2.2.1-.2.3-.2.4-.2zm48.8-131s.1 0 0 0c.1 0 .1 0 0 0zm-110 118.8v.1l.3.1zM178.1 71zm2.8 9l.3 1.3c-.2-.6-.3-1-.3-1.3zm1.3 7c.1 0 .1.1.2.2l-.2-.2zm-79.3-68.3h-.2c-.8 0-.3-.1.2 0zm33 6.8c-.3-.1-.6-.2-1.1-.3.5.3.9.5 1.1.3zm-69.4 1.2c-.1 0-.1.1-.2 0h.2zm66.8-2.1c.5.3 1 .5 1.4.6-.4-.2-.9-.5-1.4-.6zm48 93.2l-.1.3.1-.3zm0 .4zm-.1 1.2l.1-.8c-.1.2-.2.6-.1.8zm1.7-10.9l-.1-.1.1.1zm.2-2.9c-.1.7-.5 1.7-.4 2.7l.1.1c0-.6.5-2.2.3-2.8zm1.3-12.1c.1.8 0 1.7 0 2.5.1-.4.2-1 .3.1.3-3.2-.1.6-.3-2.6zm-.8-7.6c.3 1.3.1-.1.2 0-.2-.8-.3-1-.2 0zm-26.2-47.4l.3-.1c-.7-.6 0 .1-.3.1zm-9-5.4c.3.2.4.5.7.7l.6.1c-.4-.3-.8-.5-1.3-.8zm-4.1-5l.4.1-1.5-.7zm-88.4 1.2l.4.1c.6-.4.5-.8-.4-.1zM28.6 58.1c-.4.2-1 1.2-1.2 1.9.4-.7 1-1.5 1.2-1.9zm19.9 108.6l-.7-.5c.4.2.8.6 1.2.9-.1-.1-.3-.2-.5-.4z"/><g class="st1"><path class="st0" d="M78.4 40.3c.7 1.7 1.1 2.5 1.1 2.5.3 1 .9 1.7 1.6 1.9.6.2 1.9 0 3.9-.5 5.7-1.2 10.3-1.3 13.8-.2 2.4.8 4.5 2.2 6.2 4.1 1.8 2 2.6 3.6 2.2 4.6-.5 1.5-3.4 2.2-8.6 2.3 1.9 1 3.4 2.1 4.5 3.3 1.3 1.9 1.7 3.7 1.2 5.3-.7 2.2-2.2 4.6-4.5 7.2.8.9 1 1.9.7 3-.6 1.7-2.1 2.3-4.4 1.7-.3-.1-.5-.2-.6-.2.5 1.2 1.3 2.8 2.2 4.9 1.9 4.4 2.6 7.4 2.1 8.9-.6 1.8-1.5 3-2.6 3.7-1.3.8-3.9.7-7.7-.6-5.9-1.9-9.5-4.1-10.8-6.3-1.1-2-1.3-4-.6-6.2l1.7-5.6c.3-1 .3-2-.1-2.9-.2-.4-.3-.7-.3-1-.5-.1-1-.3-1.4-.4-.7-.2-1.5-.4-2.1-.6.1.7.1 1.4-.2 2.1-.6 1.9-3 4.3-7 7-4.8 3-8.1 4.3-10 3.7-4.2-1.4-5.5-4.5-3.9-9.2.1-.4.6-.5 1.4-.4 2.7.2 5.4-.1 8.3-1 2.5-.9 4-1.7 4.2-2.5.1-.4.1-.9.1-1.6l-1.5-.5c-4.3-1.4-5.9-3.5-4.9-6.3l1.7-5.3c.6-1.9.7-3.4.4-4.6-.4-.8-.4-1.7 0-2.7.6-1.8 2-2.3 4.1-1.6 1.6.5 2.7 1.3 3.3 2.4.8.3 2.4.5 4.5.9h.1c-1.3-.8-2.5-2-3.3-3.4-1.8-2.9-2.5-4.9-2.2-5.9.9-2.7 2.5-3.7 4.8-2.9 1.2.6 2 1.5 2.6 2.9zM93 64.7c1.3-1.9 2.1-3.2 2.3-3.8.2-.7-.2-1.2-1.3-1.6-2.2-.7-5.3-1.3-9.3-2-5.7-.8-9.8-1.6-12.5-2.2-.4 1.5-.8 3.2-1.5 5.1-.4 1.2.3 2.1 2 2.7.7.2 2.7.7 5.9 1.2 5.5 1.2 9.7 2.3 12.6 3 .5-.7 1-1.5 1.8-2.4zM88.8 52c1.3-.4 2.9-.8 4.9-1.4 2.3-.6 3.7-1.5 4-2.6.2-.5-.4-1-1.6-1.4-2.5-.8-6 0-10.6 2.3-1.7.8-3 1.4-4 1.8 2.8.4 5.2.9 7.3 1.3zm-.6 23.6L86.5 81c-.5 1.8.3 3 2.5 3.7l1.4.5c2 .7 3.2.6 3.5-.2.8-2.5.7-5.9-.2-10.1L88 73.1c.3.8.4 1.7.2 2.5zm30.2-11.8c.2.1.7-.1 1.5-.4.4-.1.8-.3 1.2-.4l.4-1.4c.8-2.4.7-4.5 0-6.4-.3-1-.4-1.9-.2-2.4.3-.9 1.4-1.2 3.1-.6 1.7.5 3 1.6 4.2 3.2 1 1.6 1.3 3.2.7 4.9l-.8 2.4c.9.5 1.7 1.2 2.3 2.1.7 1 .9 1.9.7 2.6-.1.3-.2.4-.2.5.4-.1.8-.1 1.3.1.2.1.3.2.5.2-1.2-1.1-1.4-2.7-.7-4.8.1-.3.3-.5.7-.6.3-.2.6-.3.9-.2l.5.2c.6.2 2 0 4-.6 1.7-.4 2.7-.9 2.9-1.6.4-1.3.8-2 1.2-2.3.6-.3 1.2-.4 1.8-.1.8.3 1.6 1 2.4 2.3.3.6.6 1.1.6 1.5 3.4-.4 6.3-.3 8.6.5 2.4.8 4.1 1.9 5 3.2.7 1 .9 2 .6 3-.5 1.5-2.3 2.9-5.2 4.1 1 .7 1.8 1.8 2.4 3 .7 1.7.8 3.8-.1 6.3l-2.4 7.3c-.6 1.8-1.4 3-2.5 3.6-1 .5-1.8.7-2.7.5 1 .6 1.8 1.3 2.5 2.2.9 1.3 1.2 2.5.9 3.5-.5 1.5-1.8 1.9-3.8 1.2l-4.6-1 .7.7c3.3 3.3 4.7 6 4 8.2-.9 2.7-2.4 3.7-4.6 3-1.4-.4-2.4-1.6-3.2-3.3-1.8-3.6-3.6-6.6-5.2-9.1-.8.8-1.8 1.5-2.7 2.1-4.3 2.9-8 3.9-11 2.9-1.8-.6-3.2-1.6-4.2-3.1-.8-1.3-1-2.3-.8-3 .3-1 1-1.4 2-1l1.8.6c1.8.6 4 .2 6.6-1.2.1-.1.2-.1.3-.2l-3.8-.9c-1.6-.5-2.6-1.2-3.4-2.1-.7-.7-.9-1.3-.7-1.9.2-.5.6-1 1.3-1.2.9-.4 1.7-.5 2.2-.4l.8.5c.6.2 2.8.4 6.5.3.8 0 1.5 0 2.3.1.1-.4.3-.7.4-1 .1-.4.1-.8-.1-1.3-.2-.4-.2-.7-.1-1s.2-.6.4-.7c-1.2-.4-2.1-1.1-2.4-1.9l-.4 1.4c-.9 2.6-2.5 3.5-4.8 2.7-1.9-.6-2.5-2.1-1.7-4.4l3.7-9.1c.6-1.9.7-3.4.3-4.5-.3-.6-.3-1-.2-1.3-.9.6-2.1.8-3.6.6h-.5l-2 6c.9-.3 1.8-.5 2.8-.9.8-.3 1.4-.4 1.7-.3.5.2.7.6.5 1.2-.9 2.8-3.3 4.9-7.1 6.5l-4.3 13.1c-1.2 3.8-2.9 5.4-4.9 4.7-1.3-.4-2.4-3.4-3.5-8.8-1.2-6.3-1.6-9.7-1.3-10.5-.2-.5-.1-1 0-1.4.2-.7.9-1.1 2.2-1.2 2 0 4-.2 6.1-.6l2.7-8.2c-1.6-.1-2.6-.3-3.2-.5-2.2-.7-3-1.8-2.5-3.3.5-1.6 1.9-2.2 4.3-1.9h.9zm-7.3 20.1c-.8-.3-1.4-.6-1.8-1.2 1 3.9 1.8 5.9 2.2 6 .7.2 1.2 0 1.4-.9l1.2-3.6c-1.1.1-2.1 0-3-.3zm29.6-13.4c3.4.1 6.2.2 8.5.4.5-.3.9-.6 1.4-.8 1.4-.9 2.3-1.6 2.4-2.1.3-.9.1-1.6-.8-1.9-1.1-.4-3.3-.2-6.5.5-1.4.4-2.4.6-3.1.6-.3.1-.4.2-.6.3-3.5 1.6-5.9 2.1-7 1.8l-.4-.1c.3.3.7.6 1 1 .9.2 2.6.3 5.1.3zm-2.4 7.2c1.1-.8 1.8-1.5 2.2-2.3h-.3c-1.4 0-2.6-.1-3.7-.2-.2.9-.4 1.8-.8 2.8l-.5 1.3c.4.1 1.4-.4 3.1-1.6zm2.9 11.1c.5.8.9 1.5 1 2.1 2.4.4 4.8 1 7.2 1.8-1.2-.8-1.5-2-.9-3.7l.1-.4c-.9.7-1.9.9-3.1.5-.5-.2-.9-.7-1.2-1.6-.9-2.1-1.7-3.9-2.4-5.2l-.5.5c-1.5 1.3-2.8 2.3-3.7 2.8 1.2.4 2.3 1.5 3.5 3.2zm4.8-9.2c.8.3 1.9 1.3 3.2 2.9.6.8.9 1.5 1 2.2l.1-.3c.8-2 1.6-4.3 2.4-6.9.3-.8 0-1.4-.8-1.6-.6-.2-2.5-.3-5.9-.4.2.6.2 1.2.1 1.6-.2.7-.7 1.4-1.3 2.1.4.2.8.3 1.2.4z"/></g><g class="st1"><path class="st0" d="M72.5 97.4c.8.9 1.3 1.8 1.7 2.5 3.5.5 6.5 1 9 1.9 3 1 5.4 2.9 7.2 5.7 1.4 2.4 1.8 4.6 1.1 6.7-.4 1.1-1.6 1.7-3.5 1.8-.9 0-1.9-.1-2.9-.2 1.2 1.5 1.7 2.7 1.4 3.6-.4 1.3-1.4 1.8-2.9 1.3-1.3-.4-2.6-.9-3.9-1.6-1.6-.7-3.6-1.4-5.9-2.1-4.9-1.6-10.3-2.6-16.3-3-3.5-.2-5.8-.5-7-.9h-.3c-2.3.3-3.5.7-3.6 1.2-.2.6.1.9.9 1.2 1.7.6 3.9.9 6.6 1.1 10.9 1 18.6 2.2 22.7 3.6 3.8 1.3 6.6 2.9 8.5 4.9 1.4 1.7 1.9 3.2 1.5 4.4-.5 1.7-1.6 2.2-3.2 1.6-.5-.2-1.1-.4-1.8-.7.2 1.2.5 2.6.8 4.2.6 3.9.5 6.8-.2 8.9-.6 1.9-1.8 3.1-3.6 3.7-2.2.8-5.4.5-9.9-1-4.3-1.4-6.9-3.2-7.9-5.4-1.3-2.4-1.4-5.3-.2-8.8l1.3-3.9c.3-1 .4-2 .1-2.9-.1-.4-.2-.7-.1-1-.1 0-.2-.1-.2-.1-1.9-.4-3.8-.8-5.4-1.2 1 1.7 1.4 3.2 1.1 4.3-.9 2.8-2.9 5.2-6 7.2-3.8 2.5-7 3.3-9.6 2.5-2.3-.8-4-2.1-5.2-3.9-1-1.8-1.3-3.1-1-4 .2-.7.8-1 1.7-.7l1.6.5c1.6.5 3.5.2 5.8-.7 2.4-1 4.1-2.7 4.8-5 .2-.5.1-1.1-.2-1.6-.1-.2-.2-.3-.2-.4-1.3-.3-2.5-.7-3.6-1.1-3.6-1.2-5-3.2-4-6.1.3-.9 1.2-1.6 2.7-2.1.6-.2 1.7-.3 3-.5-.6-.3-1-.7-1.3-1-.6-.9-.9-1.6-.7-2 .2-.7.9-1.2 1.9-1.4.2 0 .3 0 .5-.1-.9-.4-1.5-1.1-1.8-2.1-.4-1.3-.4-2.2-.2-2.8.1-.3.4-.7.8-1.3.6-.7 1.1-1.5 1.5-2.7.3-.9.5-1.9.5-2.9-.1-.6-.1-1.2.1-1.6.4-1.3 1.4-1.8 2.9-1.3 1 .3 1.8 1.7 2.3 3.9.3.2.7.3 1.2.6.6.3 1.2.6 1.9.8 1.2.4 3.5.8 6.8 1.2-.5-1-.6-1.7-.4-2.2.9-2.6 2.6-3.4 5.3-2.6 1 .8 2.4 1.9 3.8 3.6zm-22.6 9.9c.1 0 .2.1.5.2.2.2.4.3.7.3.5.2 1.7.3 3.6.3 9.5.1 17.1 1.1 22.7 3 .7.2 1.4.5 2 .8 2.6-.1 4-.7 4.3-1.6.3-.9-.6-1.7-2.6-2.4-3-1-6.7-1.6-11-2-6.7-.6-11.5-1.4-14.5-2.4-.9-.3-1.7-.6-2.4-1-.1.3-.1.5-.2.6-.5 1.7-1.4 2.9-2.5 3.7-.4.2-.6.4-.9.4l.3.1zm19.9 23.6l-1.3 3.9c-.8 2.4 0 4 2.4 4.8 1.7.5 3.3.6 4.8.1 1.3-.6 2.2-1.6 2.7-2.9.9-2.9 1.2-5.2 1-6.9 0-.1-.1-.2 0-.3-.7-.2-1.3-.5-2-.8-2-.7-3.8-1.4-5.4-1.9-.7-.2-1.5-.4-2.5-.7.7 1.4.9 2.9.3 4.7zm37.8-21.4l.4.2c.9.3 2.7.8 5.4 1.4 10.3 2.4 17.7 4.2 21.9 5.6 3.6 1.2 6.3 2.8 8 4.7 1.3 1.9 1.7 3.6 1.1 5.3-.8 2.3-2.4 4.9-4.8 7.8-1.2 1.5-2.5 1.9-3.9 1.5-.3-.1-.6-.2-.8-.3 0 .6 0 1.1-.1 1.6l-.3.8c1.6.8 3 1.8 4.2 3 1.2 1.3 1.7 2.5 1.3 3.5-.4 1.3-2.1 1.5-4.9.6-1.2-.3-2.3-.6-3.5-1-.5.7-.8 1.3-1.3 1.9 1.6.8 3 1.8 4.2 3 1.1 1.2 1.6 2.4 1.3 3.3-.4 1.3-2 1.6-4.7.7-4.6-1.4-9.2-2.7-13.8-4l-.4 1.1c2.7.5 4.8 1 6.4 1.5 3.7 1.2 6.4 2.8 8.2 4.7 1.4 1.5 1.8 2.8 1.5 3.9-.4 1.3-1.4 1.8-2.9 1.3-1.3-.4-3.3-1.1-5.8-2.1-2-.6-3.7-1.3-5.2-1.8-1-.3-2.5-.7-4.4-1.2-1.2 3.1-3.2 4.1-6 3.2-2.4-.8-3.3-2.5-2.6-5.2-5.2-1.2-9.4-2.4-12.6-3.5-3.3-1.1-4.5-2.9-3.6-5.4.3-.9 1.5-1.4 3.8-1.5 1.4 0 3.6.1 6.8.4-1.2-.3-2.1-.6-3-.9-2.3-.8-3.9-1.6-4.9-2.7-1.1-1-1.4-1.8-1.1-2.7.2-.5.6-.9 1.5-1.2.6-.1 1.3-.1 2 .1.1 0 .2.1.5.3.2.2.5.3.7.3.4.1 1.1.3 2.3.6l.8-2.5c-2.4-.8-4.1-1.7-5.2-2.8s-1.5-2.1-1.2-2.9c.2-.6.7-1 1.7-1.3.7-.2 1.5-.1 2.3.1.1 0 .2.1.5.3.2.2.4.3.6.3.5.2 1.5.4 3 .7.1-.6.1-1.2 0-1.8-.2-1-.3-1.7-.1-2.2 0-.1.1-.2.2-.3-.4-.4-.7-.9-.9-1.4-.7-1.6-.7-3.4 0-5.6 1.4-4.2 2-6.8 1.8-8.1-.3-.8-.3-1.4-.1-1.8.4-1.4 1.6-1.7 3.3-1.2 1 .5 1.8 1 2.4 1.7zm1.3 37.6c-2.6-.5-5-.8-7.2-1-3.6-.3-5.4-.2-5.5.2-.2.5.3.9 1.4 1.3 1.5.5 3.5.9 5.8 1 1.7.1 3.3.3 4.8.4l.7-1.9zm8.5-28.1c.1-.5 0-1 0-1.5-.1-.3-.2-.6-.2-.7-3.6-.8-6.3-1.6-8.3-2.1-.1.8-.2 1.7-.3 2.5 1.9.4 4.8 1 8.8 1.8zm-1.1 4.4c-3.7-.8-6.6-1.5-8.8-2.3-.4 1.5.1 2.5 1.5 3 .9.3 2.8.7 5.5 1.2.4.1.7.2 1.1.2l.7-2.1zm-3 6.7c-1.6-.3-3.1-.6-4.6-.9-.3 0-.5-.1-.7-.1.3.9.4 1.8.2 2.8 1.6.3 3.4.6 5.3.9 0-1.1 0-2-.2-2.7zm-2.2 10.9l.7-1.8c-1.9-.4-3.7-.9-5.2-1.3l-.6 2.1c1.5.2 3.2.6 5.1 1zm14.6-20.3c2.9.7 5.4 1.4 7.6 2.1.7.2 1.4.6 2 .9.3-.6.5-1 .6-1.3.2-.5-.3-1-1.3-1.4-2.3-.8-5.3-1.5-8.9-2.4.1.7.1 1.4 0 2.1zm1.8 13.1c0-.1-.1-.2 0-.3-1.9-.5-3.8-1-5.5-1.4.1.6.1 1.3 0 2.2 1.9.4 3.8.8 5.5 1.3.1-.6.1-1.2 0-1.8zm5.4-6.3c-2.8-.8-5.7-1.6-8.5-2.4l-.6 2c3.3.7 6 1.5 8.1 2.1h.1c.2-.4.5-1 .9-1.7zm-13.2 15.3c1.5.4 3 .8 4.4 1.1.1-.4.4-.9.7-1.6-1.5-.4-3-.8-4.5-1.1l-.6 1.6z"/></g></svg>