<svg id="圖層_1" data-name="圖層 1" xmlns="http://www.w3.org/2000/svg" viewBox="0 0 48 48"><defs><style>.cls-1{fill:#ebcc23}</style></defs><title>icon-contract</title><path class="cls-1" d="M37.72 6H34.5v-.27a2.85 2.85 0 0 0-2.8-3h-.47A3.07 3.07 0 0 0 28.7 1.2h-.43A2.86 2.86 0 0 0 25.69 0h-3a2.86 2.86 0 0 0-2.58 1.2h-.43a3.07 3.07 0 0 0-2.54 1.5h-.47a3.18 3.18 0 0 0-3.17 3V6h-2.84A7.38 7.38 0 0 0 3 13.24V40.3a7.79 7.79 0 0 0 7.66 7.7h27.06A7.51 7.51 0 0 0 45 40.3V13.24A7.1 7.1 0 0 0 37.72 6zM16.5 5.79a.33.33 0 0 1 .17-.09h3.13V4.3s.05-.08.08-.1h2.92V3h3v1.2h2.82s.18.07.18.1v1.4h2.7v7.5H16.67a.35.35 0 0 1-.17-.06zM42 40.3a4.51 4.51 0 0 1-4.28 4.7H10.66A4.81 4.81 0 0 1 6 40.3V13.24A4.42 4.42 0 0 1 10.66 9h2.84v4.24a3.11 3.11 0 0 0 3.17 3h15a2.79 2.79 0 0 0 2.8-3V9h3.22A4.08 4.08 0 0 1 42 13.24z"/><path class="cls-1" d="M34.5 19.2H13.2a1.5 1.5 0 0 0 0 3h21.3a1.5 1.5 0 0 0 0-3zm0 7.8H13.2a1.5 1.5 0 0 0 0 3h21.3a1.5 1.5 0 0 0 0-3zm0 9H13.2a1.5 1.5 0 0 0 0 3h21.3a1.5 1.5 0 0 0 0-3z"/></svg>