<svg id="圖層_1" data-name="圖層 1" xmlns="http://www.w3.org/2000/svg" viewBox="0 0 48 48"><defs><style>.cls-1{fill:#3c5a99}</style></defs><title>icon-facebook</title><path class="cls-1" d="M30.13 17.07v-4.58c-1.75 0-1.24-.08-3.07-.08a8.59 8.59 0 0 0-4 .79 4 4 0 0 0-2.13 2 7.46 7.46 0 0 0-.65 3.57v.6h-2.53l-.08 4.54h2.52v11.68h5V23.93h4.54l.61-4.54h-5.07s-.41-1.38.37-2.09c.36-.36 4.49-.23 4.49-.23z"/><path class="cls-1" d="M24 48a24 24 0 1 1 24-24 24 24 0 0 1-24 24zm0-45.06A21.06 21.06 0 1 0 45.06 24 21.08 21.08 0 0 0 24 2.94z"/></svg>