<svg id="圖層_1" data-name="圖層 1" xmlns="http://www.w3.org/2000/svg" viewBox="0 0 48 48"><defs><style>.cls-1{fill:#2086c2}</style></defs><title>icon-vip</title><path class="cls-1" d="M43.32 10.09a4.68 4.68 0 0 0-3.61 7.66l-8.19 6.52L25.82 14a4.68 4.68 0 1 0-3.61 0l-5.38 10-8.63-6.39a4.67 4.67 0 1 0-2.6 1.51L8.83 36v7h31.3v-7.14l2.29-16.5a4.68 4.68 0 1 0 .9-9.28zM24 7.38a2.27 2.27 0 1 1-2.27 2.27A2.28 2.28 0 0 1 24 7.38zM2.41 14.53a2.27 2.27 0 1 1 2.27 2.27 2.28 2.28 0 0 1-2.27-2.27zm14.11 12.21a1.2 1.2 0 0 0 1.78-.4L24 15.68l6.08 11a1.2 1.2 0 0 0 1.8.36l7.89-6.28-2 14.09h-26.7L8.36 20.73zm21.2 13.88H11.24v-3.37h26.48zM43.32 17a2.27 2.27 0 1 1 2.27-2.27A2.28 2.28 0 0 1 43.32 17z"/></svg>