<svg id="圖層_1" data-name="圖層 1" xmlns="http://www.w3.org/2000/svg" viewBox="0 0 48 48"><defs><style>.cls-1{fill:#c62733}</style></defs><title>icon-user</title><path class="cls-1" d="M24 0a24 24 0 1 0 24 24A24 24 0 0 0 24 0zM11.18 40.68A12.68 12.68 0 0 1 24 29a12.67 12.67 0 0 1 12.83 11.68 21 21 0 0 1-25.65 0zm3.9-22.91A8.79 8.79 0 0 1 24 9.14a8.79 8.79 0 0 1 8.92 8.63A8.79 8.79 0 0 1 24 26.41a8.79 8.79 0 0 1-8.92-8.64zm24.48 20.4a15.66 15.66 0 0 0-8.91-10.36 11.85 11.85 0 0 0 5.65-10A12.13 12.13 0 0 0 24 5.84a12.14 12.14 0 0 0-12.3 11.93 11.86 11.86 0 0 0 5.65 10 15.68 15.68 0 0 0-8.91 10.41 21.06 21.06 0 1 1 31.11 0z"/></svg>