<svg id="圖層_1" data-name="圖層 1" xmlns="http://www.w3.org/2000/svg" viewBox="0 0 48 48"><defs><style>.cls-1{fill:#5fbd87}</style></defs><title>icon-renewal</title><path class="cls-1" d="M33.91 27.3a1.5 1.5 0 0 0-1.5 1.5v4.5H9.91V8.1h22.5v8.4a1.5 1.5 0 0 0 3 0V5.23A5 5 0 0 0 30.32 0H12.44a5.39 5.39 0 0 0-5.53 5.23v37A5.85 5.85 0 0 0 12.44 48h17.88a5.43 5.43 0 0 0 5.09-5.72V28.8a1.5 1.5 0 0 0-1.5-1.5zM12.44 3h17.88a2 2 0 0 1 2.09 2.1H9.92A2.44 2.44 0 0 1 12.44 3zm17.88 42H12.44a2.85 2.85 0 0 1-2.52-2.72v-6h22.5v6c-.01 1.28-.86 2.72-2.1 2.72z"/><path class="cls-1" d="M21.38 37.19a3.59 3.59 0 1 0 3.62 3.6 3.6 3.6 0 0 0-3.62-3.6zm0 4.19a.59.59 0 1 1 .59-.59.59.59 0 0 1-.59.59zM40.65 16a1.5 1.5 0 0 0-2.12 0l-8.42 8.4-4.9-4.9a1.5 1.5 0 1 0-2.12 2.12l7 7 10.56-10.51a1.5 1.5 0 0 0 0-2.11z"/></svg>