<svg id="圖層_1" data-name="圖層 1" xmlns="http://www.w3.org/2000/svg" viewBox="0 0 48 48"><defs><style>.cls-1{fill:#c62733}</style></defs><title>icon-payment</title><path class="cls-1" d="M38 0H10.57c-5 0-9.09 3.77-9.09 8.41L1.73 48h1.48c2.6 0 3.79-2.21 4.74-4 .81-1.5 1.35-2.42 2.13-2.42s1.29.69 2.16 2.16 2.15 3.61 4.71 3.61 3.8-2.08 4.71-3.61 1.37-2.16 2.16-2.16 1.29.69 2.17 2.16 2.15 3.61 4.71 3.61 3.8-2.08 4.71-3.61 1.38-2.16 2.17-2.16 1.52.9 2.5 2.38c1.09 1.65 2.45 3.71 5 3.71h1.48V8.4A8.29 8.29 0 0 0 38 0zm5.59 43.78c-.31-.38-.64-.86-1-1.43-1.09-1.65-2.45-3.71-5-3.71s-3.81 2.08-4.71 3.61-1.38 2.16-2.17 2.16-1.29-.69-2.17-2.16-2.15-3.61-4.71-3.61-3.8 2.09-4.71 3.61-1.37 2.16-2.16 2.16-1.29-.69-2.16-2.16-2.15-3.61-4.71-3.61-3.79 2.2-4.74 4c-.24.45-.46.85-.67 1.18L4.44 8.4c0-3 2.75-5.4 6.13-5.4H38a5.4 5.4 0 0 1 5.56 5.4z"/><path class="cls-1" d="M35.85 11.85H12.74a1.48 1.48 0 0 0 0 3h23.11a1.48 1.48 0 0 0 0-3zm0 7.41H12.74a1.48 1.48 0 0 0 0 3h23.11a1.48 1.48 0 0 0 0-3zm0 8.89H12.74a1.48 1.48 0 0 0 0 3h23.11a1.48 1.48 0 0 0 0-3z"/></svg>