<svg id="圖層_1" data-name="圖層 1" xmlns="http://www.w3.org/2000/svg" viewBox="0 0 48 48"><defs><style>.cls-1{fill:#ef7c01}</style></defs><title>icon-bill</title><path class="cls-1" d="M47.48 45.46L35.26 33.24a20.09 20.09 0 1 0-2.12 2.09l12.23 12.23a1.49 1.49 0 0 0 2.11-2.11zM3.07 20.06a17.08 17.08 0 1 1 17.08 17.09A17.1 17.1 0 0 1 3.07 20.06z"/><path class="cls-1" d="M23.29 19.75a15.16 15.16 0 0 0-2.49-.86c-2.48-.7-3.49-1.14-3.49-2.7a2.44 2.44 0 0 1 .76-2 2.93 2.93 0 0 1 1.93-.55c1.43 0 2.78.75 2.78 1.55a1.49 1.49 0 0 0 3 0c0-1.93-1.62-3.92-4.41-4.41V9.1a1.49 1.49 0 1 0-3 0v1.76A5.46 5.46 0 0 0 16.15 12a5.3 5.3 0 0 0-1.82 4.25c0 4 3.41 4.93 5.66 5.56a12.93 12.93 0 0 1 2 .67 2.84 2.84 0 0 1 1.62 2.39 2 2 0 0 1-1.09 1.92 6.8 6.8 0 0 1-5.38 0 1.3 1.3 0 0 1-.77-1.24 1.49 1.49 0 0 0-3 0 4.28 4.28 0 0 0 2.27 3.83 7.44 7.44 0 0 0 2.68.85V32a1.49 1.49 0 0 0 3 0v-1.82a7.73 7.73 0 0 0 2.68-.87 5 5 0 0 0 2.56-4.61 5.86 5.86 0 0 0-3.27-4.95z"/></svg>