<svg id="圖層_1" data-name="圖層 1" xmlns="http://www.w3.org/2000/svg" viewBox="0 0 48 48"><defs><style>.cls-1{fill:#ef7c01}</style></defs><title>icon-message</title><path class="cls-1" d="M37.09 38.18c4.63-2.54 7.7-6.93 7.7-11.93a12.75 12.75 0 0 0-3.31-8.44A18.87 18.87 0 0 0 41.7 15c0-.44 0-.86-.08-1.29a15.94 15.94 0 0 1 6.24 12.36c0 5.46-3 10.31-7.7 13.43V48l-8.63-5.18a23.56 23.56 0 0 1-3.69.3c-5.93 0-9.7-2.21-13.36-5.7.6 0 1.2.08 1.82.08.86 0 1.71 0 2.55-.11 2.89 1.94 5 3.11 9 3.11a20 20 0 0 0 4-.41l5.25 3.41zM20.15 34.5a46.39 46.39 0 0 1-5.15-.39L6.3 39v-8.51A16.87 16.87 0 0 1 .14 17.06C.14 7.64 9.08 0 20.15 0c9.2 0 18.47 7.64 18.47 17.06S31.2 34.5 20.15 34.5zm-5.52-3.41a38.43 38.43 0 0 0 5.52.41c9.35 0 15.39-6.38 15.39-14.25S27.81 3 20.15 3C10.53 3 3.22 9.38 3.22 17.25c0 5 2.4 9 6.16 11.93v5.32zm14-11.59a2.25 2.25 0 1 1 2.31-2.25 2.28 2.28 0 0 1-2.32 2.25zm-9.24 0a2.25 2.25 0 1 1 2.31-2.25 2.28 2.28 0 0 1-2.32 2.25zm-9.24 0a2.25 2.25 0 1 1 2.31-2.25 2.28 2.28 0 0 1-2.32 2.25z"/></svg>