<svg id="圖層_1" data-name="圖層 1" xmlns="http://www.w3.org/2000/svg" viewBox="0 0 48 48"><defs><style>.cls-1{fill:#107cb9}</style></defs><title>icon-enterprise</title><path class="cls-1" d="M45.21 8.88H33.15V7a3.74 3.74 0 0 0-3.89-4H19a4.19 4.19 0 0 0-4.44 4v1.88H2.79A2.79 2.79 0 0 0 0 11.67v7.42a2.79 2.79 0 0 0 2.79 2.79h.13v17.34a5.88 5.88 0 0 0 5.87 5.73h30.7a5.6 5.6 0 0 0 5.59-5.73V21.88h.13A2.79 2.79 0 0 0 48 19.09v-7.42a2.79 2.79 0 0 0-2.79-2.79zM17.24 7c0-.84.91-1.35 1.79-1.35h10.23c.53 0 1.24.14 1.24 1.35v1.88H17.24zM5.57 39.22V21.88h3.18V42.3a3.23 3.23 0 0 1-3.18-3.08zm17.77-17.34h1.59v2.92h-1.59zm4.24 5.57v-5.57h9V42.3H11.4V21.88h9.28v5.57zm14.85 11.77a3 3 0 0 1-2.94 3.08h-.25V21.88h3.18zm2.92-20.13a.14.14 0 0 1-.14.14H2.79a.14.14 0 0 1-.14-.14v-7.42a.14.14 0 0 1 .14-.14h42.42a.14.14 0 0 1 .14.14v7.42z"/></svg>