<?xml version="1.0" encoding="utf-8"?>
<!-- Generator: Adobe Illustrator 22.0.1, SVG Export Plug-In . SVG Version: 6.00 Build 0)  -->
<svg version="1.1" id="圖層_1" xmlns="http://www.w3.org/2000/svg" xmlns:xlink="http://www.w3.org/1999/xlink" x="0px" y="0px"
	 width="49.3px" height="50.8px" viewBox="0 0 49.3 50.8" style="enable-background:new 0 0 49.3 50.8;" xml:space="preserve">
<style type="text/css">
	.st0{fill:#2D2D6C;}
</style>
<g id="Group_26" transform="translate(0 0)">
	<path id="Path_67" class="st0" d="M38.6,6.8l4.7,7h-7l-4.6-7h-4.7l4.7,7h-7l-4.7-7h-4.7l4.7,7h-6.9l-4.7-7H6.3
		c-2.6,0-4.7,2-4.7,4.7v27.7c0,2.6,2,4.7,4.7,4.7h36.9c2.6,0,4.7-2,4.7-4.7V6.8H38.6z M23.1,32.9l-2.9,6.3l-2.9-6.3L11,30.1l6.3-2.9
		l2.9-6.3l2.9,6.3l6.3,2.9L23.1,32.9 M36.2,25.2L34.1,30L32,25.2l-4.7-2.1l4.8-2.1l2.1-4.8l2.1,4.8l4.8,2.1L36.2,25.2z"/>
</g>
</svg>
