<?xml version="1.0" encoding="utf-8"?>
<!-- Generator: Adobe Illustrator 22.0.1, SVG Export Plug-In . SVG Version: 6.00 Build 0)  -->
<svg version="1.1" id="圖層_1" xmlns="http://www.w3.org/2000/svg" xmlns:xlink="http://www.w3.org/1999/xlink" x="0px" y="0px"
	 width="53.3px" height="50.8px" viewBox="0 0 53.3 50.8" style="enable-background:new 0 0 53.3 50.8;" xml:space="preserve">
<style type="text/css">
	.st0{fill:#2A2C68;}
</style>
<path class="st0" d="M44.6,34.5c-12.1,0-24.1,0-36.2,0c-0.8,0-1.3,0.3-1.7,1.1v8.9c0.3,0.7,0.8,1.1,1.6,1.1c12.1,0,24.4,0,36.6,0
	c1.1,0,1.6-0.5,1.6-1.6c0-2.6,0-5.1,0-7.7C46.2,35,45.8,34.5,44.6,34.5z M27.7,38c0.4,0,0.7,0.3,0.7,0.7s-0.3,0.7-0.7,0.7
	c-0.4,0-0.7-0.3-0.7-0.7C27.1,38.3,27.4,38,27.7,38z M25.1,38c0.4,0,0.7,0.3,0.7,0.7s-0.3,0.7-0.7,0.7c-0.4,0-0.7-0.3-0.7-0.7
	C24.4,38.3,24.7,38,25.1,38z M12,43.4c-1.9,0-3.4-1.6-3.4-3.4s1.5-3.4,3.4-3.4c1.9,0,3.4,1.6,3.4,3.4C15.5,41.9,14,43.4,12,43.4z
	 M19.5,42.7c-1.5,0-2.7-1.2-2.7-2.7s1.2-2.7,2.7-2.7s2.7,1.2,2.7,2.7C22.2,41.6,21.1,42.7,19.5,42.7z M28.4,42.7c-0.7,0-1.3,0-1.9,0
	c-0.7,0-1.3,0-1.9,0c-0.5,0-0.7-0.3-0.7-0.7s0.3-0.7,0.7-0.7c1.4,0,2.6,0,3.9,0c0.5,0,0.8,0.3,0.7,0.7
	C29.1,42.4,28.8,42.7,28.4,42.7z M33.3,42.7c-1.5,0-2.7-1.2-2.7-2.7s1.2-2.7,2.7-2.7c1.5,0,2.7,1.2,2.7,2.7
	C36,41.5,34.8,42.7,33.3,42.7z M40.7,43.4c-1.9,0-3.4-1.6-3.4-3.4s1.6-3.4,3.4-3.4s3.4,1.6,3.4,3.4C44.1,41.9,42.7,43.4,40.7,43.4z
	 M30.4,27.3c0.1,0.4,0.1,0.7,0.2,1.1h0.3c4.7,0,9.3,0,13.9,0c0.1,0,0.2,0,0.3,0c0.3,0,0.5-0.3,0.5-0.6c0-0.5,0-1,0-1.5H30
	C30.2,26.7,30.3,27,30.4,27.3z M26.4,25.6c-1.5,0-2.7,1.2-2.7,2.7c0,1.6,1.2,2.7,2.7,2.7s2.7-1.2,2.7-2.7
	C29.1,26.9,28,25.6,26.4,25.6z M8.2,28.3c4.6,0,9.1,0,13.6,0h0.4c0.2-0.7,0.4-1.4,0.6-2h-9.7c-0.1,0-0.3,0-0.4,0
	c-0.4,0-0.7-0.3-0.7-0.7s0.3-0.5,0.7-0.5c0.1,0,0.3,0,0.4,0c3.6,0,7.1,0,10.7,0c0.2,0,0.5-0.1,0.7-0.2c1.4-0.7,2.6-0.7,4,0
	c0.2,0.1,0.4,0.2,0.6,0.2c5.4,0,10.7,0,16,0h0.4v-0.4c0-5.8,0-11.4,0-17.1c0-0.8-0.2-1-1-1c-12.2,0-24.3,0-36.4,0
	c-0.7,0-0.9,0.2-0.9,1c0,5.8,0,11.4,0,17.1v0.4h0.5c0.7,0,1.5,0,2.3,0c0.4,0,0.7,0.3,0.7,0.7s-0.3,0.7-0.7,0.7c-0.7,0-1.4,0-2,0H7.3
	c0,0.4,0,0.8,0,1.2C7.3,28.2,7.6,28.3,8.2,28.3z"/>
</svg>
