<?xml version="1.0" encoding="utf-8"?>
<!-- Generator: Adobe Illustrator 22.0.1, SVG Export Plug-In . SVG Version: 6.00 Build 0)  -->
<svg version="1.1" id="圖層_1" xmlns="http://www.w3.org/2000/svg" xmlns:xlink="http://www.w3.org/1999/xlink" x="0px" y="0px"
	 width="53.3px" height="50.8px" viewBox="0 0 53.3 50.8" style="enable-background:new 0 0 53.3 50.8;" xml:space="preserve">
<style type="text/css">
	.st0{fill:#2A2C68;}
</style>
<path id="Path_72" class="st0" d="M34.2,43.2c0-1.4-1.1-2.5-2.5-2.5l0,0h-2.5v-5h10c2.8,0,5-2.2,5-5l0,0v-25c0-2.8-2.2-5-5-5l0,0
	h-25c-2.8,0-5,2.2-5,5v25c0,2.8,2.2,5,5,5l0,0h10v5h-2.5c-1.4,0-2.5,1.1-2.5,2.5l0,0H1.8v5h17.5c0,1.4,1.1,2.5,2.5,2.5h10
	c1.4,0,2.5-1.1,2.5-2.5h17.5v-5H34.2z M17.4,18.4l2.9-2.9l4,3.9l9-8.9l2.9,3.5l-12,11.9L17.4,18.4z"/>
</svg>
