<?xml version="1.0" encoding="utf-8"?>
<!-- Generator: Adobe Illustrator 22.0.1, SVG Export Plug-In . SVG Version: 6.00 Build 0)  -->
<svg version="1.1" id="圖層_1" xmlns="http://www.w3.org/2000/svg" xmlns:xlink="http://www.w3.org/1999/xlink" x="0px" y="0px"
	 width="55px" height="50.8px" viewBox="0 0 55 50.8" style="enable-background:new 0 0 55 50.8;" xml:space="preserve">
<style type="text/css">
	.st0{fill:#2D2D6C;}
</style>
<g id="Group_32" transform="translate(0 0)">
	<path id="Path_73" class="st0" d="M46,33.1c1.8-4.2,2-8.9,0.7-13.2c-1.9,0.4-3.8,0.7-5.7,0.7c-8.1,0-15.8-3.9-20.5-10.6
		c-2.4,6-7.1,10.8-13,13.5c-0.1,0.7-0.1,1.4-0.1,2.1c0,11,8.9,20,20,20c2.9,0,5.7-0.6,8.2-1.8c1.6,3,2.3,4.4,2.2,4.4
		c-4.6,1.6-8,2.2-10.5,2.2c-10.9,0-20.6-7.1-23.9-17.5h-3.6V20.5h3C5.7,6.9,18.9-1.9,32.5,0.9c4.8,1,9.2,3.3,12.7,6.8
		s5.9,7.9,6.8,12.7h3.1v12.6H55l-9.8,9l-14.6-1.7v-4.6H44L46,33.1z M19.9,24.8c0.8,0,1.7,0.3,2.2,0.9c1.2,1.2,1.2,3.2,0,4.4
		c-1.2,1.2-3.2,1.2-4.4,0c-1.2-1.2-1.2-3.2,0-4.4C18.3,25.2,19,24.8,19.9,24.8 M35,24.8c1.8,0,3.1,1.4,3.1,3.1
		c0,1.8-1.4,3.1-3.1,3.1s-3.1-1.4-3.1-3.1C31.8,26.3,33.2,24.8,35,24.8L35,24.8"/>
</g>
</svg>
