<?xml version="1.0" encoding="utf-8"?>
<!-- Generator: Adobe Illustrator 23.1.0, SVG Export Plug-In . SVG Version: 6.00 Build 0)  -->
<svg version="1.1" id="圖層_1" xmlns="http://www.w3.org/2000/svg" xmlns:xlink="http://www.w3.org/1999/xlink" x="0px" y="0px"
	 viewBox="0 0 65 65" style="enable-background:new 0 0 65 65;" xml:space="preserve">
<style type="text/css">
	.st0{fill-rule:evenodd;clip-rule:evenodd;fill:#FF6700;}
	.st1{fill:#231815;}
</style>
<title>bill</title>
<desc>Created with Sketch.</desc>
<g id="bill">
	<g transform="translate(16.000000, 15.000000)">
		<g id="資產-12" transform="translate(1.000000, 0.000000)">
			<path id="Path" class="st0" d="M16.6,15.1c-1.1-0.3-2.4-0.7-2.4-1.2c0-0.8,1.3-0.9,1.8-0.9c1.2,0,2.3,0.4,3.2,1.2l0.4,0.3l2-2.2
				l-0.4-0.3c-1.1-0.9-2.4-1.6-3.8-1.8V7.9h-2.8v2.2c-2.5,0.4-4,1.9-4,4c0,2.7,2.7,3.5,4.8,4.2c1.2,0.4,2.5,0.8,2.5,1.3
				c0,0.3,0,1-2.2,1c-1.3,0-2.6-0.4-3.6-1.2L11.6,19l-1.8,2.5l0.4,0.3c1.3,1,2.8,1.6,4.4,1.8v2.2h2.8v-2.3c2.6-0.5,4.1-2,4.1-4.1
				C21.5,16.6,18.7,15.8,16.6,15.1z"/>
			<path id="Shape" class="st1" d="M1.6,35.6L0,34.8V6l0.3-0.7l5-5L6,0h19.6l0.7,0.3l5,5L31.6,6v28.8L30,35.5L26.1,32l-4.5,3.6h-1.2
				L15.9,32L12,35.5h-1.3L6.4,32L1.6,35.6z M16.4,29.9l4.6,3.6l4.5-3.6l1.3,0l2.8,2.6V6.4L25.2,2H6.4L2,6.4v26.4l3.8-2.9L7,30
				l4.3,3.5l3.9-3.5L16.4,29.9z"/>
		</g>
	</g>
</g>
</svg>
