<?xml version="1.0" encoding="utf-8"?>
<!-- Generator: Adobe Illustrator 23.1.0, SVG Export Plug-In . SVG Version: 6.00 Build 0)  -->
<svg version="1.1" id="圖層_1" xmlns="http://www.w3.org/2000/svg" xmlns:xlink="http://www.w3.org/1999/xlink" x="0px" y="0px"
	 viewBox="0 0 65 65" style="enable-background:new 0 0 65 65;" xml:space="preserve">
<style type="text/css">
	.st0{fill:#231815;}
	.st1{fill:#FF6700;}
	.st2{fill:#FFFFFF;}
</style>
<title>business</title>
<desc>Created with Sketch.</desc>
<g>
	<path class="st0" d="M39.1,24.6h-1.9l0.4-0.1l0.7-1v-6.8l-1-1H30l-1,0.8l-1.6,6.6l-1.6-6.6l-1-0.8h-7.4l-1,1v6.8l0.7,1l0.4,0.1
		h-1.9l-1,1v22.6l1,1h23.3l1-1V25.6L39.1,24.6z M30.8,17.8h5.6v5L31,24.2l2.7-2.3l-1.3-1.5l-2.8,2.4L30.8,17.8z M18.5,17.8h5.6
		l1.2,5l-2.8-2.4l-1.3,1.5l2.7,2.3l-5.4-1.4C18.5,22.8,18.5,17.8,18.5,17.8z M38.1,47.2h-9.6V26.6h-2v20.6h-9.6V26.6h21.3L38.1,47.2
		L38.1,47.2z"/>
	<path class="st1" d="M50.2,32l-4.6-7.8c-0.4-0.2-0.7-0.4-1.1-0.6h-8.9c-0.4,0.2-0.7,0.4-1.1,0.6L30.1,32c0,0.5,0,0.8,0,1.3l4.6,7.8
		c0.4,0.2,0.7,0.4,1.1,0.6h8.8c0.4-0.2,0.7-0.4,1.1-0.6l4.5-7.7C50.2,32.8,50.2,32.5,50.2,32z"/>
	<path class="st2" d="M34.1,30.3c0-0.4,0.1-0.8,0.3-1.2c0.2-0.4,0.5-0.7,0.9-0.9c0.4-0.2,0.8-0.3,1.4-0.3c0.8,0,1.4,0.2,1.8,0.7
		s0.7,1,0.7,1.8c0,0.7-0.2,1.3-0.7,1.8c-0.5,0.5-1.1,0.7-1.8,0.7c-0.5,0-1-0.1-1.4-0.3s-0.7-0.5-0.9-0.9
		C34.2,31.2,34.1,30.8,34.1,30.3z M35.9,30.3c0,0.5,0.1,0.9,0.3,1.1c0.1,0.2,0.3,0.2,0.5,0.2s0.4-0.1,0.5-0.2
		c0.2-0.2,0.3-0.6,0.3-1.1s-0.1-0.9-0.3-1.1C37,29.1,36.8,29,36.6,29s-0.4,0.1-0.5,0.2C36,29.4,35.9,29.8,35.9,30.3z M42,27.9h1.3
		L38,37.8h-1.3L42,27.9z M40.8,35.4c0-0.4,0.1-0.8,0.3-1.2s0.5-0.7,0.9-0.9s0.8-0.3,1.4-0.3c0.8,0,1.4,0.2,1.8,0.7s0.7,1,0.7,1.8
		c0,0.7-0.2,1.3-0.7,1.8c-0.4,0.4-1.1,0.7-1.8,0.7c-0.5,0-1-0.1-1.4-0.3s-0.7-0.5-0.9-0.9C40.9,36.2,40.8,35.8,40.8,35.4z
		 M42.6,35.4c0,0.5,0.1,0.9,0.3,1.1c0.1,0.2,0.3,0.2,0.5,0.2s0.4-0.1,0.5-0.2c0.2-0.2,0.3-0.6,0.3-1.1s-0.1-0.9-0.3-1.1
		c-0.1-0.2-0.3-0.2-0.5-0.2s-0.4,0.1-0.5,0.2C42.7,34.5,42.6,34.9,42.6,35.4z"/>
</g>
</svg>
