<?xml version="1.0" encoding="utf-8"?>
<!-- Generator: Adobe Illustrator 23.1.0, SVG Export Plug-In . SVG Version: 6.00 Build 0)  -->
<svg version="1.1" id="圖層_1" xmlns="http://www.w3.org/2000/svg" xmlns:xlink="http://www.w3.org/1999/xlink" x="0px" y="0px"
	 viewBox="0 0 65 65" style="enable-background:new 0 0 65 65;" xml:space="preserve">
<style type="text/css">
	.st0{fill:#231815;}
	.st1{fill:#FF6700;}
	.st2{fill:#FFFFFF;}
</style>
<title>business</title>
<desc>Created with Sketch.</desc>
<g>
	<path class="st0" d="M49.4,13.7H29.2l-1,1v25.1h2V19.9h18.2v22.3H30.2v-3.9h-2v12l1,1h20.2l1-1V14.7L49.4,13.7z M48.4,49.3H30.2
		v-5.1h18.2V49.3z M48.4,17.9H30.2v-2.2h18.2V17.9z"/>
	<rect x="37.9" y="45.8" class="st0" width="2.8" height="2"/>
	<path class="st1" d="M34.7,31.1l-4.6-7.8c-0.4-0.2-0.7-0.4-1.1-0.6h-8.9c-0.4,0.2-0.7,0.4-1.1,0.6l-4.4,7.8c0,0.5,0,0.8,0,1.3
		l4.6,7.8c0.4,0.2,0.7,0.4,1.1,0.6h8.8c0.4-0.2,0.7-0.4,1.1-0.6l4.5-7.7C34.7,31.9,34.7,31.6,34.7,31.1z"/>
	<rect x="19.8" y="29.8" class="st2" width="1.9" height="6.3"/>
	<polygon class="st2" points="26.1,29.8 27.1,26 24.8,26 23,29.6 23,36.1 27.6,36.1 30.2,32.2 30.2,29.8 	"/>
</g>
</svg>
