<?xml version="1.0" encoding="utf-8"?>
<!-- Generator: Adobe Illustrator 23.1.0, SVG Export Plug-In . SVG Version: 6.00 Build 0)  -->
<svg version="1.1" id="Main-bolder" xmlns="http://www.w3.org/2000/svg" xmlns:xlink="http://www.w3.org/1999/xlink" x="0px"
	 y="0px" viewBox="0 0 60 60" style="enable-background:new 0 0 60 60;" xml:space="preserve">
<style type="text/css">
	.st0{fill:#231815;}
	.st1{fill:#FF6700;}
</style>
<title>index-contract</title>
<polygon class="st0" points="41.1,46.6 20.4,46.6 19.6,46.3 15.7,42.4 15.4,41.7 15.4,18.1 15.7,17.4 19.6,13.5 20.4,13.2 
	41.1,13.2 41.8,13.5 45.8,17.4 46,18.1 46,33.7 44,33.7 44,18.5 40.7,15.2 20.8,15.2 17.5,18.5 17.5,41.3 20.8,44.6 41.1,44.6 "/>
<rect x="22.9" y="20.5" class="st0" width="15.9" height="2"/>
<rect x="22.9" y="26.3" class="st0" width="15.9" height="2"/>
<rect x="22.9" y="32" class="st0" width="15.9" height="2"/>
<rect x="22.9" y="37.8" class="st0" width="12.3" height="2"/>
<path class="st1" d="M48.4,46.1l-0.8-1.4l2.8-4.9v-2L47,32l-1.7-1h-6.6l-1.7,1l-3.3,5.8v2l3.5,5.8l1.7,1h5.3l0.8,1.5l2.7,4.8l3.5-2
	L48.4,46.1z M37.7,38.8l2.2-3.8h4.3l2.3,3.8l-2.2,3.8h-4.3L37.7,38.8z"/>
</svg>
