<?xml version="1.0" encoding="UTF-8"?>
<svg id="a" xmlns="http://www.w3.org/2000/svg" version="1.1" xmlns:xlink="http://www.w3.org/1999/xlink" viewBox="0 0 60 60">
  <!-- Generator: Adobe Illustrator 29.1.0, SVG Export Plug-In . SVG Version: 2.1.0 Build 142)  -->
  <defs>
    <style>
      .st0 {
        fill: #ce186c;
      }

      .st1 {
        fill: #5c519f;
      }

      .st2 {
        fill: #dc4b91;
      }

      .st3 {
        fill: #eb6300;
      }

      .st4 {
        fill: #ffdc00;
      }

      .st5 {
        fill: #f49f00;
      }

      .st6 {
        fill: #fff;
      }

      .st7 {
        fill: #f19000;
      }

      .st8 {
        fill: #8c734b;
      }

      .st9 {
        fill: none;
      }

      .st10 {
        fill: #00a474;
      }

      .st11 {
        clip-path: url(#clippath-1);
      }

      .st12 {
        fill: #444297;
      }

      .st13 {
        fill: #5dbda9;
      }

      .st14 {
        fill: #d82400;
      }

      .st15 {
        isolation: isolate;
        opacity: .4;
      }

      .st16 {
        fill: #d61c17;
      }

      .st17 {
        fill: #008776;
      }

      .st18 {
        fill: #e7350d;
      }

      .st19 {
        fill: #f9be00;
      }

      .st20 {
        fill: #004d5b;
      }

      .st21 {
        clip-path: url(#clippath);
      }

      .st22 {
        fill: #070002;
      }
    </style>
    <clipPath id="clippath">
      <path class="st9" d="M15.3,12c-1.1,0-1.9.9-1.9,1.9v33.5c0,1.1.9,1.9,1.9,1.9h20.3c1.1,0,1.9-.9,1.9-1.9V13.9c0-1.1-.9-1.9-1.9-1.9H15.3Z"/>
    </clipPath>
    <clipPath id="clippath-1">
      <path class="st9" d="M15.4,11.9c-1.1,0-2.1.9-2.1,2.1v33.2c0,1.1.9,2.1,2.1,2.1h20c1.1,0,2.1-.9,2.1-2.1V14c0-1.1-.9-2.1-2.1-2.1H15.4Z"/>
    </clipPath>
  </defs>
  <g class="st21">
    <g>
      <path class="st9" d="M35.3,12.8c.7,0,1.2.6,1.2,1.3v33.1c0,.7-.6,1.3-1.2,1.3H15.5c-.7,0-1.2-.6-1.2-1.3V14c0-.7.6-1.3,1.2-1.3h19.8Z"/>
      <g class="st11">
        <rect class="st22" x="13.4" y="11.9" width="24.1" height="37.3"/>
      </g>
      <g>
        <polygon class="st16" points="34.6 23.3 25.4 18.1 25.4 28.6 34.6 23.3"/>
        <polygon class="st18" points="16.2 23.3 16.2 23.3 25.4 28.6 25.4 18.1 16.2 23.3"/>
        <polygon class="st2" points="39 18.1 37.2 11.2 34.6 12.8 39 18.1"/>
        <polygon class="st12" points="34.6 23.3 32.2 29.9 37.2 24.9 34.6 23.3"/>
        <polygon class="st1" points="37.2 24.9 39 18.1 34.6 23.3 37.2 24.9"/>
        <polyline class="st7" points="25.4 7.5 16.2 12.8 25.4 18.1 25.4 7.5"/>
        <polygon class="st18" points="34.6 23.3 34.6 12.8 25.4 18.1 34.6 23.3"/>
        <polygon class="st3" points="16.2 12.8 16.2 23.3 25.4 18.1 16.2 12.8"/>
        <polygon class="st20" points="25.4 31.7 32.2 29.9 25.4 28.6 25.4 31.7"/>
        <polyline class="st19" points="32.2 6.3 34.6 12.8 37.2 11.2 32.2 6.3"/>
        <polyline class="st3" points="25.4 7.5 25.4 18.1 34.6 12.8 34.6 12.8 25.4 7.5"/>
        <polygon class="st19" points="13.6 11.2 11.8 18.1 16.2 12.8 13.6 11.2"/>
        <polygon class="st17" points="25.4 28.6 18.6 29.9 25.4 31.7 25.4 28.6"/>
        <polyline class="st4" points="18.6 6.3 13.6 11.2 16.2 12.8 18.6 6.3"/>
        <polygon class="st19" points="11.8 18.1 13.6 24.9 16.2 23.3 11.8 18.1"/>
        <polygon class="st13" points="16.2 23.3 13.6 24.9 18.6 29.9 16.2 23.3"/>
        <polygon class="st1" points="25.4 28.6 32.2 29.9 34.6 23.3 25.4 28.6"/>
        <polygon class="st10" points="16.2 23.3 18.6 29.9 25.4 28.6 16.2 23.3"/>
        <polyline class="st5" points="25.4 7.5 34.6 12.8 32.2 6.3"/>
        <polygon class="st0" points="34.6 12.8 34.6 23.3 39 18.1 34.6 12.8"/>
        <polyline class="st19" points="18.6 6.3 16.2 12.8 25.4 7.5"/>
        <polygon class="st5" points="16.2 23.3 16.2 12.8 11.8 18.1 16.2 23.3"/>
      </g>
    </g>
  </g>
  <path class="st8" d="M24.2,44.5l-1.1,2.5h-.7l-.5-2s-.1-.2-.2-.2c-.2,0-.4-.2-.6-.2h1.1c.1,0,.3,0,.3.3l.3,1.5.7-1.7h.7s0-.2,0-.2ZM26.9,46.2c0-.7-.9-.7-.9-1s.1-.2.3-.2h.6v-.5h-.5c-.6,0-1.1.3-1.1.8s.3.6.6.7c.3,0,.3.2.3.3,0,.2-.2.2-.4.2-.3,0-.5,0-.7-.2v.6h.6c.7,0,1.2-.3,1.2-.8M28.6,47h.6l-.5-2.5h-.6c-.1,0-.2,0-.3.2l-1,2.4h.7v-.4h.9s.2.3.2.3ZM27.9,46.1l.3-1,.2,1h-.5ZM25.1,44.5l-.5,2.5h-.7l.5-2.5h.7Z"/>
  <polygon class="st15" points="35.1 16.7 22.5 24 22.5 38.6 35.1 45.8 47.7 38.6 47.7 24 35.1 16.7"/>
  <polygon class="st14" points="36.6 17.6 24.7 24.4 24.7 38.1 36.6 45 48.5 38.1 48.5 24.4 36.6 17.6"/>
  <g>
    <path class="st6" d="M33,31.7c-.3-.5-.7-1-1.2-1.3s-1-.4-1.6-.4l3.1-3.5v-1.2h-7.5v1.8h4.6l-2.8,3.2v1.2c.2,0,.4-.1.6-.1h.6c.5,0,1,0,1.4.3.4.2.7.4.9.8s.3.7.3,1.2-.1.8-.3,1.2c-.2.3-.5.6-.8.8-.4.2-.8.3-1.3.3s-1,0-1.4-.3-.8-.5-1-.9l-1.3,1.3c.4.6,1,1,1.6,1.3s1.4.4,2.2.4,1.6-.2,2.3-.5,1.2-.8,1.5-1.4c.4-.6.6-1.3.6-2.1s0-1.4-.4-1.9v-.2Z"/>
    <path class="st6" d="M47.7,34.5c-1.3-2.3-4.8-.1-3.4,2,1.3,2.3,4.8.1,3.4-2ZM46.6,36.2c-.9,1-2.4-.6-1.4-1.4.9-1,2.4.6,1.4,1.4Z"/>
    <polygon class="st6" points="46.5 27.4 40.1 37.4 41.4 37.4 47.8 27.4 46.5 27.4"/>
    <path class="st6" d="M40.9,31c2.1,1.4,4.3-2.2,2-3.4-2.2-1.4-4.3,2.2-2,3.4ZM41.2,28.5c.9-1,2.4.6,1.4,1.4-.9,1-2.4-.6-1.4-1.4Z"/>
    <path class="st6" d="M34,36.1c-.2,0-.3,0-.4.2,0,0-.2.2-.2.4s0,.3.2.4c0,0,.2.2.4.2s.3,0,.4-.2c0,0,.2-.2.2-.4s0-.3-.2-.4c0,0-.2-.2-.4-.2Z"/>
    <path class="st6" d="M36.7,33.3v-1.1h2.4v-1.1h-3.4l-.3,2.9.6.5c0,0,.9-.3,1.1-.3s.7,0,1,.5c.3.3,0,1.1-.4,1.3s-1,.4-1.8-.5l-.9.9c.7.7,1.7.9,2.1.9s.9,0,1.4-.3.6-.4.8-.7.5-1.3,0-2.1-.4-.5-.7-.7c0,0-.6-.4-1.9,0Z"/>
  </g>
</svg>