<?xml version="1.0" encoding="utf-8"?>
<!-- Generator: Adobe Illustrator 23.1.0, SVG Export Plug-In . SVG Version: 6.00 Build 0)  -->
<svg version="1.1" id="Main-bolder" xmlns="http://www.w3.org/2000/svg" xmlns:xlink="http://www.w3.org/1999/xlink" x="0px"
	 y="0px" viewBox="0 0 60 60" style="enable-background:new 0 0 60 60;" xml:space="preserve">
<style type="text/css">
	.st0{fill:none;stroke:#231815;stroke-width:2;stroke-linejoin:bevel;}
	.st1{fill:#FF6700;}
</style>
<title>index-business</title>
<line class="st0" x1="11" y1="46.5" x2="45.5" y2="46.5"/>
<path class="st0" d="M14.2,46.6v-29l4-4h15.4l4,4v8.2"/>
<line class="st0" x1="20.6" y1="18.9" x2="20.6" y2="23.7"/>
<line class="st0" x1="31.2" y1="18.9" x2="31.2" y2="23.7"/>
<line class="st0" x1="26" y1="18.9" x2="26" y2="23.7"/>
<line class="st0" x1="20.6" y1="27.8" x2="20.6" y2="33.2"/>
<line class="st0" x1="26" y1="27.8" x2="26" y2="33.2"/>
<line class="st0" x1="20.6" y1="37.2" x2="20.6" y2="42.6"/>
<line class="st0" x1="31.2" y1="37.2" x2="31.2" y2="42.6"/>
<line class="st0" x1="26" y1="37.2" x2="26" y2="42.6"/>
<line class="st0" x1="37.6" y1="36" x2="37.6" y2="46.6"/>
<path class="st1" d="M49.9,29.2l-4.6-7.8l-1.1-0.6h-8.9l-1.1,0.6l-4.4,7.8v1.3l4.6,7.8l1.1,0.6h8.8l1.1-0.6l4.5-7.7
	C49.9,30.1,49.9,29.7,49.9,29.2z M39,33.6h-1.4l-3.4-3.4l1.4-1.4l2.7,2.7l5.7-5.8l1.4,1.4L39,33.6z"/>
</svg>
