<?xml version="1.0" encoding="utf-8"?>
<!-- Generator: Adobe Illustrator 23.1.0, SVG Export Plug-In . SVG Version: 6.00 Build 0)  -->
<svg version="1.1" id="Main-bolder" xmlns="http://www.w3.org/2000/svg" xmlns:xlink="http://www.w3.org/1999/xlink" x="0px"
	 y="0px" viewBox="0 0 60 60" style="enable-background:new 0 0 60 60;" xml:space="preserve">
<style type="text/css">
	.st0{fill:#FF6700;}
	.st1{fill:#231815;}
</style>
<title>index-vip</title>
<path class="st0" d="M36,35.1l-2.4,2.4L33.4,38l0.6,3.3l-0.8,0.6l-3-1.6h-0.5l-3,1.6L26,41.3l0.5-3.3l-0.2-0.5L24,35.1l0.3-0.9
	l3.3-0.5l0.4-0.3l1.5-3h1l1.5,3l0.4,0.3l3.3,0.5L36,35.1z"/>
<path class="st1" d="M51.3,21.3c0-1.8-1.5-3.3-3.3-3.3c-1.8,0-3.3,1.5-3.3,3.3c0,0.5,0.1,1,0.3,1.4l-7,6.7l-0.7-0.1L32,18.4
	c1.4-1.2,1.6-3.3,0.4-4.7c-1.2-1.4-3.3-1.6-4.7-0.4s-1.6,3.3-0.4,4.7c0.1,0.1,0.2,0.3,0.4,0.4l-5.1,10.7l-0.7,0.1L15,22.4
	c0.1-0.4,0.2-0.8,0.2-1.1c0-1.8-1.5-3.3-3.3-3.3s-3.3,1.5-3.3,3.3c0,1.7,1.2,3.1,2.8,3.3l3.1,17.3c0,0.2,0.2,0.4,0.4,0.6l4.9,4.1
	c0.2,0.1,0.4,0.2,0.6,0.2h19.1c0.2,0,0.5-0.1,0.6-0.2l4.9-4c0.2-0.1,0.3-0.4,0.3-0.6l3.4-17.5C50.3,24.1,51.3,22.7,51.3,21.3z
	 M29.8,14.6c0.7,0.1,1.3,0.7,1.2,1.4c-0.1,0.6-0.6,1.1-1.2,1.2c-0.7,0.1-1.4-0.5-1.4-1.2c-0.1-0.7,0.5-1.4,1.2-1.4
	C29.7,14.6,29.7,14.6,29.8,14.6z M10.6,21.3c0-0.7,0.6-1.3,1.3-1.3c0.7,0,1.3,0.6,1.3,1.3c0,0.7-0.6,1.3-1.3,1.3l0,0
	C11.2,22.6,10.6,22,10.6,21.3z M43.6,41.2l-4.4,3.6H20.9l-4.4-3.6l-3.1-16.7l0.5-0.3l7,6.9c0.2,0.2,0.6,0.3,0.9,0.3l1.6-0.3
	c0.3-0.1,0.6-0.3,0.7-0.5l5.4-11.2h0.6l5.7,11.3c0.1,0.3,0.4,0.5,0.7,0.5l1.7,0.3c0.3,0.1,0.6,0,0.9-0.3l7.3-7
	c0.2,0.1,0.3,0.2,0.5,0.2L43.6,41.2z M48,22.6c-0.1,0-0.2,0-0.3-0.1l-0.6-0.3c-0.5-0.5-0.5-1.3,0-1.8c0.5-0.5,1.3-0.5,1.8,0
	s0.5,1.3,0,1.8C48.7,22.4,48.3,22.6,48,22.6z"/>
</svg>
