<?xml version="1.0" encoding="utf-8"?>
<!-- Generator: Adobe Illustrator 23.1.0, SVG Export Plug-In . SVG Version: 6.00 Build 0)  -->
<svg version="1.1" id="Main-bolder" xmlns="http://www.w3.org/2000/svg" xmlns:xlink="http://www.w3.org/1999/xlink" x="0px"
	 y="0px" viewBox="0 0 60 60" style="enable-background:new 0 0 60 60;" xml:space="preserve">
<style type="text/css">
	.st0{clip-path:url(#SVGID_1_);}
	.st1{clip-path:url(#SVGID_2_);fill:#070002;}
	.st2{fill:#8C734B;}
	.st3{fill:#FFFFFF;}
	.st4{fill:#D61C17;}
	.st5{fill:#E7350D;}
	.st6{fill:#DC4B91;}
	.st7{fill:#444297;}
	.st8{fill:#5C519F;}
	.st9{fill:#F19000;}
	.st10{fill:#EB6300;}
	.st11{fill:#004D5B;}
	.st12{fill:#F9BE00;}
	.st13{fill:#008776;}
	.st14{fill:#FFDC00;}
	.st15{fill:#5DBDA9;}
	.st16{fill:#00A474;}
	.st17{fill:#F49F00;}
	.st18{fill:#CE186C;}
	.st19{fill:none;}
	.st20{clip-path:url(#SVGID_3_);}
</style>
<title>index-bill</title>
<g>
	<defs>
		<path id="SVGID_12_" d="M39.9,12.2c0.7,0,1.2,0.6,1.2,1.3v33.1c0,0.7-0.6,1.3-1.2,1.3H20.1c-0.7,0-1.2-0.6-1.2-1.3V13.4
			c0-0.7,0.6-1.3,1.2-1.3L39.9,12.2L39.9,12.2z"/>
	</defs>
	<clipPath id="SVGID_1_">
		<use xlink:href="#SVGID_12_"  style="overflow:visible;"/>
	</clipPath>
	<g class="st0">
		<g>
			<defs>
				<path id="SVGID_7_" d="M20,11.3c-1.1,0-2.1,0.9-2.1,2.1v33.2c0,1.1,0.9,2.1,2.1,2.1h20c1.1,0,2.1-0.9,2.1-2.1V13.4
					c0-1.1-0.9-2.1-2.1-2.1H20z"/>
			</defs>
			<clipPath id="SVGID_2_">
				<use xlink:href="#SVGID_7_"  style="overflow:visible;"/>
			</clipPath>
			<rect x="18" y="11.3" class="st1" width="24.1" height="37.3"/>
		</g>
		<path class="st2" d="M35,46.6c0.1,0,0.1,0.1,0.2,0.1c0.1,0,0.2-0.1,0.2-0.1c0-0.1,0-0.1-0.2-0.2c-0.1-0.1-0.2-0.1-0.2-0.2
			c0-0.1,0.1-0.2,0.3-0.2c0.1,0,0.2,0,0.2,0l0,0.1c0,0-0.1,0-0.2,0c-0.1,0-0.2,0.1-0.2,0.1c0,0.1,0.1,0.1,0.2,0.2
			c0.1,0.1,0.2,0.1,0.2,0.3c0,0.1-0.1,0.3-0.3,0.3C35.1,46.7,35.1,46.7,35,46.6L35,46.6z"/>
		<path class="st2" d="M35.8,45.9C35.8,46,35.8,46,35.8,45.9c-0.1,0.1-0.1,0-0.1,0C35.7,45.9,35.7,45.9,35.8,45.9
			C35.8,45.9,35.8,45.9,35.8,45.9 M35.7,46.1h0.1v0.6h-0.1V46.1z"/>
		<path class="st2" d="M36.6,46.1c0,0,0,0.1,0,0.2v0.4c0,0.1,0,0.2-0.1,0.3C36.4,47,36.3,47,36.3,47c-0.1,0-0.2,0-0.2-0.1l0-0.1
			c0,0,0.1,0,0.2,0c0.1,0,0.2-0.1,0.2-0.2v-0.1h0c0,0.1-0.1,0.1-0.2,0.1c-0.2,0-0.3-0.1-0.3-0.3c0-0.2,0.1-0.3,0.3-0.3
			c0.1,0,0.2,0.1,0.2,0.1h0L36.6,46.1L36.6,46.1z M36.5,46.4C36.5,46.3,36.5,46.3,36.5,46.4c0-0.1-0.1-0.2-0.2-0.2
			c-0.1,0-0.2,0.1-0.2,0.2c0,0.1,0.1,0.2,0.2,0.2c0.1,0,0.1,0,0.2-0.1c0,0,0,0,0-0.1V46.4z"/>
		<path class="st2" d="M36.8,46.3c0-0.1,0-0.1,0-0.2h0.1l0,0.1h0c0-0.1,0.1-0.1,0.2-0.1c0.1,0,0.2,0.1,0.2,0.3v0.4h-0.1v-0.4
			c0-0.1,0-0.2-0.1-0.2c-0.1,0-0.1,0.1-0.2,0.1c0,0,0,0,0,0.1v0.4h-0.1V46.3z"/>
		<path class="st2" d="M37.9,46.7L37.9,46.7L37.9,46.7c0,0-0.1,0-0.2,0c-0.1,0-0.2-0.1-0.2-0.2c0-0.2,0.1-0.2,0.4-0.2v0
			c0-0.1,0-0.1-0.1-0.1c-0.1,0-0.1,0-0.2,0l0-0.1c0.1,0,0.1-0.1,0.2-0.1c0.2,0,0.2,0.1,0.2,0.3v0.2c0,0.1,0,0.1,0,0.1H37.9z
			 M37.9,46.4c-0.1,0-0.3,0-0.3,0.1c0,0.1,0,0.1,0.1,0.1c0.1,0,0.1-0.1,0.2-0.1l0,0V46.4z"/>
		<path class="st2" d="M38.3,45.9v0.2h0.2v0.1h-0.2v0.3c0,0.1,0,0.1,0.1,0.1c0,0,0.1,0,0.1,0l0,0.1c0,0-0.1,0-0.1,0
			c-0.1,0-0.1,0-0.1,0c0,0,0-0.1,0-0.2v-0.3h-0.1v-0.1h0.1V46L38.3,45.9z"/>
		<path class="st2" d="M39.2,46.6c0,0.1,0,0.1,0,0.2h-0.1l0-0.1h0c0,0.1-0.1,0.1-0.2,0.1c-0.1,0-0.2-0.1-0.2-0.3v-0.4h0.1v0.3
			c0,0.1,0,0.2,0.1,0.2c0.1,0,0.1-0.1,0.1-0.1c0,0,0,0,0-0.1v-0.4h0.1V46.6z"/>
		<path class="st2" d="M39.4,46.3c0-0.1,0-0.1,0-0.2h0.1L39.4,46.3l0.1-0.1c0-0.1,0.1-0.1,0.2-0.1l0,0v0.1c0,0,0,0,0,0
			c-0.1,0-0.1,0.1-0.2,0.1c0,0,0,0,0,0.1v0.3h-0.1V46.3z"/>
		<path class="st2" d="M39.9,46.4c0,0.2,0.1,0.2,0.2,0.2c0.1,0,0.1,0,0.2,0l0,0.1c0,0-0.1,0-0.2,0c-0.2,0-0.3-0.1-0.3-0.3
			c0-0.2,0.1-0.3,0.3-0.3c0.2,0,0.3,0.2,0.3,0.3c0,0,0,0,0,0.1H39.9z M40.2,46.4c0-0.1,0-0.2-0.2-0.2c-0.1,0-0.2,0.1-0.2,0.2H40.2z"
			/>
		<path class="st3" d="M34.7,33.8h-0.9v0.4h0.9V33.8z M34,33.9h0.6V34H34V33.9z"/>
		<polygon class="st3" points="35,34.2 35.2,34.2 35.2,33.7 35.4,33.7 35.4,33.5 33.6,33.5 33.6,33.7 35,33.7 		"/>
		<path class="st3" d="M27.4,35.2h1.3c0.2,0,0.3-0.1,0.3-0.3v-0.5h-1.6V35.2z M27.6,34.6h1.2v0.3c0,0.1,0,0.1-0.1,0.1h-1.1V34.6z"/>
		<path class="st3" d="M28.6,33.8l0.1,0.2h-1.2v0c0-0.1,0-0.1,0.1-0.2l0.5-0.2l-0.1-0.2l-0.5,0.3c-0.2,0.1-0.2,0.2-0.2,0.4v0.2h1.6
			l0.1,0.1l0.2-0.1l-0.3-0.5L28.6,33.8z"/>
		<path class="st3" d="M33.5,34.5H35v0.4c0,0.2-0.1,0.2-0.3,0.2v0.2h0c0.3,0,0.5-0.1,0.5-0.4v-0.4h0.2v-0.2h-1.9V34.5z"/>
		<path class="st3" d="M32.5,34.1h0.8v-0.2h-0.8v-0.4h-0.2v0.4h-0.8v0.2h0.8c-0.1,0.4-0.2,0.8-0.8,1l0.1,0.2
			c0.6-0.2,0.8-0.6,0.8-0.9c0.1,0.4,0.4,0.7,0.8,0.9l0.1-0.2C32.9,34.8,32.6,34.4,32.5,34.1"/>
		<path class="st3" d="M34.7,34.6h-1V35h1V34.6z M34.5,34.9H34v-0.1h0.6V34.9z"/>
		<path class="st3" d="M36.6,34.1h0.8v-0.2h-0.8v-0.4h-0.2v0.4h-0.8v0.2h0.8c-0.1,0.4-0.2,0.8-0.8,1l0.1,0.2
			c0.6-0.2,0.8-0.6,0.8-0.9c0.1,0.4,0.4,0.7,0.8,0.9l0.1-0.2C36.9,34.8,36.7,34.4,36.6,34.1"/>
		<path class="st3" d="M29.5,34.6c0,0.3,0,0.5-0.3,0.5l0.1,0.2c0.3-0.1,0.3-0.4,0.3-0.7v0L29.5,34.6L29.5,34.6z"/>
		<polygon class="st3" points="29.3,33.5 29.6,33.9 29.8,33.7 29.5,33.4 		"/>
		<polygon class="st3" points="29.3,34 29.6,34.3 29.8,34.2 29.5,33.9 		"/>
		<path class="st3" d="M30.1,34.8h1.1v-0.4h-1.3v0.2h1.1v0.1h-1l-0.1,0.5l0.2,0l0-0.1h1c0,0.1-0.1,0.1-0.4,0.1v0.2h0
			c0.4,0,0.6-0.1,0.6-0.4v-0.1L30.1,34.8L30.1,34.8z"/>
		<polygon class="st3" points="30.2,33.6 30.2,33.5 30.4,33.5 30.4,33.4 30.6,33.4 30.6,33.5 30.8,33.5 30.8,33.6 		"/>
		<polygon class="st3" points="30.6,34.3 30.6,34.2 30.5,34.2 30.5,34.3 30.3,34.3 30.3,34.1 30.7,34.1 30.7,34.3 		"/>
		<rect x="30.3" y="33.9" class="st3" width="0.4" height="0.1"/>
		<rect x="30.3" y="33.7" class="st3" width="0.4" height="0.1"/>
		<path class="st3" d="M30.1,34.2H30v0C30,34.1,30,34.1,30.1,34.2l0.2-0.4l-0.1-0.1l-0.1,0.1H30v0c0,0,0,0,0-0.1l0.1-0.2L30,33.4
			l-0.2,0.2c0,0,0,0.1,0,0.1v0.2H30L29.9,34c0,0-0.1,0.1-0.1,0.2v0.1h0.4V34h-0.2V34.2z"/>
		<path class="st3" d="M31.1,34.2h-0.1v0C30.9,34.1,30.9,34.1,31.1,34.2l0.2-0.4l-0.1-0.1L31,33.8h-0.1v0c0,0,0,0,0-0.1l0.1-0.2
			L31,33.4l-0.2,0.2c0,0,0,0.1,0,0.1v0.2h0.1L30.8,34c0,0-0.1,0.1-0.1,0.2v0.1h0.4V34h-0.2V34.2z"/>
		<polygon class="st4" points="25.7,35 24.5,34.4 24.5,35.7 		"/>
		<polygon class="st5" points="23.4,35 23.4,35 24.5,35.7 24.5,34.4 		"/>
		<polygon class="st6" points="26.2,34.4 26,33.5 25.7,33.7 		"/>
		<polygon class="st7" points="25.7,35 25.4,35.8 26,35.2 		"/>
		<polygon class="st8" points="26,35.2 26.2,34.4 25.7,35 		"/>
		<polygon class="st9" points="24.5,33 23.4,33.7 24.5,34.4 		"/>
		<polygon class="st5" points="25.7,35 25.7,33.7 24.5,34.4 		"/>
		<polygon class="st10" points="23.4,33.7 23.4,35 24.5,34.4 		"/>
		<polygon class="st11" points="24.5,36.1 25.4,35.8 24.5,35.7 		"/>
		<polygon class="st12" points="25.7,33.7 26,33.5 25.4,32.9 		"/>
		<polygon class="st10" points="25.7,33.7 25.7,33.7 24.5,33 24.5,34.4 		"/>
		<polygon class="st12" points="23.1,33.5 22.8,34.4 23.4,33.7 		"/>
		<polygon class="st13" points="24.5,35.7 23.7,35.8 24.5,36.1 		"/>
		<polygon class="st14" points="23.4,33.7 23.7,32.9 23.1,33.5 		"/>
		<polygon class="st14" points="24.5,32.7 23.7,32.9 24.5,33 		"/>
		<polygon class="st12" points="22.8,34.4 23.1,35.2 23.4,35 		"/>
		<polygon class="st15" points="23.4,35 23.1,35.2 23.7,35.8 		"/>
		<polygon class="st12" points="25.4,32.9 24.5,32.7 24.5,33 		"/>
		<polygon class="st8" points="24.5,35.7 25.4,35.8 25.7,35 		"/>
		<polygon class="st16" points="23.4,35 23.7,35.8 24.5,35.7 		"/>
		<polygon class="st17" points="25.7,33.7 25.4,32.9 24.5,33 		"/>
		<polygon class="st18" points="25.7,33.7 25.7,35 26.2,34.4 		"/>
		<polygon class="st12" points="24.5,33 23.7,32.9 23.4,33.7 		"/>
		<polygon class="st17" points="23.4,35 23.4,33.7 22.8,34.4 		"/>
		<polygon class="st4" points="39.2,22.7 30,17.5 30,28 		"/>
		<polygon class="st5" points="20.8,22.7 20.8,22.7 30,28 30,17.5 		"/>
		<polygon class="st6" points="43.6,17.5 41.8,10.6 39.2,12.2 		"/>
		<polygon class="st7" points="39.2,22.7 36.8,29.3 41.8,24.3 		"/>
		<polygon class="st8" points="41.8,24.3 43.6,17.5 39.2,22.7 		"/>
		<polyline class="st9" points="30,6.9 20.8,12.2 30,17.5 30,6.9 		"/>
		<polygon class="st5" points="39.2,22.7 39.2,12.2 30,17.5 		"/>
		<polygon class="st10" points="20.8,12.2 20.8,22.7 30,17.5 		"/>
		<polygon class="st11" points="30,31.1 36.8,29.3 30,28 		"/>
		<polyline class="st12" points="36.8,5.7 39.2,12.2 41.8,10.6 36.8,5.7 		"/>
		<polyline class="st10" points="30,6.9 30,17.5 39.2,12.2 39.2,12.2 30,6.9 		"/>
		<polygon class="st12" points="18.2,10.6 16.4,17.5 20.8,12.2 		"/>
		<polygon class="st13" points="30,28 23.2,29.3 30,31.1 		"/>
		<polyline class="st14" points="23.2,5.7 18.2,10.6 20.8,12.2 23.2,5.7 		"/>
		<polygon class="st12" points="16.4,17.5 18.2,24.3 20.8,22.7 		"/>
		<polygon class="st15" points="20.8,22.7 18.2,24.3 23.2,29.3 		"/>
		<polygon class="st8" points="30,28 36.8,29.3 39.2,22.7 		"/>
		<polygon class="st16" points="20.8,22.7 23.2,29.3 30,28 		"/>
		<polyline class="st17" points="30,6.9 39.2,12.2 36.8,5.7 		"/>
		<polygon class="st18" points="39.2,12.2 39.2,22.7 43.6,17.5 		"/>
		<polyline class="st12" points="23.2,5.7 20.8,12.2 30,6.9 		"/>
		<polygon class="st17" points="20.8,22.7 20.8,12.2 16.4,17.5 		"/>
		<path class="st19" d="M19.9,11.4c-1.1,0-1.9,0.9-1.9,1.9v33.5c0,1.1,0.9,1.9,1.9,1.9h20.3c1.1,0,1.9-0.9,1.9-1.9V13.3
			c0-1.1-0.9-1.9-1.9-1.9H19.9z"/>
		<path class="st2" d="M35.4,42.6l-1.1,2.5h-0.7l-0.5-2c0-0.1-0.1-0.2-0.2-0.2c-0.2-0.1-0.4-0.2-0.6-0.2l0-0.1h1.1
			c0.1,0,0.3,0.1,0.3,0.3l0.3,1.5l0.7-1.7H35.4z M38.1,44.3c0-0.7-0.9-0.7-0.9-1c0-0.1,0.1-0.2,0.3-0.2c0.1,0,0.4,0,0.6,0.1l0.1-0.5
			c-0.2-0.1-0.4-0.1-0.6-0.1c-0.6,0-1.1,0.3-1.1,0.8c0,0.4,0.3,0.6,0.6,0.7c0.3,0.1,0.3,0.2,0.3,0.3c0,0.2-0.2,0.2-0.4,0.2
			c-0.3,0-0.5-0.1-0.7-0.2L36.2,45c0.2,0.1,0.4,0.1,0.7,0.1C37.6,45.1,38.1,44.8,38.1,44.3 M39.8,45.1h0.6l-0.5-2.5h-0.6
			c-0.1,0-0.2,0.1-0.3,0.2l-1,2.4h0.7l0.1-0.4h0.8L39.8,45.1z M39.1,44.2l0.3-1l0.2,1H39.1z M36.3,42.6l-0.5,2.5h-0.7l0.5-2.5H36.3z
			"/>
		<g>
			<defs>
				<rect id="SVGID_9_" x="26" y="39.1" width="5.3" height="5.3"/>
			</defs>
			<clipPath id="SVGID_3_">
				<use xlink:href="#SVGID_9_"  style="overflow:visible;"/>
			</clipPath>
			<g class="st20">
				<defs>
					<rect id="SVGID_11_" x="26" y="39.1" width="5.3" height="5.3"/>
				</defs>
				<clipPath id="SVGID_4_">
					<use xlink:href="#SVGID_11_"  style="overflow:visible;"/>
				</clipPath>
				<g style="clip-path:url(#SVGID_4_);">
					
						<image style="overflow:visible;" width="166" height="166" xlink:href="FE49517B.html"  transform="matrix(0 3.186874e-02 -3.186874e-02 0 31.2945 39.0806)">
					</image>
				</g>
			</g>
		</g>
	</g>
</g>
</svg>
