<?xml version="1.0" encoding="utf-8"?>
<!-- Generator: Adobe Illustrator 27.0.1, SVG Export Plug-In . SVG Version: 6.00 Build 0)  -->
<svg version="1.1" id="Main-bolder" xmlns="http://www.w3.org/2000/svg" xmlns:xlink="http://www.w3.org/1999/xlink" x="0px"
	 y="0px" viewBox="0 0 60 60" style="enable-background:new 0 0 60 60;" xml:space="preserve">
<style type="text/css">
	.st0{display:none;}
	.st1{display:inline;fill:#FFC303;}
	.st2{display:inline;fill:url(#SVGID_1_);}
	.st3{display:inline;fill:url(#SVGID_00000170993400665533756480000017003741061182418835_);}
	.st4{fill:#E40080;}
	.st5{fill:#FFFFFF;}
	.st6{fill:#FFD60B;}
	.st7{fill:#FF8F08;}
	.st8{fill:#FF6700;}
	.st9{fill:#D82400;}
	.st10{fill:#F73603;}
	.st11{fill:#DD5298;}
	.st12{fill:#3E1EE6;}
	.st13{fill:#624BEE;}
	.st14{fill:#024D59;}
	.st15{fill:#FFBA0D;}
	.st16{fill:#098979;}
	.st17{fill:#22DDB9;}
	.st18{fill:#0EAA7D;}
	.st19{fill:#FF9B0B;}
	.st20{fill:#CE2874;}
	.st21{fill:url(#SVGID_00000152239711737077124730000016011426758404148354_);}
	.st22{fill:url(#SVGID_00000146462667040274742950000012199373742142764951_);}
</style>
<g class="st0">
	<path class="st1" d="M37.1,30.3c-0.3-0.6-0.8-1.1-1.5-1.5S34,28,32.7,27.5c-1.1-0.4-1.8-0.8-2.1-1c-0.3-0.2-0.4-0.4-0.4-0.6
		c0-0.6,0.4-1,1.3-1c1.5,0,2.9,0.8,4,2.4l1.8-5.1c-1.7-0.6-3.5-1-5.4-1.1v-2h-4v2.2c-1.2,0.2-2.2,0.6-3,1.1c-1.3,0.9-2,2.3-2,4.1
		c0,0.9,0.2,1.7,0.6,2.3c0.4,0.6,0.9,1.1,1.5,1.4s1.3,0.7,2.2,1c1,0.4,1.6,0.7,1.8,0.9c0.2,0.2,0.3,0.5,0.3,0.7
		c0,0.3-0.1,0.5-0.3,0.7c-0.2,0.2-0.5,0.3-0.9,0.3c-0.7,0-1.4-0.2-2.2-0.7c-0.8-0.5-1.4-1.1-1.9-1.9l-1.8,5.4c1.6,0.6,3.5,1,5.6,1.2
		v2.1h4v-2.1c1.5-0.2,2.7-0.6,3.7-1.2c1.3-0.9,2-2.2,2-4C37.7,31.7,37.5,30.9,37.1,30.3z"/>
	
		<linearGradient id="SVGID_1_" gradientUnits="userSpaceOnUse" x1="29.8892" y1="899.9494" x2="29.8892" y2="879.207" gradientTransform="matrix(1 0 0 1 0 -860.11)">
		<stop  offset="0" style="stop-color:#000000"/>
		<stop  offset="1" style="stop-color:#FFFFFF"/>
	</linearGradient>
	<path class="st2" d="M37.1,30.3c-0.3-0.6-0.8-1.1-1.5-1.5S34,28,32.7,27.5c-1.1-0.4-1.8-0.8-2.1-1c-0.3-0.2-0.4-0.4-0.4-0.6
		c0-0.6,0.4-1,1.3-1c1.5,0,2.9,0.8,4,2.4l1.8-5.1c-1.7-0.6-3.5-1-5.4-1.1v-2h-4v2.2c-1.2,0.2-2.2,0.6-3,1.1c-1.3,0.9-2,2.3-2,4.1
		c0,0.9,0.2,1.7,0.6,2.3c0.4,0.6,0.9,1.1,1.5,1.4s1.3,0.7,2.2,1c1,0.4,1.6,0.7,1.8,0.9c0.2,0.2,0.3,0.5,0.3,0.7
		c0,0.3-0.1,0.5-0.3,0.7c-0.2,0.2-0.5,0.3-0.9,0.3c-0.7,0-1.4-0.2-2.2-0.7c-0.8-0.5-1.4-1.1-1.9-1.9l-1.8,5.4c1.6,0.6,3.5,1,5.6,1.2
		v2.1h4v-2.1c1.5-0.2,2.7-0.6,3.7-1.2c1.3-0.9,2-2.2,2-4C37.7,31.7,37.5,30.9,37.1,30.3z"/>
	<path class="st1" d="M31.2,39v-2l0.7-0.1c1.4-0.2,2.5-0.5,3.3-1.1c1.1-0.8,1.6-1.8,1.6-3.3c0-0.7-0.1-1.3-0.4-1.8
		c-0.3-0.5-0.7-0.9-1.2-1.2c-0.6-0.4-1.6-0.8-2.8-1.3c-1.6-0.6-2.1-0.9-2.3-1.1c-0.5-0.4-0.7-0.8-0.7-1.2c0-0.4,0.1-1.8,2.1-1.8
		c1.4,0,2.6,0.5,3.7,1.6l1.1-3.1C35,22.2,33.5,22,32,21.9h-0.8V20h-2.4v2l-0.7,0.1c-1.1,0.2-2,0.5-2.7,1c-1.1,0.8-1.6,1.9-1.6,3.4
		c0,0.8,0.2,1.4,0.5,1.9s0.8,0.9,1.2,1.2c0.5,0.3,1.2,0.6,2.1,1c1.4,0.6,1.8,0.9,2,1.1c0.5,0.5,0.6,0.9,0.6,1.3
		c0,0.4-0.1,0.9-0.7,1.3c-0.4,0.3-0.8,0.4-1.3,0.4c-0.8,0-1.7-0.3-2.6-0.8c-0.4-0.3-0.8-0.6-1.2-0.9l-1.1,3.3c1.4,0.5,3,0.7,4.7,0.9
		h0.7v2h2.5V39z"/>
</g>
<g class="st0">
	<path class="st1" d="M56.2-27c-0.3-0.6-0.8-1.1-1.5-1.5s-1.6-0.8-2.9-1.3c-1.1-0.4-1.8-0.8-2.1-1s-0.4-0.4-0.4-0.6
		c0-0.6,0.4-1,1.3-1c1.5,0,2.9,0.8,4,2.4l1.8-5.1c-1.7-0.6-3.5-1-5.4-1.1v-2h-4v2.2c-1.2,0.2-2.2,0.6-3,1.1c-1.3,0.9-2,2.3-2,4.1
		c0,0.9,0.2,1.7,0.6,2.3c0.4,0.6,0.9,1.1,1.5,1.4s1.3,0.7,2.2,1c1,0.4,1.6,0.7,1.8,0.9c0.2,0.2,0.3,0.5,0.3,0.7
		c0,0.3-0.1,0.5-0.3,0.7s-0.5,0.3-0.9,0.3c-0.7,0-1.4-0.2-2.2-0.7s-1.4-1.1-1.9-1.9l-1.8,5.4c1.6,0.6,3.5,1,5.6,1.2v2.1h4v-2.1
		c1.5-0.2,2.7-0.6,3.7-1.2c1.3-0.9,2-2.2,2-4C56.7-25.7,56.6-26.4,56.2-27z"/>
	
		<linearGradient id="SVGID_00000080166780773991797580000001579156823502260412_" gradientUnits="userSpaceOnUse" x1="48.968" y1="842.5965" x2="48.968" y2="821.8541" gradientTransform="matrix(1 0 0 1 0 -860.11)">
		<stop  offset="0" style="stop-color:#000000"/>
		<stop  offset="1" style="stop-color:#FFFFFF"/>
	</linearGradient>
	<path style="display:inline;fill:url(#SVGID_00000080166780773991797580000001579156823502260412_);" d="M56.2-27
		c-0.3-0.6-0.8-1.1-1.5-1.5s-1.6-0.8-2.9-1.3c-1.1-0.4-1.8-0.8-2.1-1s-0.4-0.4-0.4-0.6c0-0.6,0.4-1,1.3-1c1.5,0,2.9,0.8,4,2.4
		l1.8-5.1c-1.7-0.6-3.5-1-5.4-1.1v-2h-4v2.2c-1.2,0.2-2.2,0.6-3,1.1c-1.3,0.9-2,2.3-2,4.1c0,0.9,0.2,1.7,0.6,2.3
		c0.4,0.6,0.9,1.1,1.5,1.4s1.3,0.7,2.2,1c1,0.4,1.6,0.7,1.8,0.9c0.2,0.2,0.3,0.5,0.3,0.7c0,0.3-0.1,0.5-0.3,0.7s-0.5,0.3-0.9,0.3
		c-0.7,0-1.4-0.2-2.2-0.7s-1.4-1.1-1.9-1.9l-1.8,5.4c1.6,0.6,3.5,1,5.6,1.2v2.1h4v-2.1c1.5-0.2,2.7-0.6,3.7-1.2c1.3-0.9,2-2.2,2-4
		C56.7-25.7,56.6-26.4,56.2-27z"/>
	<path class="st1" d="M50.3-18.3v-2l0.7-0.1c1.4-0.2,2.5-0.5,3.3-1.1c1.1-0.8,1.6-1.8,1.6-3.3c0-0.7-0.1-1.3-0.4-1.8
		c-0.3-0.5-0.7-0.9-1.2-1.2c-0.6-0.4-1.6-0.8-2.8-1.3c-1.6-0.6-2.1-0.9-2.3-1.1c-0.5-0.4-0.7-0.8-0.7-1.2c0-0.4,0.1-1.8,2.1-1.8
		c1.4,0,2.6,0.5,3.7,1.6l1.1-3.1c-1.4-0.4-2.8-0.7-4.4-0.8h-0.8v-1.9h-2.4v2l-0.7,0.1c-1.1,0.2-2,0.5-2.7,1
		c-1.1,0.8-1.6,1.9-1.6,3.4c0,0.8,0.2,1.4,0.5,1.9s0.8,0.9,1.2,1.2c0.5,0.3,1.2,0.6,2.1,1c1.4,0.6,1.8,0.9,2,1.1
		c0.5,0.5,0.6,0.9,0.6,1.3s-0.1,0.9-0.7,1.3c-0.4,0.3-0.8,0.4-1.3,0.4c-0.8,0-1.7-0.3-2.6-0.8c-0.4-0.3-0.8-0.6-1.2-0.9l-1.1,3.3
		c1.4,0.5,3,0.7,4.7,0.9h0.7v2L50.3-18.3L50.3-18.3z"/>
</g>
<g>
	<g>
		<g>
			<g>
				<g>
					<g>
						<g>
							<path class="st4" d="M48.5,39.8c0,0.4,0.1,1.1-0.3,1.7c0,0,0,0,0,0c-2.9,3.5-4.3,4.1-7.5,5.6c-2.1,0.8-3.4,1.4-5.7,1.6
								c-0.3,0-1.1-0.2-1.3-0.4c-0.4-0.4-0.5-1.8,0.3-1.9c1.9-0.3,3.9-0.7,6.1-1.6c0-0.1,0-0.1,0-0.2c-0.7-0.6-1-0.9-1.8-1.5
								c0,0,0,0,0,0c-1,0.5-1.9,0.8-3,1.2c-0.6,0.2-1.3-0.2-1.4-0.8l0,0c-0.2-0.6,0.2-1.3,0.8-1.4c2.8-0.6,4.2-1.4,5.8-3.3
								c0.1-0.1,0-0.2-0.1-0.2c-2,1.2-3.5,1.5-6.1,2.2c-0.7,0.2-1.4-0.2-1.6-0.8v0c-0.3-0.6,0.1-1.3,0.7-1.4
								c1.4-0.3,4.1-1.4,4.2-1.6c-0.6-0.5-0.9-0.8-1.6-1.2l0,0c-0.5,0.3-1,0.5-1.5,0.8c-0.6,0.3-1.2,0-1.5-0.6c0,0,0,0,0-0.1
								c-0.3-0.7,0-1.5,0.7-1.8c1.2-0.6,2.4-1.3,3.2-2c0.9-0.7,1.1-1.3,1.6-1.7c0.2-0.2,0.4-0.3,0.7-0.4c0.3-0.1,1.4,0,1.4,0
								c0.6,0,1,0.7,0.6,1.3c-0.1,0.1-0.2,0.2-0.2,0.3c0,0,0,0,0,0l3.1,0c0.1,0,0.2,0,0.3,0c0.9,0,1.6,0.1,1.9,0.6c0,0,0,0,0,0
								c0,0,0.1,0.3,0.2,0.4c0.2,0.7-0.3,1.3-0.5,1.6c-1,1.2-1.8,1.9-3.3,3c0,0,0,0,0,0l0.7,0.2c0.8,0.2,1.1,1.2,0.5,1.8h0
								c0,0,0,0,0,0h2.5c0.5,0,0.3,0,0.9,0C48,39,48.5,39.4,48.5,39.8z M38.6,33.6c-0.3,0.3-0.4,0.3-0.6,0.5c0,0,0,0,0,0
								c0.8,0.5,1.3,0.9,1.9,1.3h0c1.1-0.6,1.5-1,2.5-1.9c0,0,0,0,0,0L38.6,33.6C38.6,33.6,38.6,33.6,38.6,33.6z M41.6,41
								c-0.3,0.3-0.5,0.4-0.9,0.6c0,0,0,0,0,0c0.8,0.5,1.3,1,1.9,1.5h0c1-0.6,1.5-1.1,2.5-2.2c0,0,0,0,0,0L41.6,41
								C41.6,41,41.6,41,41.6,41z"/>
							<path class="st4" d="M27.6,30c-0.1,0.2-0.1,0.5-0.2,0.8c-0.1,0.5,0,1.2,0.5,1.2l1.2,0h0c1,0,2,0.5,1.8,1.5
								c-0.1,0.4-0.2,0.7-0.6,1.5c-0.6,1-1,1.6-1.6,2.4c0.6,0.3,1.1,0.6,1.9,0.9c0.4,0.1,0.4,0.5,0.3,0.8c-0.1,0.3-0.4,1.2-0.8,1.5
								c-0.3,0.3-0.9,0.3-1.1,0.1c-0.7-0.7-1.2-1.5-1.9-1.5c-0.9,0-1.5,1.1-2.3,1.5c-0.3,0.2-0.8,0-1-0.3c-0.5-0.7-0.5-0.8-0.9-1.3
								c0,0,0,0,0,0c-0.1,0.9-0.5,1.3-1.3,1.5l1.9,0c0,0.5,0,0.5,0,1.1c0.1,0,4.1,0,4.1,0c0.1,0,0.3,0,0.4,0c0.7,0,1.3,0.6,1.4,1.3
								c0,0,0-0.1,0,0v2.4c0,1.1-0.2,1.5-0.7,1.9c-0.4,0.3-2.5,0.4-3.1,0.3c-0.4-0.1-0.3-0.6-0.5-1.4c-0.1-0.4,0.2-0.7,0.5-0.7
								c0.4,0,0.5-0.1,0.8-0.1c0.5,0,0.6-0.1,0.6-0.6v-0.6h-3.4c0,0,0,0,0,0c0,0,0,1.6,0,2.8c0,0.8-0.7,1.5-1.5,1.5h-0.1
								c-0.8,0-1.5-0.7-1.5-1.5c0-1.3,0-2.9,0-2.9c0,0,0,0,0,0h-3.1c0,0,0,0,0,0c0,0,0,1.4,0,2.4c0,0.6-0.5,1.2-1.1,1.2H16
								c-0.7,0-1.2-0.5-1.2-1.2c0-1.8,0-4.9,0-4.9h0c0,0,0.9,0,1.7,0l4,0c0-0.4,0-0.8,0-1c0,0,0,0,0,0l0,0c-0.2,0-0.7-0.1-0.7-0.5
								c0-0.5,0-0.3,0-0.8c0-0.3,0.2-0.5,0.4-0.5c0,0,0,0,0,0c0.3,0,0.4-0.1,0.4-0.3l0-0.6L20.6,38c-0.3,0.2-0.8,0.1-1-0.3
								c-0.1-0.3-0.2-0.5-0.3-0.7v2.2c0,0.8,0,0.8,0,1.4l-2.1,0c0-0.7,0-0.5,0-1.4l0-1.6c-0.1,0.6-0.2,1-0.4,1.4
								c-0.1,0.4-0.6,0.6-1,0.3c-0.1,0-0.1-0.1-0.2-0.1v0.3c0,1.2-0.9,1.3-0.9,1.3h-0.2c-0.5,0-1-0.4-1-1c0-0.2,0-0.3,0-0.6v-4.6
								c0-0.1,0-0.3,0-0.4c0-0.5,0.6-0.9,1.1-0.9h0c0,0,0,0,0,0c-0.2-0.4-0.2-0.6-0.4-1c-0.3-0.8,0.1-1.6,0.9-1.6h0
								c0.3,0,0.6,0.1,1,0.4c0.5,0.7,0.3,0.4,0.7,1.1l0-0.8c0-0.1,0-0.4,0-0.6c0-0.5,0.2-0.9,0.7-0.9l1,0c0.5,0,0.6,0.5,0.6,1
								c0,0.2,0,0.4,0,0.6l0,0.7c0.7-1,0.7-1.2,1.5-1.7c0.2-0.1,0.8-0.1,0.8-0.1c0.4,0.1,0.9,0.6,0.7,1.2c-0.2,0.7-0.2,0.7-0.6,1.5
								c0.5,0,1.2,0.2,1.2,0.4c0.9-1.2,1.7-2.7,2-3.7 M17.2,32.3L16,33.2c0,0,0,0,0,0h1.2c0,0,0,0,0,0L17.2,32.3
								C17.2,32.3,17.2,32.3,17.2,32.3z M15.8,35.6v2.3c0,0,0,0,0,0c0.2-0.6,0.5-1.1,0.7-1.9c0,0,0,0,0,0c0.1,0.1,0.7,0.4,0.8,0.5
								c0,0,0,0,0,0v-0.9c0,0,0,0,0,0H16C16,35.6,15.8,35.6,15.8,35.6z M20.7,35.6h-1.3c0,0,0,0,0,0v0.8c0,0,0,0,0,0l0.7-0.5
								c0,0,0,0,0,0c0.2,0.3,0.2,0.3,0.6,1.2C20.7,36.9,20.8,35.8,20.7,35.6C20.7,35.6,20.7,35.6,20.7,35.6z M20.2,33.2h0.5
								l-1.3-0.9c0,0,0,0,0,0v0.8c0,0,0,0,0,0H20.2z M22.9,38.7c0.7-0.3,1.3-0.6,2-1.1c0,0,0,0,0,0c-0.3-0.4-1.7-2.1-2-2.5
								c0,0,0,0,0,0C22.9,35.5,22.9,38.4,22.9,38.7C22.9,38.7,22.9,38.7,22.9,38.7z M25.6,34.4L25.6,34.4c0.1,0.8,0.7,1.5,1.2,2
								c0,0,0,0,0,0c0.4-0.5,1-1.2,1.1-2c0,0,0,0,0,0L25.6,34.4z"/>
						</g>
						<path class="st5" d="M39.6,14.4c-0.8,0-1,0.1-1.4,0.9c0-0.9,0-1.1-0.8-1.4c0.8,0,1-0.1,1.4-0.9C38.8,13.8,38.9,14,39.6,14.4z"
							/>
					</g>
					<g>
						<g>
							<circle class="st6" cx="41.7" cy="18.3" r="6.8"/>
							<circle class="st7" cx="41.7" cy="18.3" r="5.8"/>
							<path class="st8" d="M47.4,17.8c-1.1,4.6-7.5,6.8-9.7,4.7c0,0,2.3,2.7,6.3,1.2C44.1,23.6,47.7,22.3,47.4,17.8z"/>
						</g>
						<path class="st6" d="M45.1,21.1L45.1,21.1l0.2-0.6l0,0l0.6-1.8c0.3-1-0.2-1.6-0.6-1.9c-0.1,0-0.1-0.1-0.2-0.1c0,0,0,0-0.1-0.1
							c0,0,0,0,0,0l0,0c-0.3-0.1-1-0.3-1.8,0.1c0,0-0.2-0.8-1.2-1c0,0-0.8-0.2-1.2,0.1c0,0,0-0.4-0.7-0.6l-0.5-0.1
							c0,0-0.3-0.1-0.6,0.4l-1.1,3.8c0,0-0.2,0.6,0.3,0.8l1,0.3c0,0,0.5,0.2,0.7-0.6l0.7-2.2c0,0,0,0,0-0.1c0,0,0,0,0,0
							c0.1-0.2,0.3-0.3,0.4-0.2c0,0,0.3,0.1,0.3,0.4l-0.5,1.6l-0.3,1c0,0-0.2,0.6,0.4,0.7l0.1,0l0.8,0.2c0,0,0.2,0.1,0.4-0.1
							c0.1-0.1,0.2-0.1,0.3-0.3l0.6-2l0.1-0.3c0,0,0-0.1,0-0.2c0,0,0,0,0,0c0.1-0.2,0.3-0.3,0.4-0.2c0.2,0.1,0.3,0.2,0.2,0.4l0,0
							l0,0.1l-0.2,0.7l-0.4,1.6l0,0.1c0,0,0,0.1,0,0.2l0,0c0,0,0,0.1,0,0.1c0,0.2,0.1,0.4,0.3,0.5l1,0.3c0,0,0.5,0.2,0.7-0.6
							L45.1,21.1C45.1,21.1,45.1,21.1,45.1,21.1z"/>
						<path class="st5" d="M39.7,14.3c-0.8,0-1,0.1-1.3,0.9c0-0.9,0-1.1-0.8-1.4c0.8,0,1-0.1,1.3-0.9C38.8,13.8,38.9,14,39.7,14.3z"
							/>
					</g>
				</g>
			</g>
			<g>
				<polygon class="st9" points="52.4,47.2 50.9,46.3 50.9,48.1 				"/>
				<polygon class="st10" points="49.3,47.2 49.3,47.2 50.9,48.1 50.9,46.3 				"/>
				<polygon class="st11" points="53.2,46.3 52.9,45.1 52.4,45.4 				"/>
				<polygon class="st12" points="52.4,47.2 52,48.3 52.9,47.4 				"/>
				<polygon class="st13" points="52.9,47.4 53.2,46.3 52.4,47.2 				"/>
				<polygon class="st7" points="50.9,44.5 49.3,45.4 50.9,46.3 				"/>
				<polygon class="st10" points="52.4,47.2 52.4,45.4 50.9,46.3 				"/>
				<polygon class="st8" points="49.3,45.4 49.3,47.2 50.9,46.3 				"/>
				<polygon class="st14" points="50.9,48.6 52,48.3 50.9,48.1 				"/>
				<polygon class="st15" points="52.4,45.4 52.9,45.1 52,44.3 				"/>
				<polygon class="st8" points="52.4,45.4 52.4,45.4 50.9,44.5 50.9,46.3 				"/>
				<polygon class="st15" points="48.9,45.1 48.6,46.3 49.3,45.4 				"/>
				<polygon class="st16" points="50.9,48.1 49.7,48.3 50.9,48.6 				"/>
				<polygon class="st6" points="49.3,45.4 49.7,44.3 48.9,45.1 				"/>
				<polygon class="st6" points="50.9,43.9 49.7,44.3 50.9,44.5 				"/>
				<polygon class="st15" points="48.6,46.3 48.9,47.4 49.3,47.2 				"/>
				<polygon class="st17" points="49.3,47.2 48.9,47.4 49.7,48.3 				"/>
				<polygon class="st15" points="52,44.3 50.9,43.9 50.9,44.5 				"/>
				<polygon class="st13" points="50.9,48.1 52,48.3 52.4,47.2 				"/>
				<polygon class="st18" points="49.3,47.2 49.7,48.3 50.9,48.1 				"/>
				<polygon class="st19" points="52.4,45.4 52,44.3 50.9,44.5 				"/>
				<polygon class="st20" points="52.4,45.4 52.4,47.2 53.2,46.3 				"/>
				<polygon class="st15" points="50.9,44.5 49.7,44.3 49.3,45.4 				"/>
				<polygon class="st19" points="49.3,47.2 49.3,45.4 48.6,46.3 				"/>
			</g>
		</g>
	</g>
	<g>
		
			<linearGradient id="SVGID_00000059296082356615053660000008815666612792588455_" gradientUnits="userSpaceOnUse" x1="23.0222" y1="15.1377" x2="35.1716" y2="20.4278">
			<stop  offset="0.3464" style="stop-color:#E40080"/>
			<stop  offset="0.4566" style="stop-color:#DD017E"/>
			<stop  offset="0.6115" style="stop-color:#CB047A"/>
			<stop  offset="0.7926" style="stop-color:#AD0873"/>
			<stop  offset="0.9924" style="stop-color:#840F69"/>
			<stop  offset="1" style="stop-color:#820F69"/>
		</linearGradient>
		<path style="fill:url(#SVGID_00000059296082356615053660000008815666612792588455_);" d="M34.4,15.5c0,0-1.3-3.1-4.3-3.6
			c0,0-2.6-0.7-5,1c0,0-0.3,0.2-0.7,0.6c0,0,0.5,0.6,1.1,1.5c0.4,0.8,0.8,1.8,0.9,3c0,0,0.2-2.2,2.3-2.3c0,0,1.4,0,2.1,1.1
			c0,0,0.4,0.5,0.4,1.6v6.7H35v-2.7c0,0-0.9-1.5-1.1-3.3C33.9,19.2,33.6,17.4,34.4,15.5z"/>
		
			<linearGradient id="SVGID_00000005980944488485430470000010321211667688298654_" gradientUnits="userSpaceOnUse" x1="10.6633" y1="16.597" x2="28.2803" y2="21.3957">
			<stop  offset="0.3464" style="stop-color:#E40080"/>
			<stop  offset="0.4566" style="stop-color:#DD017E"/>
			<stop  offset="0.6115" style="stop-color:#CB047A"/>
			<stop  offset="0.7926" style="stop-color:#AD0873"/>
			<stop  offset="0.9924" style="stop-color:#840F69"/>
			<stop  offset="1" style="stop-color:#820F69"/>
		</linearGradient>
		<path style="fill:url(#SVGID_00000005980944488485430470000010321211667688298654_);" d="M17.3,12.4c0,0-0.5-0.8-1.6-0.8
			c0,0-1.2,0-1.7,1.2c0,0-0.2,0.2-0.1,1.2v4.7v6.4h3.9v-4.3v-2.7c0,0,0-1.7,1.7-2.3c0,0,1.3-0.5,2.4,0.6c0,0,0.9,0.7,0.7,2.2v4.6
			v1.9h3.9v-4.5v-2.5c0,0,0-1.4-0.4-2.3c0,0-0.5-1.7-1.9-2.8c0,0-1.8-1.7-4.6-1.4C19.4,11.7,18.4,11.8,17.3,12.4z"/>
	</g>
</g>
</svg>
