<?xml version="1.0" encoding="utf-8"?>
<!-- Generator: Adobe Illustrator 23.1.0, SVG Export Plug-In . SVG Version: 6.00 Build 0)  -->
<svg version="1.1" id="圖層_1" xmlns="http://www.w3.org/2000/svg" xmlns:xlink="http://www.w3.org/1999/xlink" x="0px" y="0px"
	 viewBox="0 0 65 65" style="enable-background:new 0 0 65 65;" xml:space="preserve">
<style type="text/css">
	.st0{fill-rule:evenodd;clip-rule:evenodd;fill:#FF6700;}
	.st1{fill:#231815;}
	.st2{fill-rule:evenodd;clip-rule:evenodd;fill:#231815;}
</style>
<title>pay</title>
<desc>Created with Sketch.</desc>
<g id="pay">
	<g transform="translate(13.000000, 17.000000)">
		<g id="資產-9">
			<rect id="Rectangle" x="1" y="8" class="st0" width="37" height="5.9"/>
			<path id="Shape" class="st1" d="M19.6,30.1H4.5l-0.7-0.3l-3.5-3.5L0,25.6v-21l0.3-0.7l3.5-3.6L4.6,0h29.9l0.7,0.3l3.5,3.6L39,4.6
				c0,5.4-0.1,15.7-0.1,21.1l-0.3,0.7L35,29.9l-0.7,0.3H19.6z M5,28.1c7.1,0,21.9,0,28.9,0l3-2.9C36.9,19.9,37,10.3,37,5l-3-3H5L2,5
				v20.2L5,28.1z"/>
			<rect x="6" y="22.9" class="st2" width="4.5" height="2"/>
			<rect x="13.3" y="22.9" class="st2" width="15.6" height="2"/>
		</g>
	</g>
</g>
</svg>
