<?xml version="1.0" encoding="utf-8"?>
<!-- Generator: Adobe Illustrator 29.1.0, SVG Export Plug-In . SVG Version: 9.03 Build 55587)  -->
<!DOCTYPE svg PUBLIC "-//W3C//DTD SVG 1.1//EN" "http://www.w3.org/Graphics/SVG/1.1/DTD/svg11.dtd" [
	<!ENTITY st0 "fill:#FFFFFF;stroke:#231815;stroke-width:2;stroke-linecap:round;stroke-linejoin:round;">
	<!ENTITY st1 "fill:#EC6619;">
]>
<svg version="1.1" id="圖層_1" xmlns="http://www.w3.org/2000/svg" xmlns:xlink="http://www.w3.org/1999/xlink" x="0px" y="0px"
	 viewBox="0 0 65 65" style="enable-background:new 0 0 65 65;" xml:space="preserve">
<polygon style="&st0;" points="49.1,23 42.1,16 32.5,13.4 23,16 16,23 13.4,32.5 16,42.1 23,49.1 32.5,51.6 42.1,49.1 49.1,42.1 
	51.6,32.5 "/>
<path style="&st1;" d="M27.9,24.5h2.4l5.7,14h-3l-1-2.7h-5.8l-1,2.7h-3L27.9,24.5z M31.1,33.4l-1.5-3.8c-0.2-0.5-0.4-1.1-0.5-1.6
	c-0.1,0.5-0.3,1.1-0.5,1.6l-1.5,3.8H31.1z"/>
<path style="&st1;" d="M38,24.5h2.8v14H38V24.5z"/>
</svg>
