<?xml version="1.0" encoding="utf-8"?>
<!-- Generator: Adobe Illustrator 23.1.0, SVG Export Plug-In . SVG Version: 6.00 Build 0)  -->
<svg version="1.1" id="圖層_1" xmlns="http://www.w3.org/2000/svg" xmlns:xlink="http://www.w3.org/1999/xlink" x="0px" y="0px"
	 viewBox="0 0 128 128" style="enable-background:new 0 0 128 128;" xml:space="preserve">
<style type="text/css">
	.st0{fill:#D62C2E;}
	.st1{fill:#EC402E;}
	.st2{fill:#DE5398;}
	.st3{fill:#4A519F;}
	.st4{fill:#5E5CA5;}
	.st5{fill:#F58F31;}
	.st6{fill:#F06A2F;}
	.st7{fill:#064D59;}
	.st8{fill:#FCBA31;}
	.st9{fill:#0F897A;}
	.st10{fill:#FCD630;}
	.st11{fill:#59C0AB;}
	.st12{fill:#0CAA7E;}
	.st13{fill:#F79B31;}
	.st14{fill:#CF2875;}
</style>
<title>twm-logo</title>
<g>
	<polygon class="st0" points="107,88.8 64,64 64,113.7 	"/>
	<polygon class="st1" points="21,88.8 21,88.8 64,113.7 64,64 	"/>
	<polygon class="st2" points="128,64 119.4,32 107,39.2 	"/>
	<polygon class="st3" points="107,88.8 96,119.4 119.4,96 	"/>
	<polygon class="st4" points="119.4,96 128,64 107,88.8 	"/>
	<polygon class="st5" points="64,14.4 21,39.2 64,64 	"/>
	<polygon class="st1" points="107,88.8 107,39.2 64,64 	"/>
	<polygon class="st6" points="21,39.2 21,88.8 64,64 	"/>
	<polygon class="st7" points="64,128 96,119.4 64,113.7 	"/>
	<polygon class="st8" points="107,39.2 119.4,32 96,8.6 	"/>
	<polygon class="st6" points="107,39.2 107,39.2 64,14.4 64,64 	"/>
	<polygon class="st8" points="8.6,32 0,64 21,39.2 	"/>
	<polygon class="st9" points="64,113.7 32,119.4 64,128 	"/>
	<polygon class="st10" points="21,39.2 32,8.6 8.6,32 	"/>
	<polygon class="st10" points="64,0 32,8.6 64,14.3 	"/>
	<polygon class="st8" points="0,64 8.6,96 21,88.8 	"/>
	<polygon class="st11" points="21,88.8 8.6,96 32,119.4 	"/>
	<polygon class="st8" points="96,8.6 64,0 64,14.4 	"/>
	<polygon class="st4" points="64,113.7 96,119.4 107,88.8 	"/>
	<polygon class="st12" points="21,88.8 32,119.4 64,113.7 	"/>
	<polygon class="st13" points="107,39.2 96,8.6 64,14.4 	"/>
	<polygon class="st14" points="107,39.2 107,88.8 128,64 	"/>
	<polygon class="st8" points="64,14.4 32,8.6 21,39.2 	"/>
	<polygon class="st13" points="21,88.8 21,39.2 0,64 	"/>
</g>
</svg>
