<svg id="圖層_1" data-name="圖層 1" xmlns="http://www.w3.org/2000/svg" viewBox="0 0 48 48"><defs><style>.cls-1{fill:#fff}</style></defs><title>icon-add-value-check</title><path class="cls-1" d="M13.28 20.21h1.9V19.1h2.14v1h2V7.42h-6zm1.9-11h2.14v8h-2.14zM9.12 5.64H7.19v2.79H5.26v1.86h1.87C7 13.81 6.52 17 4.83 19.18a5.11 5.11 0 0 1 1.5 1.36C8.23 18 8.83 14.32 9 10.28h1.57c-.19 5.3-.43 7.28-.78 7.75a.6.6 0 0 1-.56.3c-.29 0-.8 0-1.36-.06a5.19 5.19 0 0 1 .54 2 9 9 0 0 0 1.82-.08 1.69 1.69 0 0 0 1.23-.85c.56-.75.8-3.25 1-10v-.88H8.99c.11-.94.13-1.89.13-2.82zm26.8 7.88V12h-1c.18-.75.4-1.71.62-2.59l-1.38-.31h1.55V7.56H34.3a16.84 16.84 0 0 0-.85-1.9l-1.54.48c.21.43.42.94.61 1.42H31V9.1h3a28.49 28.49 0 0 1-.43 2.9H32l1.09-.32a8.94 8.94 0 0 0-.5-2.53l-1.22.34a9 9 0 0 1 .4 2.51H31v1.54h1.62v1.6h-1.36v1.54h1.33v3.87h1.71v-3.89h1.4v-1.54h-1.4v-1.6zm-7.6-7.94h-1.46V9.1h-.72v1.63h.67c-.14 3.65-.62 6.67-2 8.74A10.22 10.22 0 0 1 26 20.54c1.49-2.45 2-5.75 2.18-9.81h.64c-.06 5.51-.14 7.38-.38 7.78a.41.41 0 0 1-.42.29 7.27 7.27 0 0 1-.93 0 3.85 3.85 0 0 1 .4 1.55 6.82 6.82 0 0 0 1.36-.08 1.21 1.21 0 0 0 .94-.67c.38-.64.45-2.95.54-9.72v-.74h-2.05c.02-1.14.04-2.34.04-3.56zm-2.82 9.28h-1.3V13.5h1.58V12h-1.05c.22-.75.48-1.7.72-2.56l-1.33-.29h1.65V7.58h-1.31a14.86 14.86 0 0 0-.8-1.81l-1.57.46a13.06 13.06 0 0 1 .56 1.34h-1.54v1.55H24a29 29 0 0 1-.55 2.88h-1.34l1-.27a8.22 8.22 0 0 0-.46-2.51l-1.23.34a9.15 9.15 0 0 1 .35 2.44H21v1.5h1.52v1.36h-1.29v1.54h1.28a3.81 3.81 0 0 1-1.46 3 6.43 6.43 0 0 1 1.1 1.2 5.77 5.77 0 0 0 2-4.18h1.35zm2.81 12.28l-1.74-1.74-8.71 8.7-5.23-5.22-1.74 1.74 5.23 5.22 1.74 1.75 1.74-1.75 8.71-8.7z"/></svg>