<svg xmlns="http://www.w3.org/2000/svg" preserveAspectRatio="xMidYMid" width="25" height="25" viewBox="0 0 25 25"><defs><style>.cls-1{fill:#f28100;fill-rule:evenodd}.cls-2{stroke:#bfbfbf;stroke-linecap:round;stroke-width:1px;fill:none}</style></defs><path d="M12.189 19.371c2.43 0 4.429-1.405 4.429-3.799 0-1.783-1.206-2.935-2.737-3.313v-.09c1.405-.523 2.287-1.585 2.287-3.115 0-2.197-1.675-3.421-4.051-3.421-1.531 0-2.755.666-3.799 1.602l1.08 1.297c.756-.739 1.62-1.243 2.647-1.261 1.26.018 2.034.756 2.034 1.927 0 1.332-.864 2.322-3.475 2.322v1.531c2.989 0 3.925.954 3.925 2.431 0 1.368-1.026 2.196-2.52 2.196-1.369 0-2.359-.666-3.133-1.458l-1.009 1.332c.883.991 2.233 1.819 4.322 1.819z" class="cls-1"/><circle cx="12.5" cy="12.5" r="12" class="cls-2"/></svg>