<svg xmlns="http://www.w3.org/2000/svg" preserveAspectRatio="xMidYMid" width="25" height="25" viewBox="0 0 25 25"><defs><style>.cls-1{fill:#f28100;fill-rule:evenodd}.cls-2{stroke:#bfbfbf;stroke-linecap:round;stroke-width:1px;fill:none}</style></defs><path d="M12.189 19.371c2.322 0 4.465-1.657 4.465-4.592 0-2.898-1.818-4.213-4.033-4.213-.72 0-1.261.18-1.819.468l.306-3.403h4.916V5.885H9.308l-.396 6.284 1.008.666c.774-.504 1.278-.756 2.125-.756 1.512 0 2.52 1.008 2.52 2.772 0 1.765-1.134 2.827-2.628 2.827-1.387 0-2.341-.666-3.097-1.422l-.991 1.35c.937.919 2.251 1.765 4.34 1.765z" class="cls-1"/><circle cx="12.5" cy="12.5" r="12" class="cls-2"/></svg>