<?xml version="1.0" encoding="UTF-8"?><svg xmlns="http://www.w3.org/2000/svg" xmlns:xlink="http://www.w3.org/1999/xlink" width="1440" height="500" viewBox="0 0 1440 500"><defs><linearGradient id="b" x1="0%" x2="126.121%" y1="54.871%" y2="59.127%"><stop offset="0%" stop-color="#FF6100"/><stop offset="61.696%" stop-color="#FF6100"/><stop offset="100%" stop-color="#FFA700"/></linearGradient><path id="a" d="M0 0h1440v498.104L0 500z"/></defs><g fill="none" fill-rule="evenodd" transform="translate(0 -1)"><mask id="c" fill="#fff"><use xlink:href="#a"/></mask><use fill="url(#b)" fill-rule="nonzero" transform="matrix(1 0 0 -1 0 500)" xlink:href="#a"/><path fill="#FFB20D" fill-rule="nonzero" d="M191.923 149.5L131.115 257 69.154 149.5h122.77zm-122.77 0L8.347 257l-61.961-107.5H69.154zM130.539 42L69.731 149.5 7.769 42h122.77zm122.77 0L192.5 149.5 130.538 42h122.77zM7.769 42l-60.807 107.5L-115 42H7.77zM69.154-65.5L8.346 42-53.615-65.5H69.154zM130.538-173L69.731-65.5 7.769-173h122.77zm61.385 107.5L131.115 42 69.154-65.5h122.77zm245.539 215L376.654 257l-61.962-107.5h122.77zm122.769 0L499.423 257l-61.961-107.5H560.23zm-245.539 0L253.885 257l-61.962-107.5h122.77zM376.077 42l-60.808 107.5L253.308 42h122.769zm122.77 0l-60.809 107.5L376.077 42h122.77zM314.691-65.5L253.885 42 191.923-65.5h122.77zm245.539 0L499.423 42 437.462-65.5H560.23zM376.077-173L315.269-65.5 253.308-173h122.769zm245.538 0L560.808-65.5 498.846-173h122.77zm-368.307 0L192.5-65.5 130.538-173h122.77zm245.538 0L438.038-65.5 376.077-173h122.77zM437.462-65.5L376.654 42 314.692-65.5h122.77zM683-65.5L622.192 42 560.231-65.5H683zm124.5 215L746.578 257 684.5 149.5h123zm-123 0L623.578 257 561.5 149.5h123zM746 42l-60.922 107.5L623 42h123zm123 0l-60.922 107.5L746 42h123zm-246 0l-60.922 107.5L500 42h123zm123-215L685.078-65.5 623-173h123zm61.5 107.5L746.578 42 684.5-65.5h123zm-245 645L501.578 687 439.5 579.5h123zm-123 0L378.578 687 316.5 579.5h123zM501 472l-60.922 107.5L378 472h123zm123 0l-60.922 107.5L501 472h123zm-246 0l-60.922 107.5L255 472h123zm123-215l-60.922 107.5L378 257h123zm61.5 107.5L501.578 472 439.5 364.5h123zm246 215L747.578 687 685.5 579.5h123zm-123 0L624.578 687 562.5 579.5h123zM747 472l-60.922 107.5L624 472h123zm123 0l-60.922 107.5L747 472h123zM685.5 364.5L624.578 472 562.5 364.5h123zM747 257l-60.922 107.5L624 257h123zm-123 0l-60.922 107.5L501 257h123zm184.5 107.5L747.578 472 685.5 364.5h123zm-861.577 215L-113.885 687l-61.961-107.5h122.77zm-122.77 0L-236.653 687l-61.961-107.5h122.769zm61.385-107.5l-60.807 107.5-61.962-107.5h122.77zm122.77 0L-52.5 579.5-114.462 472H8.308zm-245.539 0l-60.807 107.5L-360 472h122.77zm122.77-215l-60.808 107.5-61.962-107.5h122.77zm61.384 107.5L-113.885 472l-61.961-107.5h122.77zm245.539 215L131.654 687 69.692 579.5h122.77zm-122.77 0L8.885 687l-61.962-107.5h122.77zM131.077 472L70.269 579.5 8.308 472h122.769zm122.77 0l-60.809 107.5L131.077 472h122.77zM69.691 364.5L8.885 472l-61.962-107.5h122.77zm245.539 0L254.423 472l-61.961-107.5H315.23zm122.769 0L377.192 472l-61.961-107.5H438zM131.077 257L70.269 364.5 8.308 257h122.769zm122.77 0l-60.809 107.5L131.077 257h122.77zm122.768 0l-60.807 107.5L253.846 257h122.77zM8.308 257L-52.5 364.5-114.462 257H8.308zm184.154 107.5L131.654 472 69.692 364.5h122.77z" mask="url(#c)" fill-opacity=".197" style="mix-blend-mode:lighten" transform="matrix(1 0 0 -1 0 514)"/><path fill="#FFB20D" fill-rule="nonzero" d="M869.817 257.483l-.01.017-.278-.483L808.731 364.5 746.769 257h122.75l-61.673-107H1052.77l-60.526 107h.064L931.5 364.5l-61.683-107.017zm.274-.483h121.582l-61.362-106.461L870.09 257zm305.832-107.5L1115.115 257l-61.961-107.5h122.77zM1114.538 42l-60.807 107.5L991.769 42h122.77zm122.77 0L1176.5 149.5 1114.538 42h122.77zm-245.539 0l-60.807 107.5L869 42h122.77zm61.385-107.5L992.346 42 930.385-65.5h122.769zm61.384-107.5l-60.807 107.5L991.769-173h122.77zm61.385 107.5L1115.115 42l-61.961-107.5h122.77zm245.539 215L1360.654 257l-61.962-107.5h122.77zm122.769 0L1483.423 257l-61.961-107.5h122.769zm-245.539 0L1237.885 257l-61.962-107.5h122.77zM1360.077 42l-60.808 107.5L1237.308 42h122.769zm122.77 0l-60.809 107.5L1360.077 42h122.77zM1298.691-65.5L1237.885 42l-61.962-107.5h122.77zm245.539 0L1483.423 42l-61.961-107.5h122.769zM1360.077-173l-60.808 107.5-61.961-107.5h122.769zm245.538 0l-60.807 107.5-61.962-107.5h122.77zm-368.307 0L1176.5-65.5 1114.538-173h122.77zm245.538 0l-60.808 107.5-61.961-107.5h122.77zm-61.384 107.5L1360.654 42l-61.962-107.5h122.77zm245.538 0L1606.192 42l-61.961-107.5H1667zm124.5 215L1730.578 257 1668.5 149.5h123zm-123 0L1607.578 257 1545.5 149.5h123zM1730 42l-60.922 107.5L1607 42h123zm123 0l-60.922 107.5L1730 42h123zm-246 0l-60.922 107.5L1484 42h123zm123-215l-60.922 107.5L1607-173h123zm61.5 107.5L1730.578 42 1668.5-65.5h123zm-245 645L1485.578 687 1423.5 579.5h123zm-123 0L1362.578 687 1300.5 579.5h123zM1485 472l-60.922 107.5L1362 472h123zm123 0l-60.922 107.5L1485 472h123zm-246 0l-60.922 107.5L1239 472h123zm123-215l-60.922 107.5L1362 257h123zm61.5 107.5L1485.578 472 1423.5 364.5h123zm246 215L1731.578 687 1669.5 579.5h123zm-123 0L1608.578 687 1546.5 579.5h123zM1731 472l-60.922 107.5L1608 472h123zm123 0l-60.922 107.5L1731 472h123zm-184.5-107.5L1608.578 472 1546.5 364.5h123zM1731 257l-60.922 107.5L1608 257h123zm-123 0l-60.922 107.5L1485 257h123zm184.5 107.5L1731.578 472 1669.5 364.5h123zm-861.577 215L870.115 687l-61.961-107.5h122.77zm-122.77 0L747.347 687l-61.961-107.5h122.769zM869.539 472l-60.807 107.5L746.769 472h122.77zm122.77 0L931.5 579.5 869.538 472h122.77zm-245.539 0l-60.807 107.5L624 472h122.77zm184.154-107.5L870.115 472l-61.961-107.5h122.77zm245.539 215L1115.654 687l-61.962-107.5h122.77zm-122.77 0L992.885 687l-61.962-107.5h122.77zm61.385-107.5l-60.808 107.5L992.308 472h122.769zm122.77 0l-60.809 107.5-61.961-107.5h122.77zm-184.155-107.5L992.885 472l-61.962-107.5h122.77zm245.539 0L1238.423 472l-61.961-107.5h122.769zm122.769 0L1361.192 472l-61.961-107.5H1422zM1115.077 257l-60.808 107.5L992.308 257h122.769zm122.77 0l-60.809 107.5-61.961-107.5h122.77zm122.768 0l-60.807 107.5-61.962-107.5h122.77zm-184.153 107.5L1115.654 472l-61.962-107.5h122.77z" mask="url(#c)" fill-opacity=".197" style="mix-blend-mode:lighten" transform="matrix(1 0 0 -1 0 514)"/></g></svg>