<svg width="240" height="60" viewBox="0 0 240 60" xmlns="http://www.w3.org/2000/svg" xmlns:xlink="http://www.w3.org/1999/xlink"><defs><path id="a" d="M0 0h204.692l35 60H0z"/></defs><g fill="none" fill-rule="evenodd"><mask id="b" fill="#fff"><use xlink:href="#a"/></mask><use fill="#FF6100" fill-rule="nonzero" xlink:href="#a"/><path d="M161.505-1.13L139.216 38 116-2h91l-22.784 40-22.711-39.13zM207 78l-22.784 40L161 78h46zm-46 0l-22.784 40L115 78h46zm24-40l-22.784 40L139 38h46zm46 0l-22.784 40L185 38h46zm-92 0l-22.784 40L93 38h46zm46-80L162.216-2 139-42h46z" fill="#FFA700" fill-rule="nonzero" style="mix-blend-mode:overlay" fill-opacity=".398" mask="url(#b)"/></g></svg>