<svg width="228" height="175" viewBox="0 0 228 175" xmlns="http://www.w3.org/2000/svg"><defs><radialGradient cx="6.712%" cy="154.012%" fx="6.712%" fy="154.012%" r="51.764%" gradientTransform="matrix(.90814 0 0 1 .006 0)" id="a"><stop stop-color="#FFF000" offset="0%"/><stop stop-color="#FFA700" offset="100%"/></radialGradient><radialGradient cx="6.712%" cy="154.012%" fx="6.712%" fy="154.012%" r="53.057%" gradientTransform="matrix(.88601 0 0 1 .008 0)" id="b"><stop stop-color="#FFF000" offset="0%"/><stop stop-color="#FFA700" offset="100%"/></radialGradient></defs><g fill-rule="nonzero" fill="none"><path d="M2 0h221v41.85H2z"/><g transform="translate(77.824 22.075)" fill="url(#a)"><path d="M9.584 5.363L7.607 8.987 5.593 5.363zM9.584 16.088l-1.977 3.625-2.014-3.625zM12.42 0l-1.976 3.624L8.43 0zM12.42 10.726l-1.976 3.624-2.014-3.624zM6.828 0L4.85 3.624 2.837 0zM6.828 10.726L4.85 14.35l-2.014-3.624zM3.99 5.363L2.015 8.987 0 5.363zM3.99 16.088l-1.976 3.625L0 16.088z"/><g><path d="M22.067 5.363L20.09 8.987l-2.014-3.624zM22.067 16.088l-1.977 3.625-2.014-3.625zM24.904 0l-1.976 3.624L20.914 0zM24.904 10.726l-1.976 3.624-2.014-3.624zM19.311 0l-1.977 3.624L15.32 0zM19.311 10.726l-1.977 3.624-2.014-3.624zM16.474 5.363l-1.977 3.624-2.014-3.624zM16.474 16.088l-1.977 3.625-2.014-3.625z"/></g><g><path d="M34.55 5.363l-1.976 3.624-2.014-3.624zM34.55 16.088l-1.976 3.625-2.014-3.625zM37.387 0l-1.976 3.624L33.397 0zM37.387 10.726l-1.976 3.624-2.014-3.624zM31.794 0l-1.976 3.624L27.804 0zM31.794 10.726l-1.976 3.624-2.014-3.624zM28.957 5.363l-1.976 3.624-2.014-3.624zM28.957 16.088l-1.976 3.625-2.014-3.625z"/><g><path d="M47.034 5.363l-1.977 3.624-2.014-3.624zM47.034 16.088l-1.977 3.625-2.014-3.625zM49.87 0l-1.976 3.624L45.88 0zM49.87 10.726l-1.976 3.624-2.014-3.624zM44.278 0L42.3 3.624 40.287 0zM44.278 10.726L42.3 14.35l-2.014-3.624zM41.44 5.363l-1.976 3.624-2.014-3.624zM41.44 16.088l-1.976 3.625-2.014-3.625z"/></g></g></g><g transform="translate(127.757 22.075)" fill="url(#a)"><path d="M9.584 5.363L7.607 8.987 5.593 5.363zM9.584 16.088l-1.977 3.625-2.014-3.625zM12.42 0l-1.976 3.624L8.43 0zM12.42 10.726l-1.976 3.624-2.014-3.624zM6.828 0L4.85 3.624 2.837 0zM6.828 10.726L4.85 14.35l-2.014-3.624zM3.99 5.363L2.015 8.987 0 5.363zM3.99 16.088l-1.976 3.625L0 16.088z"/><g><path d="M22.067 5.363L20.09 8.987l-2.014-3.624zM22.067 16.088l-1.977 3.625-2.014-3.625zM24.904 0l-1.976 3.624L20.914 0zM24.904 10.726l-1.976 3.624-2.014-3.624zM19.311 0l-1.977 3.624L15.32 0zM19.311 10.726l-1.977 3.624-2.014-3.624zM16.474 5.363l-1.977 3.624-2.014-3.624zM16.474 16.088l-1.977 3.625-2.014-3.625z"/></g><g><path d="M34.55 5.363l-1.976 3.624-2.014-3.624zM34.55 16.088l-1.976 3.625-2.014-3.625zM37.387 0l-1.976 3.624L33.397 0zM37.387 10.726l-1.976 3.624-2.014-3.624zM31.794 0l-1.976 3.624L27.804 0zM31.794 10.726l-1.976 3.624-2.014-3.624zM28.957 5.363l-1.976 3.624-2.014-3.624zM28.957 16.088l-1.976 3.625-2.014-3.625z"/><g><path d="M47.034 5.363l-1.977 3.624-2.014-3.624zM47.034 16.088l-1.977 3.625-2.014-3.625zM49.87 0l-1.976 3.624L45.88 0zM49.87 10.726l-1.976 3.624-2.014-3.624zM44.278 0L42.3 3.624 40.287 0zM44.278 10.726L42.3 14.35l-2.014-3.624zM41.44 5.363l-1.976 3.624-2.014-3.624zM41.44 16.088l-1.976 3.625-2.014-3.625z"/></g></g></g><g transform="translate(177.69 22.075)" fill="url(#a)"><path d="M9.584 5.363L7.607 8.987 5.593 5.363zM9.584 16.088l-1.977 3.625-2.014-3.625zM12.42 0l-1.976 3.624L8.43 0zM12.42 10.726l-1.976 3.624-2.014-3.624zM6.828 0L4.85 3.624 2.837 0zM6.828 10.726L4.85 14.35l-2.014-3.624zM3.99 5.363L2.015 8.987 0 5.363zM3.99 16.088l-1.976 3.625L0 16.088z"/><g><path d="M22.067 5.363L20.09 8.987l-2.014-3.624zM22.067 16.088l-1.977 3.625-2.014-3.625zM24.904 0l-1.976 3.624L20.914 0zM24.904 10.726l-1.976 3.624-2.014-3.624zM19.311 0l-1.977 3.624L15.32 0zM19.311 10.726l-1.977 3.624-2.014-3.624zM16.474 5.363l-1.977 3.624-2.014-3.624zM16.474 16.088l-1.977 3.625-2.014-3.625z"/></g><g><path d="M34.55 5.363l-1.976 3.624-2.014-3.624zM34.55 16.088l-1.976 3.625-2.014-3.625zM37.387 0l-1.976 3.624L33.397 0zM37.387 10.726l-1.976 3.624-2.014-3.624zM31.794 0l-1.976 3.624L27.804 0zM31.794 10.726l-1.976 3.624-2.014-3.624zM28.957 5.363l-1.976 3.624-2.014-3.624zM28.957 16.088l-1.976 3.625-2.014-3.625z"/><g><path d="M47.034 5.363l-1.977 3.624-2.014-3.624zM47.034 16.088l-1.977 3.625-2.014-3.625zM49.87 0l-1.976 3.624L45.88 0zM49.87 10.726l-1.976 3.624-2.014-3.624zM44.278 0L42.3 3.624 40.287 0zM44.278 10.726L42.3 14.35l-2.014-3.624zM41.44 5.363l-1.976 3.624-2.014-3.624zM41.44 16.088l-1.976 3.625-2.014-3.625z"/></g></g></g><g fill="url(#b)" transform="translate(.15 22.075)"><path d="M64.16 5.363l-2.025 3.624-2.065-3.624zM46.962 5.363l-2.026 3.624-2.064-3.624zM64.16 16.088l-2.025 3.625-2.065-3.625zM58.428 16.088l-2.026 3.625-2.064-3.625zM46.962 16.088l-2.026 3.625-2.064-3.625zM75.626 5.363L73.6 8.987l-2.064-3.624zM75.626 16.088L73.6 19.713l-2.064-3.625zM67.152 0l-2.026 3.624L63.06 0zM49.953 0l-2.026 3.624L45.863 0zM67.152 10.726l-2.026 3.624-2.065-3.624zM49.953 10.726l-2.026 3.624-2.064-3.624zM78.534 0l-2.026 3.624L74.444 0zM78.534 10.726l-2.026 3.624-2.064-3.624zM61.419 0l-2.026 3.624L57.329 0zM44.22 0l-2.026 3.624L40.13 0zM61.419 10.726l-2.026 3.624-2.064-3.624zM44.22 10.726l-2.026 3.624-2.064-3.624zM72.802 0l-2.026 3.624L68.71 0zM55.603 0l-2.026 3.624L51.513 0zM72.802 10.726l-2.026 3.624-2.065-3.624zM55.603 10.726l-2.026 3.624-2.064-3.624zM69.894 5.363l-2.026 3.624-2.065-3.624zM52.695 5.363l-2.026 3.624-2.064-3.624zM58.428 5.363l-2.026 3.624-2.064-3.624zM69.894 16.088l-2.026 3.625-2.065-3.625zM52.695 16.088l-2.026 3.625-2.064-3.625zM24.03 5.363l-2.025 3.624-2.065-3.624zM6.832 5.363L4.806 8.987 2.742 5.363zM24.03 16.088l-2.025 3.625-2.065-3.625zM18.298 16.088l-2.026 3.625-2.064-3.625zM6.832 16.088l-2.026 3.625-2.064-3.625zM35.496 5.363L33.47 8.987l-2.064-3.624zM41.645 5.363l-2.026 3.624-2.065-3.624zM41.645 16.088l-2.026 3.625-2.065-3.625zM35.496 16.088l-2.026 3.625-2.064-3.625zM27.022 0l-2.026 3.624L22.93 0zM9.823 0L7.797 3.624 5.733 0zM27.022 10.726l-2.026 3.624-2.065-3.624zM9.823 10.726L7.797 14.35l-2.064-3.624zM38.404 0l-2.026 3.624L34.314 0zM38.404 10.726l-2.026 3.624-2.064-3.624zM21.289 0l-2.026 3.624L17.199 0zM4.09 0L2.064 3.624 0 0zM21.289 10.726l-2.026 3.624-2.064-3.624zM4.09 10.726L2.064 14.35 0 10.726zM32.672 0l-2.026 3.624L28.58 0zM15.473 0l-2.026 3.624L11.383 0zM32.672 10.726l-2.026 3.624-2.065-3.624zM15.473 10.726l-2.026 3.624-2.064-3.624zM29.764 5.363l-2.026 3.624-2.065-3.624zM12.565 5.363l-2.026 3.624-2.064-3.624zM18.298 5.363l-2.026 3.624-2.064-3.624zM29.764 16.088l-2.026 3.625-2.065-3.625zM12.565 16.088l-2.026 3.625-2.064-3.625z"/></g><g><g transform="translate(77.824)" fill="url(#a)"><path d="M9.584 5.363L7.607 8.987 5.593 5.363zM9.584 16.088l-1.977 3.625-2.014-3.625zM12.42 0l-1.976 3.624L8.43 0zM12.42 10.726l-1.976 3.624-2.014-3.624zM6.828 0L4.85 3.624 2.837 0zM6.828 10.726L4.85 14.35l-2.014-3.624zM3.99 5.363L2.015 8.987 0 5.363zM3.99 16.088l-1.976 3.625L0 16.088z"/><g><path d="M22.067 5.363L20.09 8.987l-2.014-3.624zM22.067 16.088l-1.977 3.625-2.014-3.625zM24.904 0l-1.976 3.624L20.914 0zM24.904 10.726l-1.976 3.624-2.014-3.624zM19.311 0l-1.977 3.624L15.32 0zM19.311 10.726l-1.977 3.624-2.014-3.624zM16.474 5.363l-1.977 3.624-2.014-3.624zM16.474 16.088l-1.977 3.625-2.014-3.625z"/></g><g><path d="M34.55 5.363l-1.976 3.624-2.014-3.624zM34.55 16.088l-1.976 3.625-2.014-3.625zM37.387 0l-1.976 3.624L33.397 0zM37.387 10.726l-1.976 3.624-2.014-3.624zM31.794 0l-1.976 3.624L27.804 0zM31.794 10.726l-1.976 3.624-2.014-3.624zM28.957 5.363l-1.976 3.624-2.014-3.624zM28.957 16.088l-1.976 3.625-2.014-3.625z"/><g><path d="M47.034 5.363l-1.977 3.624-2.014-3.624zM47.034 16.088l-1.977 3.625-2.014-3.625zM49.87 0l-1.976 3.624L45.88 0zM49.87 10.726l-1.976 3.624-2.014-3.624zM44.278 0L42.3 3.624 40.287 0zM44.278 10.726L42.3 14.35l-2.014-3.624zM41.44 5.363l-1.976 3.624-2.014-3.624zM41.44 16.088l-1.976 3.625-2.014-3.625z"/></g></g></g><g transform="translate(127.757)" fill="url(#a)"><path d="M9.584 5.363L7.607 8.987 5.593 5.363zM9.584 16.088l-1.977 3.625-2.014-3.625zM12.42 0l-1.976 3.624L8.43 0zM12.42 10.726l-1.976 3.624-2.014-3.624zM6.828 0L4.85 3.624 2.837 0zM6.828 10.726L4.85 14.35l-2.014-3.624zM3.99 5.363L2.015 8.987 0 5.363zM3.99 16.088l-1.976 3.625L0 16.088z"/><g><path d="M22.067 5.363L20.09 8.987l-2.014-3.624zM22.067 16.088l-1.977 3.625-2.014-3.625zM24.904 0l-1.976 3.624L20.914 0zM24.904 10.726l-1.976 3.624-2.014-3.624zM19.311 0l-1.977 3.624L15.32 0zM19.311 10.726l-1.977 3.624-2.014-3.624zM16.474 5.363l-1.977 3.624-2.014-3.624zM16.474 16.088l-1.977 3.625-2.014-3.625z"/></g><g><path d="M34.55 5.363l-1.976 3.624-2.014-3.624zM34.55 16.088l-1.976 3.625-2.014-3.625zM37.387 0l-1.976 3.624L33.397 0zM37.387 10.726l-1.976 3.624-2.014-3.624zM31.794 0l-1.976 3.624L27.804 0zM31.794 10.726l-1.976 3.624-2.014-3.624zM28.957 5.363l-1.976 3.624-2.014-3.624zM28.957 16.088l-1.976 3.625-2.014-3.625z"/><g><path d="M47.034 5.363l-1.977 3.624-2.014-3.624zM47.034 16.088l-1.977 3.625-2.014-3.625zM49.87 0l-1.976 3.624L45.88 0zM49.87 10.726l-1.976 3.624-2.014-3.624zM44.278 0L42.3 3.624 40.287 0zM44.278 10.726L42.3 14.35l-2.014-3.624zM41.44 5.363l-1.976 3.624-2.014-3.624zM41.44 16.088l-1.976 3.625-2.014-3.625z"/></g></g></g><g transform="translate(177.69)" fill="url(#a)"><path d="M9.584 5.363L7.607 8.987 5.593 5.363zM9.584 16.088l-1.977 3.625-2.014-3.625zM12.42 0l-1.976 3.624L8.43 0zM12.42 10.726l-1.976 3.624-2.014-3.624zM6.828 0L4.85 3.624 2.837 0zM6.828 10.726L4.85 14.35l-2.014-3.624zM3.99 5.363L2.015 8.987 0 5.363zM3.99 16.088l-1.976 3.625L0 16.088z"/><g><path d="M22.067 5.363L20.09 8.987l-2.014-3.624zM22.067 16.088l-1.977 3.625-2.014-3.625zM24.904 0l-1.976 3.624L20.914 0zM24.904 10.726l-1.976 3.624-2.014-3.624zM19.311 0l-1.977 3.624L15.32 0zM19.311 10.726l-1.977 3.624-2.014-3.624zM16.474 5.363l-1.977 3.624-2.014-3.624zM16.474 16.088l-1.977 3.625-2.014-3.625z"/></g><g><path d="M34.55 5.363l-1.976 3.624-2.014-3.624zM34.55 16.088l-1.976 3.625-2.014-3.625zM37.387 0l-1.976 3.624L33.397 0zM37.387 10.726l-1.976 3.624-2.014-3.624zM31.794 0l-1.976 3.624L27.804 0zM31.794 10.726l-1.976 3.624-2.014-3.624zM28.957 5.363l-1.976 3.624-2.014-3.624zM28.957 16.088l-1.976 3.625-2.014-3.625z"/><g><path d="M47.034 5.363l-1.977 3.624-2.014-3.624zM47.034 16.088l-1.977 3.625-2.014-3.625zM49.87 0l-1.976 3.624L45.88 0zM49.87 10.726l-1.976 3.624-2.014-3.624zM44.278 0L42.3 3.624 40.287 0zM44.278 10.726L42.3 14.35l-2.014-3.624zM41.44 5.363l-1.976 3.624-2.014-3.624zM41.44 16.088l-1.976 3.625-2.014-3.625z"/></g></g></g><g fill="url(#b)" transform="translate(.15)"><path d="M64.16 5.363l-2.025 3.624-2.065-3.624zM46.962 5.363l-2.026 3.624-2.064-3.624zM64.16 16.088l-2.025 3.625-2.065-3.625zM58.428 16.088l-2.026 3.625-2.064-3.625zM46.962 16.088l-2.026 3.625-2.064-3.625zM75.626 5.363L73.6 8.987l-2.064-3.624zM75.626 16.088L73.6 19.713l-2.064-3.625zM67.152 0l-2.026 3.624L63.06 0zM49.953 0l-2.026 3.624L45.863 0zM67.152 10.726l-2.026 3.624-2.065-3.624zM49.953 10.726l-2.026 3.624-2.064-3.624zM78.534 0l-2.026 3.624L74.444 0zM78.534 10.726l-2.026 3.624-2.064-3.624zM61.419 0l-2.026 3.624L57.329 0zM44.22 0l-2.026 3.624L40.13 0zM61.419 10.726l-2.026 3.624-2.064-3.624zM44.22 10.726l-2.026 3.624-2.064-3.624zM72.802 0l-2.026 3.624L68.71 0zM55.603 0l-2.026 3.624L51.513 0zM72.802 10.726l-2.026 3.624-2.065-3.624zM55.603 10.726l-2.026 3.624-2.064-3.624zM69.894 5.363l-2.026 3.624-2.065-3.624zM52.695 5.363l-2.026 3.624-2.064-3.624zM58.428 5.363l-2.026 3.624-2.064-3.624zM69.894 16.088l-2.026 3.625-2.065-3.625zM52.695 16.088l-2.026 3.625-2.064-3.625zM24.03 5.363l-2.025 3.624-2.065-3.624zM6.832 5.363L4.806 8.987 2.742 5.363zM24.03 16.088l-2.025 3.625-2.065-3.625zM18.298 16.088l-2.026 3.625-2.064-3.625zM6.832 16.088l-2.026 3.625-2.064-3.625zM35.496 5.363L33.47 8.987l-2.064-3.624zM41.645 5.363l-2.026 3.624-2.065-3.624zM41.645 16.088l-2.026 3.625-2.065-3.625zM35.496 16.088l-2.026 3.625-2.064-3.625zM27.022 0l-2.026 3.624L22.93 0zM9.823 0L7.797 3.624 5.733 0zM27.022 10.726l-2.026 3.624-2.065-3.624zM9.823 10.726L7.797 14.35l-2.064-3.624zM38.404 0l-2.026 3.624L34.314 0zM38.404 10.726l-2.026 3.624-2.064-3.624zM21.289 0l-2.026 3.624L17.199 0zM4.09 0L2.064 3.624 0 0zM21.289 10.726l-2.026 3.624-2.064-3.624zM4.09 10.726L2.064 14.35 0 10.726zM32.672 0l-2.026 3.624L28.58 0zM15.473 0l-2.026 3.624L11.383 0zM32.672 10.726l-2.026 3.624-2.065-3.624zM15.473 10.726l-2.026 3.624-2.064-3.624zM29.764 5.363l-2.026 3.624-2.065-3.624zM12.565 5.363l-2.026 3.624-2.064-3.624zM18.298 5.363l-2.026 3.624-2.064-3.624zM29.764 16.088l-2.026 3.625-2.065-3.625zM12.565 16.088l-2.026 3.625-2.064-3.625z"/></g></g><g><path d="M2 44.15h221V86H2z"/><g transform="translate(77.824 66.225)" fill="url(#a)"><path d="M9.584 5.363L7.607 8.987 5.593 5.363zM9.584 16.088l-1.977 3.625-2.014-3.625zM12.42 0l-1.976 3.624L8.43 0zM12.42 10.726l-1.976 3.624-2.014-3.624zM6.828 0L4.85 3.624 2.837 0zM6.828 10.726L4.85 14.35l-2.014-3.624zM3.99 5.363L2.015 8.987 0 5.363zM3.99 16.088l-1.976 3.625L0 16.088z"/><g><path d="M22.067 5.363L20.09 8.987l-2.014-3.624zM22.067 16.088l-1.977 3.625-2.014-3.625zM24.904 0l-1.976 3.624L20.914 0zM24.904 10.726l-1.976 3.624-2.014-3.624zM19.311 0l-1.977 3.624L15.32 0zM19.311 10.726l-1.977 3.624-2.014-3.624zM16.474 5.363l-1.977 3.624-2.014-3.624zM16.474 16.088l-1.977 3.625-2.014-3.625z"/></g><g><path d="M34.55 5.363l-1.976 3.624-2.014-3.624zM34.55 16.088l-1.976 3.625-2.014-3.625zM37.387 0l-1.976 3.624L33.397 0zM37.387 10.726l-1.976 3.624-2.014-3.624zM31.794 0l-1.976 3.624L27.804 0zM31.794 10.726l-1.976 3.624-2.014-3.624zM28.957 5.363l-1.976 3.624-2.014-3.624zM28.957 16.088l-1.976 3.625-2.014-3.625z"/><g><path d="M47.034 5.363l-1.977 3.624-2.014-3.624zM47.034 16.088l-1.977 3.625-2.014-3.625zM49.87 0l-1.976 3.624L45.88 0zM49.87 10.726l-1.976 3.624-2.014-3.624zM44.278 0L42.3 3.624 40.287 0zM44.278 10.726L42.3 14.35l-2.014-3.624zM41.44 5.363l-1.976 3.624-2.014-3.624zM41.44 16.088l-1.976 3.625-2.014-3.625z"/></g></g></g><g transform="translate(127.757 66.225)" fill="url(#a)"><path d="M9.584 5.363L7.607 8.987 5.593 5.363zM9.584 16.088l-1.977 3.625-2.014-3.625zM12.42 0l-1.976 3.624L8.43 0zM12.42 10.726l-1.976 3.624-2.014-3.624zM6.828 0L4.85 3.624 2.837 0zM6.828 10.726L4.85 14.35l-2.014-3.624zM3.99 5.363L2.015 8.987 0 5.363zM3.99 16.088l-1.976 3.625L0 16.088z"/><g><path d="M22.067 5.363L20.09 8.987l-2.014-3.624zM22.067 16.088l-1.977 3.625-2.014-3.625zM24.904 0l-1.976 3.624L20.914 0zM24.904 10.726l-1.976 3.624-2.014-3.624zM19.311 0l-1.977 3.624L15.32 0zM19.311 10.726l-1.977 3.624-2.014-3.624zM16.474 5.363l-1.977 3.624-2.014-3.624zM16.474 16.088l-1.977 3.625-2.014-3.625z"/></g><g><path d="M34.55 5.363l-1.976 3.624-2.014-3.624zM34.55 16.088l-1.976 3.625-2.014-3.625zM37.387 0l-1.976 3.624L33.397 0zM37.387 10.726l-1.976 3.624-2.014-3.624zM31.794 0l-1.976 3.624L27.804 0zM31.794 10.726l-1.976 3.624-2.014-3.624zM28.957 5.363l-1.976 3.624-2.014-3.624zM28.957 16.088l-1.976 3.625-2.014-3.625z"/><g><path d="M47.034 5.363l-1.977 3.624-2.014-3.624zM47.034 16.088l-1.977 3.625-2.014-3.625zM49.87 0l-1.976 3.624L45.88 0zM49.87 10.726l-1.976 3.624-2.014-3.624zM44.278 0L42.3 3.624 40.287 0zM44.278 10.726L42.3 14.35l-2.014-3.624zM41.44 5.363l-1.976 3.624-2.014-3.624zM41.44 16.088l-1.976 3.625-2.014-3.625z"/></g></g></g><g transform="translate(177.69 66.225)" fill="url(#a)"><path d="M9.584 5.363L7.607 8.987 5.593 5.363zM9.584 16.088l-1.977 3.625-2.014-3.625zM12.42 0l-1.976 3.624L8.43 0zM12.42 10.726l-1.976 3.624-2.014-3.624zM6.828 0L4.85 3.624 2.837 0zM6.828 10.726L4.85 14.35l-2.014-3.624zM3.99 5.363L2.015 8.987 0 5.363zM3.99 16.088l-1.976 3.625L0 16.088z"/><g><path d="M22.067 5.363L20.09 8.987l-2.014-3.624zM22.067 16.088l-1.977 3.625-2.014-3.625zM24.904 0l-1.976 3.624L20.914 0zM24.904 10.726l-1.976 3.624-2.014-3.624zM19.311 0l-1.977 3.624L15.32 0zM19.311 10.726l-1.977 3.624-2.014-3.624zM16.474 5.363l-1.977 3.624-2.014-3.624zM16.474 16.088l-1.977 3.625-2.014-3.625z"/></g><g><path d="M34.55 5.363l-1.976 3.624-2.014-3.624zM34.55 16.088l-1.976 3.625-2.014-3.625zM37.387 0l-1.976 3.624L33.397 0zM37.387 10.726l-1.976 3.624-2.014-3.624zM31.794 0l-1.976 3.624L27.804 0zM31.794 10.726l-1.976 3.624-2.014-3.624zM28.957 5.363l-1.976 3.624-2.014-3.624zM28.957 16.088l-1.976 3.625-2.014-3.625z"/><g><path d="M47.034 5.363l-1.977 3.624-2.014-3.624zM47.034 16.088l-1.977 3.625-2.014-3.625zM49.87 0l-1.976 3.624L45.88 0zM49.87 10.726l-1.976 3.624-2.014-3.624zM44.278 0L42.3 3.624 40.287 0zM44.278 10.726L42.3 14.35l-2.014-3.624zM41.44 5.363l-1.976 3.624-2.014-3.624zM41.44 16.088l-1.976 3.625-2.014-3.625z"/></g></g></g><g fill="url(#b)" transform="translate(.15 66.225)"><path d="M64.16 5.363l-2.025 3.624-2.065-3.624zM46.962 5.363l-2.026 3.624-2.064-3.624zM64.16 16.088l-2.025 3.625-2.065-3.625zM58.428 16.088l-2.026 3.625-2.064-3.625zM46.962 16.088l-2.026 3.625-2.064-3.625zM75.626 5.363L73.6 8.987l-2.064-3.624zM75.626 16.088L73.6 19.713l-2.064-3.625zM67.152 0l-2.026 3.624L63.06 0zM49.953 0l-2.026 3.624L45.863 0zM67.152 10.726l-2.026 3.624-2.065-3.624zM49.953 10.726l-2.026 3.624-2.064-3.624zM78.534 0l-2.026 3.624L74.444 0zM78.534 10.726l-2.026 3.624-2.064-3.624zM61.419 0l-2.026 3.624L57.329 0zM44.22 0l-2.026 3.624L40.13 0zM61.419 10.726l-2.026 3.624-2.064-3.624zM44.22 10.726l-2.026 3.624-2.064-3.624zM72.802 0l-2.026 3.624L68.71 0zM55.603 0l-2.026 3.624L51.513 0zM72.802 10.726l-2.026 3.624-2.065-3.624zM55.603 10.726l-2.026 3.624-2.064-3.624zM69.894 5.363l-2.026 3.624-2.065-3.624zM52.695 5.363l-2.026 3.624-2.064-3.624zM58.428 5.363l-2.026 3.624-2.064-3.624zM69.894 16.088l-2.026 3.625-2.065-3.625zM52.695 16.088l-2.026 3.625-2.064-3.625zM24.03 5.363l-2.025 3.624-2.065-3.624zM6.832 5.363L4.806 8.987 2.742 5.363zM24.03 16.088l-2.025 3.625-2.065-3.625zM18.298 16.088l-2.026 3.625-2.064-3.625zM6.832 16.088l-2.026 3.625-2.064-3.625zM35.496 5.363L33.47 8.987l-2.064-3.624zM41.645 5.363l-2.026 3.624-2.065-3.624zM41.645 16.088l-2.026 3.625-2.065-3.625zM35.496 16.088l-2.026 3.625-2.064-3.625zM27.022 0l-2.026 3.624L22.93 0zM9.823 0L7.797 3.624 5.733 0zM27.022 10.726l-2.026 3.624-2.065-3.624zM9.823 10.726L7.797 14.35l-2.064-3.624zM38.404 0l-2.026 3.624L34.314 0zM38.404 10.726l-2.026 3.624-2.064-3.624zM21.289 0l-2.026 3.624L17.199 0zM4.09 0L2.064 3.624 0 0zM21.289 10.726l-2.026 3.624-2.064-3.624zM4.09 10.726L2.064 14.35 0 10.726zM32.672 0l-2.026 3.624L28.58 0zM15.473 0l-2.026 3.624L11.383 0zM32.672 10.726l-2.026 3.624-2.065-3.624zM15.473 10.726l-2.026 3.624-2.064-3.624zM29.764 5.363l-2.026 3.624-2.065-3.624zM12.565 5.363l-2.026 3.624-2.064-3.624zM18.298 5.363l-2.026 3.624-2.064-3.624zM29.764 16.088l-2.026 3.625-2.065-3.625zM12.565 16.088l-2.026 3.625-2.064-3.625z"/></g><g><g transform="translate(77.824 44.15)" fill="url(#a)"><path d="M9.584 5.363L7.607 8.987 5.593 5.363zM9.584 16.088l-1.977 3.625-2.014-3.625zM12.42 0l-1.976 3.624L8.43 0zM12.42 10.726l-1.976 3.624-2.014-3.624zM6.828 0L4.85 3.624 2.837 0zM6.828 10.726L4.85 14.35l-2.014-3.624zM3.99 5.363L2.015 8.987 0 5.363zM3.99 16.088l-1.976 3.625L0 16.088z"/><g><path d="M22.067 5.363L20.09 8.987l-2.014-3.624zM22.067 16.088l-1.977 3.625-2.014-3.625zM24.904 0l-1.976 3.624L20.914 0zM24.904 10.726l-1.976 3.624-2.014-3.624zM19.311 0l-1.977 3.624L15.32 0zM19.311 10.726l-1.977 3.624-2.014-3.624zM16.474 5.363l-1.977 3.624-2.014-3.624zM16.474 16.088l-1.977 3.625-2.014-3.625z"/></g><g><path d="M34.55 5.363l-1.976 3.624-2.014-3.624zM34.55 16.088l-1.976 3.625-2.014-3.625zM37.387 0l-1.976 3.624L33.397 0zM37.387 10.726l-1.976 3.624-2.014-3.624zM31.794 0l-1.976 3.624L27.804 0zM31.794 10.726l-1.976 3.624-2.014-3.624zM28.957 5.363l-1.976 3.624-2.014-3.624zM28.957 16.088l-1.976 3.625-2.014-3.625z"/><g><path d="M47.034 5.363l-1.977 3.624-2.014-3.624zM47.034 16.088l-1.977 3.625-2.014-3.625zM49.87 0l-1.976 3.624L45.88 0zM49.87 10.726l-1.976 3.624-2.014-3.624zM44.278 0L42.3 3.624 40.287 0zM44.278 10.726L42.3 14.35l-2.014-3.624zM41.44 5.363l-1.976 3.624-2.014-3.624zM41.44 16.088l-1.976 3.625-2.014-3.625z"/></g></g></g><g transform="translate(127.757 44.15)" fill="url(#a)"><path d="M9.584 5.363L7.607 8.987 5.593 5.363zM9.584 16.088l-1.977 3.625-2.014-3.625zM12.42 0l-1.976 3.624L8.43 0zM12.42 10.726l-1.976 3.624-2.014-3.624zM6.828 0L4.85 3.624 2.837 0zM6.828 10.726L4.85 14.35l-2.014-3.624zM3.99 5.363L2.015 8.987 0 5.363zM3.99 16.088l-1.976 3.625L0 16.088z"/><g><path d="M22.067 5.363L20.09 8.987l-2.014-3.624zM22.067 16.088l-1.977 3.625-2.014-3.625zM24.904 0l-1.976 3.624L20.914 0zM24.904 10.726l-1.976 3.624-2.014-3.624zM19.311 0l-1.977 3.624L15.32 0zM19.311 10.726l-1.977 3.624-2.014-3.624zM16.474 5.363l-1.977 3.624-2.014-3.624zM16.474 16.088l-1.977 3.625-2.014-3.625z"/></g><g><path d="M34.55 5.363l-1.976 3.624-2.014-3.624zM34.55 16.088l-1.976 3.625-2.014-3.625zM37.387 0l-1.976 3.624L33.397 0zM37.387 10.726l-1.976 3.624-2.014-3.624zM31.794 0l-1.976 3.624L27.804 0zM31.794 10.726l-1.976 3.624-2.014-3.624zM28.957 5.363l-1.976 3.624-2.014-3.624zM28.957 16.088l-1.976 3.625-2.014-3.625z"/><g><path d="M47.034 5.363l-1.977 3.624-2.014-3.624zM47.034 16.088l-1.977 3.625-2.014-3.625zM49.87 0l-1.976 3.624L45.88 0zM49.87 10.726l-1.976 3.624-2.014-3.624zM44.278 0L42.3 3.624 40.287 0zM44.278 10.726L42.3 14.35l-2.014-3.624zM41.44 5.363l-1.976 3.624-2.014-3.624zM41.44 16.088l-1.976 3.625-2.014-3.625z"/></g></g></g><g transform="translate(177.69 44.15)" fill="url(#a)"><path d="M9.584 5.363L7.607 8.987 5.593 5.363zM9.584 16.088l-1.977 3.625-2.014-3.625zM12.42 0l-1.976 3.624L8.43 0zM12.42 10.726l-1.976 3.624-2.014-3.624zM6.828 0L4.85 3.624 2.837 0zM6.828 10.726L4.85 14.35l-2.014-3.624zM3.99 5.363L2.015 8.987 0 5.363zM3.99 16.088l-1.976 3.625L0 16.088z"/><g><path d="M22.067 5.363L20.09 8.987l-2.014-3.624zM22.067 16.088l-1.977 3.625-2.014-3.625zM24.904 0l-1.976 3.624L20.914 0zM24.904 10.726l-1.976 3.624-2.014-3.624zM19.311 0l-1.977 3.624L15.32 0zM19.311 10.726l-1.977 3.624-2.014-3.624zM16.474 5.363l-1.977 3.624-2.014-3.624zM16.474 16.088l-1.977 3.625-2.014-3.625z"/></g><g><path d="M34.55 5.363l-1.976 3.624-2.014-3.624zM34.55 16.088l-1.976 3.625-2.014-3.625zM37.387 0l-1.976 3.624L33.397 0zM37.387 10.726l-1.976 3.624-2.014-3.624zM31.794 0l-1.976 3.624L27.804 0zM31.794 10.726l-1.976 3.624-2.014-3.624zM28.957 5.363l-1.976 3.624-2.014-3.624zM28.957 16.088l-1.976 3.625-2.014-3.625z"/><g><path d="M47.034 5.363l-1.977 3.624-2.014-3.624zM47.034 16.088l-1.977 3.625-2.014-3.625zM49.87 0l-1.976 3.624L45.88 0zM49.87 10.726l-1.976 3.624-2.014-3.624zM44.278 0L42.3 3.624 40.287 0zM44.278 10.726L42.3 14.35l-2.014-3.624zM41.44 5.363l-1.976 3.624-2.014-3.624zM41.44 16.088l-1.976 3.625-2.014-3.625z"/></g></g></g><g fill="url(#b)" transform="translate(.15 44.15)"><path d="M64.16 5.363l-2.025 3.624-2.065-3.624zM46.962 5.363l-2.026 3.624-2.064-3.624zM64.16 16.088l-2.025 3.625-2.065-3.625zM58.428 16.088l-2.026 3.625-2.064-3.625zM46.962 16.088l-2.026 3.625-2.064-3.625zM75.626 5.363L73.6 8.987l-2.064-3.624zM75.626 16.088L73.6 19.713l-2.064-3.625zM67.152 0l-2.026 3.624L63.06 0zM49.953 0l-2.026 3.624L45.863 0zM67.152 10.726l-2.026 3.624-2.065-3.624zM49.953 10.726l-2.026 3.624-2.064-3.624zM78.534 0l-2.026 3.624L74.444 0zM78.534 10.726l-2.026 3.624-2.064-3.624zM61.419 0l-2.026 3.624L57.329 0zM44.22 0l-2.026 3.624L40.13 0zM61.419 10.726l-2.026 3.624-2.064-3.624zM44.22 10.726l-2.026 3.624-2.064-3.624zM72.802 0l-2.026 3.624L68.71 0zM55.603 0l-2.026 3.624L51.513 0zM72.802 10.726l-2.026 3.624-2.065-3.624zM55.603 10.726l-2.026 3.624-2.064-3.624zM69.894 5.363l-2.026 3.624-2.065-3.624zM52.695 5.363l-2.026 3.624-2.064-3.624zM58.428 5.363l-2.026 3.624-2.064-3.624zM69.894 16.088l-2.026 3.625-2.065-3.625zM52.695 16.088l-2.026 3.625-2.064-3.625zM24.03 5.363l-2.025 3.624-2.065-3.624zM6.832 5.363L4.806 8.987 2.742 5.363zM24.03 16.088l-2.025 3.625-2.065-3.625zM18.298 16.088l-2.026 3.625-2.064-3.625zM6.832 16.088l-2.026 3.625-2.064-3.625zM35.496 5.363L33.47 8.987l-2.064-3.624zM41.645 5.363l-2.026 3.624-2.065-3.624zM41.645 16.088l-2.026 3.625-2.065-3.625zM35.496 16.088l-2.026 3.625-2.064-3.625zM27.022 0l-2.026 3.624L22.93 0zM9.823 0L7.797 3.624 5.733 0zM27.022 10.726l-2.026 3.624-2.065-3.624zM9.823 10.726L7.797 14.35l-2.064-3.624zM38.404 0l-2.026 3.624L34.314 0zM38.404 10.726l-2.026 3.624-2.064-3.624zM21.289 0l-2.026 3.624L17.199 0zM4.09 0L2.064 3.624 0 0zM21.289 10.726l-2.026 3.624-2.064-3.624zM4.09 10.726L2.064 14.35 0 10.726zM32.672 0l-2.026 3.624L28.58 0zM15.473 0l-2.026 3.624L11.383 0zM32.672 10.726l-2.026 3.624-2.065-3.624zM15.473 10.726l-2.026 3.624-2.064-3.624zM29.764 5.363l-2.026 3.624-2.065-3.624zM12.565 5.363l-2.026 3.624-2.064-3.624zM18.298 5.363l-2.026 3.624-2.064-3.624zM29.764 16.088l-2.026 3.625-2.065-3.625zM12.565 16.088l-2.026 3.625-2.064-3.625z"/></g></g></g><g><path d="M2 89h221v41.85H2z"/><g transform="translate(77.824 111.075)" fill="url(#a)"><path d="M9.584 5.363L7.607 8.987 5.593 5.363zM9.584 16.088l-1.977 3.625-2.014-3.625zM12.42 0l-1.976 3.624L8.43 0zM12.42 10.726l-1.976 3.624-2.014-3.624zM6.828 0L4.85 3.624 2.837 0zM6.828 10.726L4.85 14.35l-2.014-3.624zM3.99 5.363L2.015 8.987 0 5.363zM3.99 16.088l-1.976 3.625L0 16.088z"/><g><path d="M22.067 5.363L20.09 8.987l-2.014-3.624zM22.067 16.088l-1.977 3.625-2.014-3.625zM24.904 0l-1.976 3.624L20.914 0zM24.904 10.726l-1.976 3.624-2.014-3.624zM19.311 0l-1.977 3.624L15.32 0zM19.311 10.726l-1.977 3.624-2.014-3.624zM16.474 5.363l-1.977 3.624-2.014-3.624zM16.474 16.088l-1.977 3.625-2.014-3.625z"/></g><g><path d="M34.55 5.363l-1.976 3.624-2.014-3.624zM34.55 16.088l-1.976 3.625-2.014-3.625zM37.387 0l-1.976 3.624L33.397 0zM37.387 10.726l-1.976 3.624-2.014-3.624zM31.794 0l-1.976 3.624L27.804 0zM31.794 10.726l-1.976 3.624-2.014-3.624zM28.957 5.363l-1.976 3.624-2.014-3.624zM28.957 16.088l-1.976 3.625-2.014-3.625z"/><g><path d="M47.034 5.363l-1.977 3.624-2.014-3.624zM47.034 16.088l-1.977 3.625-2.014-3.625zM49.87 0l-1.976 3.624L45.88 0zM49.87 10.726l-1.976 3.624-2.014-3.624zM44.278 0L42.3 3.624 40.287 0zM44.278 10.726L42.3 14.35l-2.014-3.624zM41.44 5.363l-1.976 3.624-2.014-3.624zM41.44 16.088l-1.976 3.625-2.014-3.625z"/></g></g></g><g transform="translate(127.757 111.075)" fill="url(#a)"><path d="M9.584 5.363L7.607 8.987 5.593 5.363zM9.584 16.088l-1.977 3.625-2.014-3.625zM12.42 0l-1.976 3.624L8.43 0zM12.42 10.726l-1.976 3.624-2.014-3.624zM6.828 0L4.85 3.624 2.837 0zM6.828 10.726L4.85 14.35l-2.014-3.624zM3.99 5.363L2.015 8.987 0 5.363zM3.99 16.088l-1.976 3.625L0 16.088z"/><g><path d="M22.067 5.363L20.09 8.987l-2.014-3.624zM22.067 16.088l-1.977 3.625-2.014-3.625zM24.904 0l-1.976 3.624L20.914 0zM24.904 10.726l-1.976 3.624-2.014-3.624zM19.311 0l-1.977 3.624L15.32 0zM19.311 10.726l-1.977 3.624-2.014-3.624zM16.474 5.363l-1.977 3.624-2.014-3.624zM16.474 16.088l-1.977 3.625-2.014-3.625z"/></g><g><path d="M34.55 5.363l-1.976 3.624-2.014-3.624zM34.55 16.088l-1.976 3.625-2.014-3.625zM37.387 0l-1.976 3.624L33.397 0zM37.387 10.726l-1.976 3.624-2.014-3.624zM31.794 0l-1.976 3.624L27.804 0zM31.794 10.726l-1.976 3.624-2.014-3.624zM28.957 5.363l-1.976 3.624-2.014-3.624zM28.957 16.088l-1.976 3.625-2.014-3.625z"/><g><path d="M47.034 5.363l-1.977 3.624-2.014-3.624zM47.034 16.088l-1.977 3.625-2.014-3.625zM49.87 0l-1.976 3.624L45.88 0zM49.87 10.726l-1.976 3.624-2.014-3.624zM44.278 0L42.3 3.624 40.287 0zM44.278 10.726L42.3 14.35l-2.014-3.624zM41.44 5.363l-1.976 3.624-2.014-3.624zM41.44 16.088l-1.976 3.625-2.014-3.625z"/></g></g></g><g transform="translate(177.69 111.075)" fill="url(#a)"><path d="M9.584 5.363L7.607 8.987 5.593 5.363zM9.584 16.088l-1.977 3.625-2.014-3.625zM12.42 0l-1.976 3.624L8.43 0zM12.42 10.726l-1.976 3.624-2.014-3.624zM6.828 0L4.85 3.624 2.837 0zM6.828 10.726L4.85 14.35l-2.014-3.624zM3.99 5.363L2.015 8.987 0 5.363zM3.99 16.088l-1.976 3.625L0 16.088z"/><g><path d="M22.067 5.363L20.09 8.987l-2.014-3.624zM22.067 16.088l-1.977 3.625-2.014-3.625zM24.904 0l-1.976 3.624L20.914 0zM24.904 10.726l-1.976 3.624-2.014-3.624zM19.311 0l-1.977 3.624L15.32 0zM19.311 10.726l-1.977 3.624-2.014-3.624zM16.474 5.363l-1.977 3.624-2.014-3.624zM16.474 16.088l-1.977 3.625-2.014-3.625z"/></g><g><path d="M34.55 5.363l-1.976 3.624-2.014-3.624zM34.55 16.088l-1.976 3.625-2.014-3.625zM37.387 0l-1.976 3.624L33.397 0zM37.387 10.726l-1.976 3.624-2.014-3.624zM31.794 0l-1.976 3.624L27.804 0zM31.794 10.726l-1.976 3.624-2.014-3.624zM28.957 5.363l-1.976 3.624-2.014-3.624zM28.957 16.088l-1.976 3.625-2.014-3.625z"/><g><path d="M47.034 5.363l-1.977 3.624-2.014-3.624zM47.034 16.088l-1.977 3.625-2.014-3.625zM49.87 0l-1.976 3.624L45.88 0zM49.87 10.726l-1.976 3.624-2.014-3.624zM44.278 0L42.3 3.624 40.287 0zM44.278 10.726L42.3 14.35l-2.014-3.624zM41.44 5.363l-1.976 3.624-2.014-3.624zM41.44 16.088l-1.976 3.625-2.014-3.625z"/></g></g></g><g fill="url(#b)" transform="translate(.15 111.075)"><path d="M64.16 5.363l-2.025 3.624-2.065-3.624zM46.962 5.363l-2.026 3.624-2.064-3.624zM64.16 16.088l-2.025 3.625-2.065-3.625zM58.428 16.088l-2.026 3.625-2.064-3.625zM46.962 16.088l-2.026 3.625-2.064-3.625zM75.626 5.363L73.6 8.987l-2.064-3.624zM75.626 16.088L73.6 19.713l-2.064-3.625zM67.152 0l-2.026 3.624L63.06 0zM49.953 0l-2.026 3.624L45.863 0zM67.152 10.726l-2.026 3.624-2.065-3.624zM49.953 10.726l-2.026 3.624-2.064-3.624zM78.534 0l-2.026 3.624L74.444 0zM78.534 10.726l-2.026 3.624-2.064-3.624zM61.419 0l-2.026 3.624L57.329 0zM44.22 0l-2.026 3.624L40.13 0zM61.419 10.726l-2.026 3.624-2.064-3.624zM44.22 10.726l-2.026 3.624-2.064-3.624zM72.802 0l-2.026 3.624L68.71 0zM55.603 0l-2.026 3.624L51.513 0zM72.802 10.726l-2.026 3.624-2.065-3.624zM55.603 10.726l-2.026 3.624-2.064-3.624zM69.894 5.363l-2.026 3.624-2.065-3.624zM52.695 5.363l-2.026 3.624-2.064-3.624zM58.428 5.363l-2.026 3.624-2.064-3.624zM69.894 16.088l-2.026 3.625-2.065-3.625zM52.695 16.088l-2.026 3.625-2.064-3.625zM24.03 5.363l-2.025 3.624-2.065-3.624zM6.832 5.363L4.806 8.987 2.742 5.363zM24.03 16.088l-2.025 3.625-2.065-3.625zM18.298 16.088l-2.026 3.625-2.064-3.625zM6.832 16.088l-2.026 3.625-2.064-3.625zM35.496 5.363L33.47 8.987l-2.064-3.624zM41.645 5.363l-2.026 3.624-2.065-3.624zM41.645 16.088l-2.026 3.625-2.065-3.625zM35.496 16.088l-2.026 3.625-2.064-3.625zM27.022 0l-2.026 3.624L22.93 0zM9.823 0L7.797 3.624 5.733 0zM27.022 10.726l-2.026 3.624-2.065-3.624zM9.823 10.726L7.797 14.35l-2.064-3.624zM38.404 0l-2.026 3.624L34.314 0zM38.404 10.726l-2.026 3.624-2.064-3.624zM21.289 0l-2.026 3.624L17.199 0zM4.09 0L2.064 3.624 0 0zM21.289 10.726l-2.026 3.624-2.064-3.624zM4.09 10.726L2.064 14.35 0 10.726zM32.672 0l-2.026 3.624L28.58 0zM15.473 0l-2.026 3.624L11.383 0zM32.672 10.726l-2.026 3.624-2.065-3.624zM15.473 10.726l-2.026 3.624-2.064-3.624zM29.764 5.363l-2.026 3.624-2.065-3.624zM12.565 5.363l-2.026 3.624-2.064-3.624zM18.298 5.363l-2.026 3.624-2.064-3.624zM29.764 16.088l-2.026 3.625-2.065-3.625zM12.565 16.088l-2.026 3.625-2.064-3.625z"/></g><g><g transform="translate(77.824 89)" fill="url(#a)"><path d="M9.584 5.363L7.607 8.987 5.593 5.363zM9.584 16.088l-1.977 3.625-2.014-3.625zM12.42 0l-1.976 3.624L8.43 0zM12.42 10.726l-1.976 3.624-2.014-3.624zM6.828 0L4.85 3.624 2.837 0zM6.828 10.726L4.85 14.35l-2.014-3.624zM3.99 5.363L2.015 8.987 0 5.363zM3.99 16.088l-1.976 3.625L0 16.088z"/><g><path d="M22.067 5.363L20.09 8.987l-2.014-3.624zM22.067 16.088l-1.977 3.625-2.014-3.625zM24.904 0l-1.976 3.624L20.914 0zM24.904 10.726l-1.976 3.624-2.014-3.624zM19.311 0l-1.977 3.624L15.32 0zM19.311 10.726l-1.977 3.624-2.014-3.624zM16.474 5.363l-1.977 3.624-2.014-3.624zM16.474 16.088l-1.977 3.625-2.014-3.625z"/></g><g><path d="M34.55 5.363l-1.976 3.624-2.014-3.624zM34.55 16.088l-1.976 3.625-2.014-3.625zM37.387 0l-1.976 3.624L33.397 0zM37.387 10.726l-1.976 3.624-2.014-3.624zM31.794 0l-1.976 3.624L27.804 0zM31.794 10.726l-1.976 3.624-2.014-3.624zM28.957 5.363l-1.976 3.624-2.014-3.624zM28.957 16.088l-1.976 3.625-2.014-3.625z"/><g><path d="M47.034 5.363l-1.977 3.624-2.014-3.624zM47.034 16.088l-1.977 3.625-2.014-3.625zM49.87 0l-1.976 3.624L45.88 0zM49.87 10.726l-1.976 3.624-2.014-3.624zM44.278 0L42.3 3.624 40.287 0zM44.278 10.726L42.3 14.35l-2.014-3.624zM41.44 5.363l-1.976 3.624-2.014-3.624zM41.44 16.088l-1.976 3.625-2.014-3.625z"/></g></g></g><g transform="translate(127.757 89)" fill="url(#a)"><path d="M9.584 5.363L7.607 8.987 5.593 5.363zM9.584 16.088l-1.977 3.625-2.014-3.625zM12.42 0l-1.976 3.624L8.43 0zM12.42 10.726l-1.976 3.624-2.014-3.624zM6.828 0L4.85 3.624 2.837 0zM6.828 10.726L4.85 14.35l-2.014-3.624zM3.99 5.363L2.015 8.987 0 5.363zM3.99 16.088l-1.976 3.625L0 16.088z"/><g><path d="M22.067 5.363L20.09 8.987l-2.014-3.624zM22.067 16.088l-1.977 3.625-2.014-3.625zM24.904 0l-1.976 3.624L20.914 0zM24.904 10.726l-1.976 3.624-2.014-3.624zM19.311 0l-1.977 3.624L15.32 0zM19.311 10.726l-1.977 3.624-2.014-3.624zM16.474 5.363l-1.977 3.624-2.014-3.624zM16.474 16.088l-1.977 3.625-2.014-3.625z"/></g><g><path d="M34.55 5.363l-1.976 3.624-2.014-3.624zM34.55 16.088l-1.976 3.625-2.014-3.625zM37.387 0l-1.976 3.624L33.397 0zM37.387 10.726l-1.976 3.624-2.014-3.624zM31.794 0l-1.976 3.624L27.804 0zM31.794 10.726l-1.976 3.624-2.014-3.624zM28.957 5.363l-1.976 3.624-2.014-3.624zM28.957 16.088l-1.976 3.625-2.014-3.625z"/><g><path d="M47.034 5.363l-1.977 3.624-2.014-3.624zM47.034 16.088l-1.977 3.625-2.014-3.625zM49.87 0l-1.976 3.624L45.88 0zM49.87 10.726l-1.976 3.624-2.014-3.624zM44.278 0L42.3 3.624 40.287 0zM44.278 10.726L42.3 14.35l-2.014-3.624zM41.44 5.363l-1.976 3.624-2.014-3.624zM41.44 16.088l-1.976 3.625-2.014-3.625z"/></g></g></g><g transform="translate(177.69 89)" fill="url(#a)"><path d="M9.584 5.363L7.607 8.987 5.593 5.363zM9.584 16.088l-1.977 3.625-2.014-3.625zM12.42 0l-1.976 3.624L8.43 0zM12.42 10.726l-1.976 3.624-2.014-3.624zM6.828 0L4.85 3.624 2.837 0zM6.828 10.726L4.85 14.35l-2.014-3.624zM3.99 5.363L2.015 8.987 0 5.363zM3.99 16.088l-1.976 3.625L0 16.088z"/><g><path d="M22.067 5.363L20.09 8.987l-2.014-3.624zM22.067 16.088l-1.977 3.625-2.014-3.625zM24.904 0l-1.976 3.624L20.914 0zM24.904 10.726l-1.976 3.624-2.014-3.624zM19.311 0l-1.977 3.624L15.32 0zM19.311 10.726l-1.977 3.624-2.014-3.624zM16.474 5.363l-1.977 3.624-2.014-3.624zM16.474 16.088l-1.977 3.625-2.014-3.625z"/></g><g><path d="M34.55 5.363l-1.976 3.624-2.014-3.624zM34.55 16.088l-1.976 3.625-2.014-3.625zM37.387 0l-1.976 3.624L33.397 0zM37.387 10.726l-1.976 3.624-2.014-3.624zM31.794 0l-1.976 3.624L27.804 0zM31.794 10.726l-1.976 3.624-2.014-3.624zM28.957 5.363l-1.976 3.624-2.014-3.624zM28.957 16.088l-1.976 3.625-2.014-3.625z"/><g><path d="M47.034 5.363l-1.977 3.624-2.014-3.624zM47.034 16.088l-1.977 3.625-2.014-3.625zM49.87 0l-1.976 3.624L45.88 0zM49.87 10.726l-1.976 3.624-2.014-3.624zM44.278 0L42.3 3.624 40.287 0zM44.278 10.726L42.3 14.35l-2.014-3.624zM41.44 5.363l-1.976 3.624-2.014-3.624zM41.44 16.088l-1.976 3.625-2.014-3.625z"/></g></g></g><g fill="url(#b)" transform="translate(.15 89)"><path d="M64.16 5.363l-2.025 3.624-2.065-3.624zM46.962 5.363l-2.026 3.624-2.064-3.624zM64.16 16.088l-2.025 3.625-2.065-3.625zM58.428 16.088l-2.026 3.625-2.064-3.625zM46.962 16.088l-2.026 3.625-2.064-3.625zM75.626 5.363L73.6 8.987l-2.064-3.624zM75.626 16.088L73.6 19.713l-2.064-3.625zM67.152 0l-2.026 3.624L63.06 0zM49.953 0l-2.026 3.624L45.863 0zM67.152 10.726l-2.026 3.624-2.065-3.624zM49.953 10.726l-2.026 3.624-2.064-3.624zM78.534 0l-2.026 3.624L74.444 0zM78.534 10.726l-2.026 3.624-2.064-3.624zM61.419 0l-2.026 3.624L57.329 0zM44.22 0l-2.026 3.624L40.13 0zM61.419 10.726l-2.026 3.624-2.064-3.624zM44.22 10.726l-2.026 3.624-2.064-3.624zM72.802 0l-2.026 3.624L68.71 0zM55.603 0l-2.026 3.624L51.513 0zM72.802 10.726l-2.026 3.624-2.065-3.624zM55.603 10.726l-2.026 3.624-2.064-3.624zM69.894 5.363l-2.026 3.624-2.065-3.624zM52.695 5.363l-2.026 3.624-2.064-3.624zM58.428 5.363l-2.026 3.624-2.064-3.624zM69.894 16.088l-2.026 3.625-2.065-3.625zM52.695 16.088l-2.026 3.625-2.064-3.625zM24.03 5.363l-2.025 3.624-2.065-3.624zM6.832 5.363L4.806 8.987 2.742 5.363zM24.03 16.088l-2.025 3.625-2.065-3.625zM18.298 16.088l-2.026 3.625-2.064-3.625zM6.832 16.088l-2.026 3.625-2.064-3.625zM35.496 5.363L33.47 8.987l-2.064-3.624zM41.645 5.363l-2.026 3.624-2.065-3.624zM41.645 16.088l-2.026 3.625-2.065-3.625zM35.496 16.088l-2.026 3.625-2.064-3.625zM27.022 0l-2.026 3.624L22.93 0zM9.823 0L7.797 3.624 5.733 0zM27.022 10.726l-2.026 3.624-2.065-3.624zM9.823 10.726L7.797 14.35l-2.064-3.624zM38.404 0l-2.026 3.624L34.314 0zM38.404 10.726l-2.026 3.624-2.064-3.624zM21.289 0l-2.026 3.624L17.199 0zM4.09 0L2.064 3.624 0 0zM21.289 10.726l-2.026 3.624-2.064-3.624zM4.09 10.726L2.064 14.35 0 10.726zM32.672 0l-2.026 3.624L28.58 0zM15.473 0l-2.026 3.624L11.383 0zM32.672 10.726l-2.026 3.624-2.065-3.624zM15.473 10.726l-2.026 3.624-2.064-3.624zM29.764 5.363l-2.026 3.624-2.065-3.624zM12.565 5.363l-2.026 3.624-2.064-3.624zM18.298 5.363l-2.026 3.624-2.064-3.624zM29.764 16.088l-2.026 3.625-2.065-3.625zM12.565 16.088l-2.026 3.625-2.064-3.625z"/></g></g><g><path d="M2 133.15h221V175H2z"/><g transform="translate(77.824 155.225)" fill="url(#a)"><path d="M9.584 5.363L7.607 8.987 5.593 5.363zM9.584 16.088l-1.977 3.625-2.014-3.625zM12.42 0l-1.976 3.624L8.43 0zM12.42 10.726l-1.976 3.624-2.014-3.624zM6.828 0L4.85 3.624 2.837 0zM6.828 10.726L4.85 14.35l-2.014-3.624zM3.99 5.363L2.015 8.987 0 5.363zM3.99 16.088l-1.976 3.625L0 16.088z"/><g><path d="M22.067 5.363L20.09 8.987l-2.014-3.624zM22.067 16.088l-1.977 3.625-2.014-3.625zM24.904 0l-1.976 3.624L20.914 0zM24.904 10.726l-1.976 3.624-2.014-3.624zM19.311 0l-1.977 3.624L15.32 0zM19.311 10.726l-1.977 3.624-2.014-3.624zM16.474 5.363l-1.977 3.624-2.014-3.624zM16.474 16.088l-1.977 3.625-2.014-3.625z"/></g><g><path d="M34.55 5.363l-1.976 3.624-2.014-3.624zM34.55 16.088l-1.976 3.625-2.014-3.625zM37.387 0l-1.976 3.624L33.397 0zM37.387 10.726l-1.976 3.624-2.014-3.624zM31.794 0l-1.976 3.624L27.804 0zM31.794 10.726l-1.976 3.624-2.014-3.624zM28.957 5.363l-1.976 3.624-2.014-3.624zM28.957 16.088l-1.976 3.625-2.014-3.625z"/><g><path d="M47.034 5.363l-1.977 3.624-2.014-3.624zM47.034 16.088l-1.977 3.625-2.014-3.625zM49.87 0l-1.976 3.624L45.88 0zM49.87 10.726l-1.976 3.624-2.014-3.624zM44.278 0L42.3 3.624 40.287 0zM44.278 10.726L42.3 14.35l-2.014-3.624zM41.44 5.363l-1.976 3.624-2.014-3.624zM41.44 16.088l-1.976 3.625-2.014-3.625z"/></g></g></g><g transform="translate(127.757 155.225)" fill="url(#a)"><path d="M9.584 5.363L7.607 8.987 5.593 5.363zM9.584 16.088l-1.977 3.625-2.014-3.625zM12.42 0l-1.976 3.624L8.43 0zM12.42 10.726l-1.976 3.624-2.014-3.624zM6.828 0L4.85 3.624 2.837 0zM6.828 10.726L4.85 14.35l-2.014-3.624zM3.99 5.363L2.015 8.987 0 5.363zM3.99 16.088l-1.976 3.625L0 16.088z"/><g><path d="M22.067 5.363L20.09 8.987l-2.014-3.624zM22.067 16.088l-1.977 3.625-2.014-3.625zM24.904 0l-1.976 3.624L20.914 0zM24.904 10.726l-1.976 3.624-2.014-3.624zM19.311 0l-1.977 3.624L15.32 0zM19.311 10.726l-1.977 3.624-2.014-3.624zM16.474 5.363l-1.977 3.624-2.014-3.624zM16.474 16.088l-1.977 3.625-2.014-3.625z"/></g><g><path d="M34.55 5.363l-1.976 3.624-2.014-3.624zM34.55 16.088l-1.976 3.625-2.014-3.625zM37.387 0l-1.976 3.624L33.397 0zM37.387 10.726l-1.976 3.624-2.014-3.624zM31.794 0l-1.976 3.624L27.804 0zM31.794 10.726l-1.976 3.624-2.014-3.624zM28.957 5.363l-1.976 3.624-2.014-3.624zM28.957 16.088l-1.976 3.625-2.014-3.625z"/><g><path d="M47.034 5.363l-1.977 3.624-2.014-3.624zM47.034 16.088l-1.977 3.625-2.014-3.625zM49.87 0l-1.976 3.624L45.88 0zM49.87 10.726l-1.976 3.624-2.014-3.624zM44.278 0L42.3 3.624 40.287 0zM44.278 10.726L42.3 14.35l-2.014-3.624zM41.44 5.363l-1.976 3.624-2.014-3.624zM41.44 16.088l-1.976 3.625-2.014-3.625z"/></g></g></g><g transform="translate(177.69 155.225)" fill="url(#a)"><path d="M9.584 5.363L7.607 8.987 5.593 5.363zM9.584 16.088l-1.977 3.625-2.014-3.625zM12.42 0l-1.976 3.624L8.43 0zM12.42 10.726l-1.976 3.624-2.014-3.624zM6.828 0L4.85 3.624 2.837 0zM6.828 10.726L4.85 14.35l-2.014-3.624zM3.99 5.363L2.015 8.987 0 5.363zM3.99 16.088l-1.976 3.625L0 16.088z"/><g><path d="M22.067 5.363L20.09 8.987l-2.014-3.624zM22.067 16.088l-1.977 3.625-2.014-3.625zM24.904 0l-1.976 3.624L20.914 0zM24.904 10.726l-1.976 3.624-2.014-3.624zM19.311 0l-1.977 3.624L15.32 0zM19.311 10.726l-1.977 3.624-2.014-3.624zM16.474 5.363l-1.977 3.624-2.014-3.624zM16.474 16.088l-1.977 3.625-2.014-3.625z"/></g><g><path d="M34.55 5.363l-1.976 3.624-2.014-3.624zM34.55 16.088l-1.976 3.625-2.014-3.625zM37.387 0l-1.976 3.624L33.397 0zM37.387 10.726l-1.976 3.624-2.014-3.624zM31.794 0l-1.976 3.624L27.804 0zM31.794 10.726l-1.976 3.624-2.014-3.624zM28.957 5.363l-1.976 3.624-2.014-3.624zM28.957 16.088l-1.976 3.625-2.014-3.625z"/><g><path d="M47.034 5.363l-1.977 3.624-2.014-3.624zM47.034 16.088l-1.977 3.625-2.014-3.625zM49.87 0l-1.976 3.624L45.88 0zM49.87 10.726l-1.976 3.624-2.014-3.624zM44.278 0L42.3 3.624 40.287 0zM44.278 10.726L42.3 14.35l-2.014-3.624zM41.44 5.363l-1.976 3.624-2.014-3.624zM41.44 16.088l-1.976 3.625-2.014-3.625z"/></g></g></g><g fill="url(#b)" transform="translate(.15 155.225)"><path d="M64.16 5.363l-2.025 3.624-2.065-3.624zM46.962 5.363l-2.026 3.624-2.064-3.624zM64.16 16.088l-2.025 3.625-2.065-3.625zM58.428 16.088l-2.026 3.625-2.064-3.625zM46.962 16.088l-2.026 3.625-2.064-3.625zM75.626 5.363L73.6 8.987l-2.064-3.624zM75.626 16.088L73.6 19.713l-2.064-3.625zM67.152 0l-2.026 3.624L63.06 0zM49.953 0l-2.026 3.624L45.863 0zM67.152 10.726l-2.026 3.624-2.065-3.624zM49.953 10.726l-2.026 3.624-2.064-3.624zM78.534 0l-2.026 3.624L74.444 0zM78.534 10.726l-2.026 3.624-2.064-3.624zM61.419 0l-2.026 3.624L57.329 0zM44.22 0l-2.026 3.624L40.13 0zM61.419 10.726l-2.026 3.624-2.064-3.624zM44.22 10.726l-2.026 3.624-2.064-3.624zM72.802 0l-2.026 3.624L68.71 0zM55.603 0l-2.026 3.624L51.513 0zM72.802 10.726l-2.026 3.624-2.065-3.624zM55.603 10.726l-2.026 3.624-2.064-3.624zM69.894 5.363l-2.026 3.624-2.065-3.624zM52.695 5.363l-2.026 3.624-2.064-3.624zM58.428 5.363l-2.026 3.624-2.064-3.624zM69.894 16.088l-2.026 3.625-2.065-3.625zM52.695 16.088l-2.026 3.625-2.064-3.625zM24.03 5.363l-2.025 3.624-2.065-3.624zM6.832 5.363L4.806 8.987 2.742 5.363zM24.03 16.088l-2.025 3.625-2.065-3.625zM18.298 16.088l-2.026 3.625-2.064-3.625zM6.832 16.088l-2.026 3.625-2.064-3.625zM35.496 5.363L33.47 8.987l-2.064-3.624zM41.645 5.363l-2.026 3.624-2.065-3.624zM41.645 16.088l-2.026 3.625-2.065-3.625zM35.496 16.088l-2.026 3.625-2.064-3.625zM27.022 0l-2.026 3.624L22.93 0zM9.823 0L7.797 3.624 5.733 0zM27.022 10.726l-2.026 3.624-2.065-3.624zM9.823 10.726L7.797 14.35l-2.064-3.624zM38.404 0l-2.026 3.624L34.314 0zM38.404 10.726l-2.026 3.624-2.064-3.624zM21.289 0l-2.026 3.624L17.199 0zM4.09 0L2.064 3.624 0 0zM21.289 10.726l-2.026 3.624-2.064-3.624zM4.09 10.726L2.064 14.35 0 10.726zM32.672 0l-2.026 3.624L28.58 0zM15.473 0l-2.026 3.624L11.383 0zM32.672 10.726l-2.026 3.624-2.065-3.624zM15.473 10.726l-2.026 3.624-2.064-3.624zM29.764 5.363l-2.026 3.624-2.065-3.624zM12.565 5.363l-2.026 3.624-2.064-3.624zM18.298 5.363l-2.026 3.624-2.064-3.624zM29.764 16.088l-2.026 3.625-2.065-3.625zM12.565 16.088l-2.026 3.625-2.064-3.625z"/></g><g><g transform="translate(77.824 133.15)" fill="url(#a)"><path d="M9.584 5.363L7.607 8.987 5.593 5.363zM9.584 16.088l-1.977 3.625-2.014-3.625zM12.42 0l-1.976 3.624L8.43 0zM12.42 10.726l-1.976 3.624-2.014-3.624zM6.828 0L4.85 3.624 2.837 0zM6.828 10.726L4.85 14.35l-2.014-3.624zM3.99 5.363L2.015 8.987 0 5.363zM3.99 16.088l-1.976 3.625L0 16.088z"/><g><path d="M22.067 5.363L20.09 8.987l-2.014-3.624zM22.067 16.088l-1.977 3.625-2.014-3.625zM24.904 0l-1.976 3.624L20.914 0zM24.904 10.726l-1.976 3.624-2.014-3.624zM19.311 0l-1.977 3.624L15.32 0zM19.311 10.726l-1.977 3.624-2.014-3.624zM16.474 5.363l-1.977 3.624-2.014-3.624zM16.474 16.088l-1.977 3.625-2.014-3.625z"/></g><g><path d="M34.55 5.363l-1.976 3.624-2.014-3.624zM34.55 16.088l-1.976 3.625-2.014-3.625zM37.387 0l-1.976 3.624L33.397 0zM37.387 10.726l-1.976 3.624-2.014-3.624zM31.794 0l-1.976 3.624L27.804 0zM31.794 10.726l-1.976 3.624-2.014-3.624zM28.957 5.363l-1.976 3.624-2.014-3.624zM28.957 16.088l-1.976 3.625-2.014-3.625z"/><g><path d="M47.034 5.363l-1.977 3.624-2.014-3.624zM47.034 16.088l-1.977 3.625-2.014-3.625zM49.87 0l-1.976 3.624L45.88 0zM49.87 10.726l-1.976 3.624-2.014-3.624zM44.278 0L42.3 3.624 40.287 0zM44.278 10.726L42.3 14.35l-2.014-3.624zM41.44 5.363l-1.976 3.624-2.014-3.624zM41.44 16.088l-1.976 3.625-2.014-3.625z"/></g></g></g><g transform="translate(127.757 133.15)" fill="url(#a)"><path d="M9.584 5.363L7.607 8.987 5.593 5.363zM9.584 16.088l-1.977 3.625-2.014-3.625zM12.42 0l-1.976 3.624L8.43 0zM12.42 10.726l-1.976 3.624-2.014-3.624zM6.828 0L4.85 3.624 2.837 0zM6.828 10.726L4.85 14.35l-2.014-3.624zM3.99 5.363L2.015 8.987 0 5.363zM3.99 16.088l-1.976 3.625L0 16.088z"/><g><path d="M22.067 5.363L20.09 8.987l-2.014-3.624zM22.067 16.088l-1.977 3.625-2.014-3.625zM24.904 0l-1.976 3.624L20.914 0zM24.904 10.726l-1.976 3.624-2.014-3.624zM19.311 0l-1.977 3.624L15.32 0zM19.311 10.726l-1.977 3.624-2.014-3.624zM16.474 5.363l-1.977 3.624-2.014-3.624zM16.474 16.088l-1.977 3.625-2.014-3.625z"/></g><g><path d="M34.55 5.363l-1.976 3.624-2.014-3.624zM34.55 16.088l-1.976 3.625-2.014-3.625zM37.387 0l-1.976 3.624L33.397 0zM37.387 10.726l-1.976 3.624-2.014-3.624zM31.794 0l-1.976 3.624L27.804 0zM31.794 10.726l-1.976 3.624-2.014-3.624zM28.957 5.363l-1.976 3.624-2.014-3.624zM28.957 16.088l-1.976 3.625-2.014-3.625z"/><g><path d="M47.034 5.363l-1.977 3.624-2.014-3.624zM47.034 16.088l-1.977 3.625-2.014-3.625zM49.87 0l-1.976 3.624L45.88 0zM49.87 10.726l-1.976 3.624-2.014-3.624zM44.278 0L42.3 3.624 40.287 0zM44.278 10.726L42.3 14.35l-2.014-3.624zM41.44 5.363l-1.976 3.624-2.014-3.624zM41.44 16.088l-1.976 3.625-2.014-3.625z"/></g></g></g><g transform="translate(177.69 133.15)" fill="url(#a)"><path d="M9.584 5.363L7.607 8.987 5.593 5.363zM9.584 16.088l-1.977 3.625-2.014-3.625zM12.42 0l-1.976 3.624L8.43 0zM12.42 10.726l-1.976 3.624-2.014-3.624zM6.828 0L4.85 3.624 2.837 0zM6.828 10.726L4.85 14.35l-2.014-3.624zM3.99 5.363L2.015 8.987 0 5.363zM3.99 16.088l-1.976 3.625L0 16.088z"/><g><path d="M22.067 5.363L20.09 8.987l-2.014-3.624zM22.067 16.088l-1.977 3.625-2.014-3.625zM24.904 0l-1.976 3.624L20.914 0zM24.904 10.726l-1.976 3.624-2.014-3.624zM19.311 0l-1.977 3.624L15.32 0zM19.311 10.726l-1.977 3.624-2.014-3.624zM16.474 5.363l-1.977 3.624-2.014-3.624zM16.474 16.088l-1.977 3.625-2.014-3.625z"/></g><g><path d="M34.55 5.363l-1.976 3.624-2.014-3.624zM34.55 16.088l-1.976 3.625-2.014-3.625zM37.387 0l-1.976 3.624L33.397 0zM37.387 10.726l-1.976 3.624-2.014-3.624zM31.794 0l-1.976 3.624L27.804 0zM31.794 10.726l-1.976 3.624-2.014-3.624zM28.957 5.363l-1.976 3.624-2.014-3.624zM28.957 16.088l-1.976 3.625-2.014-3.625z"/><g><path d="M47.034 5.363l-1.977 3.624-2.014-3.624zM47.034 16.088l-1.977 3.625-2.014-3.625zM49.87 0l-1.976 3.624L45.88 0zM49.87 10.726l-1.976 3.624-2.014-3.624zM44.278 0L42.3 3.624 40.287 0zM44.278 10.726L42.3 14.35l-2.014-3.624zM41.44 5.363l-1.976 3.624-2.014-3.624zM41.44 16.088l-1.976 3.625-2.014-3.625z"/></g></g></g><g fill="url(#b)" transform="translate(.15 133.15)"><path d="M64.16 5.363l-2.025 3.624-2.065-3.624zM46.962 5.363l-2.026 3.624-2.064-3.624zM64.16 16.088l-2.025 3.625-2.065-3.625zM58.428 16.088l-2.026 3.625-2.064-3.625zM46.962 16.088l-2.026 3.625-2.064-3.625zM75.626 5.363L73.6 8.987l-2.064-3.624zM75.626 16.088L73.6 19.713l-2.064-3.625zM67.152 0l-2.026 3.624L63.06 0zM49.953 0l-2.026 3.624L45.863 0zM67.152 10.726l-2.026 3.624-2.065-3.624zM49.953 10.726l-2.026 3.624-2.064-3.624zM78.534 0l-2.026 3.624L74.444 0zM78.534 10.726l-2.026 3.624-2.064-3.624zM61.419 0l-2.026 3.624L57.329 0zM44.22 0l-2.026 3.624L40.13 0zM61.419 10.726l-2.026 3.624-2.064-3.624zM44.22 10.726l-2.026 3.624-2.064-3.624zM72.802 0l-2.026 3.624L68.71 0zM55.603 0l-2.026 3.624L51.513 0zM72.802 10.726l-2.026 3.624-2.065-3.624zM55.603 10.726l-2.026 3.624-2.064-3.624zM69.894 5.363l-2.026 3.624-2.065-3.624zM52.695 5.363l-2.026 3.624-2.064-3.624zM58.428 5.363l-2.026 3.624-2.064-3.624zM69.894 16.088l-2.026 3.625-2.065-3.625zM52.695 16.088l-2.026 3.625-2.064-3.625zM24.03 5.363l-2.025 3.624-2.065-3.624zM6.832 5.363L4.806 8.987 2.742 5.363zM24.03 16.088l-2.025 3.625-2.065-3.625zM18.298 16.088l-2.026 3.625-2.064-3.625zM6.832 16.088l-2.026 3.625-2.064-3.625zM35.496 5.363L33.47 8.987l-2.064-3.624zM41.645 5.363l-2.026 3.624-2.065-3.624zM41.645 16.088l-2.026 3.625-2.065-3.625zM35.496 16.088l-2.026 3.625-2.064-3.625zM27.022 0l-2.026 3.624L22.93 0zM9.823 0L7.797 3.624 5.733 0zM27.022 10.726l-2.026 3.624-2.065-3.624zM9.823 10.726L7.797 14.35l-2.064-3.624zM38.404 0l-2.026 3.624L34.314 0zM38.404 10.726l-2.026 3.624-2.064-3.624zM21.289 0l-2.026 3.624L17.199 0zM4.09 0L2.064 3.624 0 0zM21.289 10.726l-2.026 3.624-2.064-3.624zM4.09 10.726L2.064 14.35 0 10.726zM32.672 0l-2.026 3.624L28.58 0zM15.473 0l-2.026 3.624L11.383 0zM32.672 10.726l-2.026 3.624-2.065-3.624zM15.473 10.726l-2.026 3.624-2.064-3.624zM29.764 5.363l-2.026 3.624-2.065-3.624zM12.565 5.363l-2.026 3.624-2.064-3.624zM18.298 5.363l-2.026 3.624-2.064-3.624zM29.764 16.088l-2.026 3.625-2.065-3.625zM12.565 16.088l-2.026 3.625-2.064-3.625z"/></g></g></g></g></g></svg>